{"glyphs":{"0":{"ha":767,"x_min":-122,"x_max":864,"o":"m -100 383 q -117 406 -122 394 q -108 418 -117 414 q -94 422 -100 422 q 6 436 -56 414 q 140 506 67 458 q 294 621 214 553 q 456 772 375 689 q 590 935 525 850 q 706 1106 656 1019 q 786 1276 756 1192 q 822 1439 817 1361 l 828 1478 l 817 1506 q 758 1556 800 1553 q 650 1528 717 1558 q 476 1411 569 1489 q 294 1233 383 1333 q 122 1022 200 1133 q -1 807 44 911 q -53 617 -47 703 q -11 478 -58 531 q -8 463 -6 469 q -11 450 -11 456 q -26 443 -19 442 q -39 450 -33 444 q -87 613 -94 514 q -32 822 -81 711 q 97 1049 17 933 q 267 1261 178 1164 q 454 1440 358 1361 q 633 1561 550 1519 q 781 1588 717 1600 q 861 1483 844 1575 l 861 1478 q 833 1300 864 1394 q 749 1110 803 1206 q 625 921 694 1014 q 478 744 556 828 q 321 594 403 664 q 161 475 239 525 q 15 400 83 425 q -100 383 -53 375 z "},"1":{"ha":483,"x_min":-339,"x_max":803,"o":"m -111 461 l -194 444 l -267 433 l -306 417 q -333 428 -322 408 q -335 442 -339 433 q -322 456 -331 450 q -275 467 -306 461 q -206 478 -244 472 l -106 500 q -61 589 -92 539 q -6 678 -31 639 q 114 839 44 750 q 256 1017 183 928 l 483 1289 l 528 1339 l 456 1294 q 335 1233 389 1256 q 250 1211 281 1211 q 233 1233 233 1211 q 238 1244 233 1239 q 250 1250 242 1250 q 319 1268 275 1250 q 417 1315 364 1286 q 526 1381 469 1344 q 633 1456 583 1417 l 639 1456 l 656 1472 q 719 1535 689 1511 q 767 1572 750 1558 q 793 1574 783 1586 q 794 1544 803 1561 q 753 1504 778 1528 q 694 1456 728 1481 l 667 1433 l 650 1411 q 475 1221 569 1331 q 289 994 381 1111 q 146 817 214 906 q 28 656 78 728 q -21 588 -3 617 q -56 528 -39 558 q -58 517 -56 522 q -61 506 -61 511 q -42 508 -53 506 q -17 511 -31 511 l 106 522 q 143 528 128 528 q 172 528 158 528 q 197 528 186 528 q 217 522 208 528 l 222 522 q 228 494 239 506 q 217 485 222 486 q 206 489 211 483 l 189 489 q 183 492 186 489 q 179 493 181 492 q 172 494 178 494 q 143 492 158 494 q 106 489 128 489 l -11 478 q -44 475 -28 478 q -78 467 -61 472 q -83 444 -78 450 q -111 456 -94 439 l -111 461 z "},"2":{"ha":1028,"x_min":-67,"x_max":1075,"o":"m -44 528 q 4 539 -14 536 q 61 550 22 542 q 407 661 242 592 q 703 822 572 731 q 919 1029 833 914 q 1028 1278 1006 1144 q 1022 1388 1039 1342 q 972 1460 1006 1433 q 889 1494 939 1486 q 783 1494 839 1503 q 640 1440 711 1481 q 524 1349 569 1400 q 465 1242 478 1297 q 500 1144 453 1186 q 558 1125 519 1128 q 643 1135 597 1122 q 739 1179 689 1147 q 828 1267 789 1211 q 856 1272 836 1283 q 863 1260 861 1267 q 856 1244 864 1253 q 761 1153 817 1189 q 651 1100 706 1117 q 550 1088 597 1083 q 478 1117 503 1092 q 426 1238 417 1169 q 488 1367 436 1306 q 618 1472 539 1428 q 778 1528 697 1517 q 896 1526 839 1536 q 994 1486 953 1517 q 1056 1404 1036 1456 q 1061 1278 1075 1353 q 975 1063 1042 1169 q 800 860 908 956 q 546 686 692 764 q 222 561 400 608 l 233 556 q 415 550 325 556 q 586 533 506 544 q 735 508 667 522 q 850 478 803 494 q 860 471 856 478 q 856 456 864 464 q 839 444 856 444 q 571 506 725 486 q 211 517 417 525 l 150 511 l 111 506 q 29 497 69 500 q -44 494 -11 494 q -64 508 -61 494 q -44 528 -67 522 z "},"3":{"ha":967,"x_min":-31,"x_max":1067,"o":"m -22 500 q 35 665 -31 567 q 256 889 100 764 q 264 893 256 894 q 278 883 272 892 q 278 861 289 872 q 67 642 122 731 q 17 506 11 553 q 74 446 22 464 q 217 450 125 428 q 418 526 322 475 q 593 644 514 578 q 728 785 672 711 q 811 928 783 858 q 835 1049 842 994 q 789 1133 828 1103 q 611 1167 739 1175 l 583 1167 q 489 1144 528 1150 q 428 1139 450 1139 q 408 1153 411 1139 q 422 1172 406 1167 q 493 1190 461 1186 q 556 1200 525 1194 l 589 1206 l 628 1217 q 714 1246 669 1231 q 800 1278 758 1261 q 979 1369 922 1325 q 1011 1444 1036 1414 q 932 1489 983 1475 q 822 1503 881 1503 q 706 1493 764 1503 q 606 1464 647 1483 q 544 1419 564 1444 q 544 1367 525 1394 q 539 1339 544 1344 q 511 1344 525 1331 q 499 1422 481 1386 q 563 1485 517 1458 q 676 1525 608 1511 q 813 1538 744 1539 q 940 1519 881 1536 q 1033 1467 1000 1503 q 1051 1400 1067 1433 q 1006 1344 1036 1367 q 921 1288 972 1311 q 811 1239 869 1264 l 706 1206 l 744 1194 q 781 1179 767 1189 q 811 1161 794 1169 q 868 1054 861 1119 q 844 917 875 989 q 756 767 814 844 q 617 618 697 689 q 438 493 536 547 q 228 411 339 439 q 61 411 136 394 q -22 500 -14 428 z "},"4":{"ha":856,"x_min":-25,"x_max":1033,"o":"m 250 394 q 238 403 242 394 q 233 417 233 411 q 349 663 267 522 q 539 944 431 803 q 292 933 422 961 q 11 833 161 906 q -15 836 -6 819 q -11 861 -25 853 q 78 922 25 883 q 189 1010 131 961 q 310 1113 247 1058 q 428 1222 372 1167 q 535 1331 486 1281 q 617 1428 583 1381 q 646 1467 633 1450 q 667 1500 658 1483 q 672 1522 672 1511 l 672 1528 q 678 1556 664 1542 q 700 1550 692 1569 q 701 1485 722 1525 q 650 1406 681 1444 q 456 1194 575 1314 q 304 1061 381 1128 q 156 939 228 994 l 144 928 l 172 939 q 561 978 375 1003 q 792 1271 675 1133 q 1006 1500 908 1408 q 1033 1500 1014 1519 l 1033 1478 q 825 1253 942 1386 q 600 972 708 1119 q 642 963 622 967 q 678 950 661 958 q 696 919 708 936 q 661 917 683 903 q 619 932 639 925 q 578 944 600 939 q 386 653 469 794 q 272 411 303 511 q 250 394 261 381 z "},"5":{"ha":694,"x_min":-150,"x_max":978,"o":"m 367 1478 q 356 1486 361 1478 q 350 1500 350 1494 q 361 1515 356 1508 q 372 1517 367 1522 l 478 1517 l 478 1522 q 500 1522 489 1533 l 511 1517 q 590 1519 550 1517 q 678 1528 631 1522 l 850 1544 l 917 1561 q 933 1567 928 1561 l 944 1567 q 953 1572 944 1572 q 967 1567 961 1572 q 967 1544 978 1556 q 961 1539 967 1539 q 944 1528 950 1528 q 933 1522 939 1522 q 922 1522 928 1522 l 856 1511 q 772 1500 817 1503 q 678 1489 728 1497 q 582 1481 628 1483 q 494 1478 536 1478 q 306 1272 419 1375 l 278 1250 l 294 1256 q 314 1258 303 1256 q 339 1261 325 1261 q 422 1278 381 1272 q 497 1275 464 1283 q 556 1242 531 1267 q 589 1172 581 1217 q 585 1004 603 1094 q 524 825 567 914 q 418 657 481 736 q 283 519 356 578 q 132 432 211 461 q -22 417 53 403 q -92 450 -47 422 q -144 550 -136 478 q -142 628 -150 583 q -106 726 -133 672 q -28 846 -78 781 q 100 989 22 911 q 128 989 119 1008 q 128 967 150 978 q 1 822 50 886 q -74 708 -47 758 q -108 621 -100 658 q -111 556 -117 583 q -68 478 -103 500 q -17 456 -33 456 q 193 507 83 439 q 390 685 303 575 q 525 925 478 794 q 550 1167 572 1056 q 485 1240 542 1231 q 344 1228 428 1250 q 144 1150 239 1200 l 56 1106 q 29 1115 39 1100 q 33 1139 19 1131 l 94 1167 l 128 1183 l 167 1206 q 319 1326 247 1256 q 450 1478 392 1397 l 367 1478 z "},"6":{"ha":678,"x_min":-69,"x_max":919,"o":"m -39 694 q 25 863 -17 775 q 122 1033 67 950 l 144 1061 q 139 1089 131 1075 q 206 1156 164 1122 l 217 1167 l 250 1206 l 389 1356 q 531 1478 458 1422 q 672 1568 603 1533 q 801 1610 742 1603 q 906 1589 861 1617 q 917 1582 914 1589 q 911 1567 919 1575 q 889 1561 900 1556 q 692 1536 822 1603 q 411 1328 561 1469 q 378 1289 394 1306 q 344 1256 361 1272 l 311 1217 l 344 1233 q 422 1258 383 1250 q 494 1267 461 1267 q 579 1251 542 1267 q 633 1189 617 1236 q 632 1075 647 1142 q 567 917 617 1008 q 332 592 450 703 q 122 456 214 481 q -24 501 22 433 q -39 694 -69 569 m 117 494 q 306 621 197 517 q 528 933 414 725 q 593 1083 578 1025 q 594 1172 608 1142 q 494 1233 578 1233 q 383 1206 444 1228 q 267 1150 322 1183 l 239 1133 l 211 1100 q 81 888 136 994 q 0 683 25 781 q 6 525 -25 578 q 117 494 36 472 z "},"7":{"ha":700,"x_min":-133,"x_max":1017,"o":"m -128 444 q -56 575 -114 497 q 88 743 3 653 q 274 931 172 833 q 481 1119 375 1028 q 686 1293 586 1211 q 867 1433 786 1375 l 889 1456 l 867 1450 q 699 1435 786 1436 q 528 1439 611 1433 q 375 1456 444 1444 q 267 1478 306 1467 q 256 1500 244 1478 q 278 1517 256 1517 q 415 1490 325 1503 q 608 1474 506 1478 q 814 1481 711 1469 q 989 1522 917 1492 q 1010 1513 1003 1528 q 1000 1489 1017 1497 q 839 1369 939 1447 q 622 1193 739 1292 q 386 985 506 1094 q 165 771 267 875 q -7 578 64 667 q -94 433 -78 489 q -104 422 -100 428 q -117 422 -108 417 q -128 444 -133 431 z "},"8":{"ha":844,"x_min":47,"x_max":1019,"o":"m 94 450 q 51 515 56 478 q 68 594 47 553 q 129 681 89 636 q 217 767 169 725 q 267 811 242 789 q 322 856 292 833 l 367 883 l 339 1006 q 318 1138 325 1072 q 317 1261 311 1203 q 383 1435 322 1367 q 532 1536 444 1503 q 718 1569 619 1569 q 900 1539 817 1569 q 997 1458 975 1508 q 994 1350 1019 1408 q 919 1235 972 1294 q 800 1117 867 1175 q 625 972 717 1042 q 461 844 533 903 l 417 811 l 433 750 q 421 582 453 656 q 333 467 389 508 q 211 418 278 425 q 94 450 144 411 m 644 1078 q 672 1072 667 1078 l 672 1056 l 711 1083 l 778 1144 q 894 1260 844 1203 q 961 1367 944 1317 q 967 1443 983 1408 q 883 1500 950 1478 q 713 1533 803 1533 q 543 1503 622 1533 q 410 1410 464 1472 q 350 1256 356 1347 q 354 1142 344 1206 q 378 1011 364 1078 l 394 906 l 433 939 q 550 1011 497 978 q 644 1078 603 1044 m 389 783 l 367 767 l 344 744 q 333 733 339 736 q 322 739 328 731 q 317 767 306 747 l 378 828 l 372 844 l 333 811 q 213 713 267 761 q 125 619 158 664 q 88 539 92 575 q 117 478 83 503 q 207 453 153 447 q 310 494 261 458 q 386 593 358 531 q 394 744 414 656 l 389 783 m 611 1011 l 556 972 q 500 933 531 950 q 444 894 469 917 l 406 867 l 411 856 l 433 872 q 500 921 467 894 q 567 972 533 947 l 611 1011 z "},"9":{"ha":733,"x_min":-200,"x_max":850,"o":"m -200 361 q -183 383 -200 375 q -89 417 -147 386 q 40 497 -31 447 q 193 617 111 547 q 356 767 275 686 q 435 846 397 806 q 511 928 472 886 l 578 1011 l 533 972 q 413 900 472 931 q 299 860 353 869 q 203 865 244 850 q 139 933 161 881 q 136 1082 117 1003 q 201 1238 156 1161 q 313 1382 247 1314 q 450 1500 378 1450 q 588 1586 517 1556 q 717 1617 658 1617 q 815 1568 781 1611 q 844 1433 850 1525 q 822 1354 836 1394 q 792 1267 808 1314 l 800 1278 q 828 1283 814 1292 q 833 1256 833 1278 q 790 1206 817 1233 q 733 1144 764 1178 l 700 1111 l 678 1078 q 539 904 614 989 q 383 739 464 819 q 219 589 303 658 q 61 467 136 519 q -76 382 -14 414 q -178 344 -139 350 q -200 361 -200 344 m 667 1128 l 706 1189 q 761 1297 736 1244 q 800 1400 786 1350 l 811 1433 l 811 1472 q 779 1554 803 1531 q 717 1578 756 1578 q 603 1556 667 1583 q 472 1478 539 1528 q 349 1365 408 1428 q 246 1236 289 1303 q 181 1103 203 1169 q 167 978 158 1036 l 167 944 q 246 893 192 894 q 369 921 300 892 q 514 1004 439 950 q 656 1122 589 1058 l 667 1128 z "},"\u0000":{"ha":0,"x_min":0,"x_max":0,"o":""},"\r":{"ha":2222,"x_min":0,"x_max":0,"o":""}," ":{"ha":689,"x_min":0,"x_max":0,"o":""},"":{"ha":2322,"x_min":-56,"x_max":2603,"o":"m -44 900 q -11 900 -28 917 q 90 874 -11 878 q 367 878 192 869 q 517 882 439 878 q 683 900 594 886 q 1068 1219 864 1061 q 1472 1515 1272 1378 q 1860 1758 1672 1653 q 2194 1917 2047 1864 q 2500 1975 2406 1989 q 2599 1888 2594 1961 q 2532 1697 2603 1814 q 2344 1450 2461 1581 q 2172 1260 2278 1369 q 1967 1028 2067 1150 q 2114 1042 2050 1033 q 2233 1044 2178 1050 l 2317 1044 q 2349 1039 2333 1039 q 2372 1033 2364 1039 q 2379 1019 2378 1028 q 2372 1006 2381 1011 q 2365 999 2372 1000 q 2350 1006 2358 997 q 2317 1011 2347 1003 q 2279 1008 2300 1011 q 2233 1011 2258 1006 q 2108 1007 2178 1011 q 1956 989 2039 1003 l 1939 989 q 1835 858 1883 922 q 1753 738 1786 794 q 1703 635 1719 681 q 1694 561 1686 589 q 1758 499 1706 511 q 1886 500 1811 486 q 2049 544 1961 514 q 2221 613 2136 575 q 2375 686 2306 650 q 2483 744 2444 722 q 2506 739 2494 750 q 2500 717 2511 728 q 2382 649 2458 689 q 2214 569 2306 608 q 2025 499 2122 531 q 1847 458 1928 467 q 1713 469 1767 450 q 1650 556 1658 489 q 1660 636 1644 589 q 1707 739 1675 683 q 1783 858 1739 794 q 1883 989 1828 922 q 1542 951 1728 972 q 1167 917 1356 931 q 926 888 1044 900 q 700 861 808 875 q 481 653 583 756 q 297 456 378 550 q 161 278 217 361 q 83 128 106 194 q 56 101 75 94 q 50 139 36 108 q 121 285 69 203 q 250 458 172 367 q 426 650 328 550 q 639 856 525 750 q 499 844 567 850 q 367 839 431 839 q 267 835 331 836 q 136 838 203 833 q 15 850 69 842 q -50 878 -39 858 q -53 893 -56 886 q -44 900 -50 900 m 2311 1467 q 2501 1707 2431 1600 q 2569 1876 2572 1814 q 2479 1943 2567 1939 q 2194 1878 2392 1947 q 1874 1725 2053 1825 q 1503 1494 1694 1625 q 1115 1211 1311 1364 q 744 900 919 1058 l 1161 950 q 1563 993 1367 972 q 1922 1028 1758 1014 q 2115 1247 2011 1136 q 2311 1467 2219 1358 z "},"Æ":{"ha":3056,"x_min":-261,"x_max":3692,"o":"m 961 217 q 956 232 953 225 q 967 239 958 239 q 1176 289 1064 264 q 1411 344 1289 314 q 1467 465 1422 392 q 1578 628 1511 539 q 1728 817 1644 717 q 1906 1022 1811 917 q 1599 994 1767 1006 q 1256 967 1431 983 l 1167 894 q 892 681 1031 786 q 618 483 753 575 q 356 322 483 392 q 115 215 228 253 q -92 179 3 178 q -256 233 -186 181 q -258 247 -256 239 q -256 256 -261 256 q -242 267 -250 264 q -228 261 -233 269 q 7 222 -139 192 q 333 351 153 253 q 722 600 514 450 q 1144 922 931 750 q 1163 939 1153 931 q 1189 956 1172 947 l 1161 956 q 739 917 944 933 q 367 878 533 900 q 217 849 283 861 q 100 822 150 836 q 53 808 69 814 q 22 794 36 803 q -6 778 -6 786 q -33 767 -11 767 q -39 789 -47 781 q 6 831 -31 814 q 89 856 42 847 q 213 885 144 872 q 361 911 281 897 q 733 954 528 936 q 1156 989 939 972 q 1197 992 1178 989 q 1239 1000 1217 994 q 1453 1175 1342 1081 q 1672 1360 1564 1269 q 1879 1529 1781 1450 q 2050 1661 1978 1608 q 2228 1781 2122 1717 q 2433 1900 2333 1844 q 2186 1869 2308 1886 q 1956 1833 2064 1853 q 1758 1792 1847 1814 q 1611 1744 1669 1769 q 1592 1738 1597 1739 q 1578 1744 1586 1736 q 1576 1760 1569 1753 q 1589 1772 1583 1767 q 1756 1824 1653 1800 q 1983 1868 1858 1847 q 2249 1908 2108 1889 q 2528 1944 2389 1928 q 2617 1982 2575 1967 q 2689 2006 2658 1997 q 2740 1999 2736 2011 q 2689 1972 2744 1986 l 2633 1956 q 2807 1969 2708 1964 q 3011 1979 2906 1975 q 3224 1986 3117 1983 q 3422 1990 3331 1989 q 3581 1993 3514 1992 q 3678 1994 3647 1994 q 3692 1975 3692 1994 q 3667 1956 3692 1956 q 3506 1954 3619 1956 q 3254 1949 3392 1953 q 2983 1939 3117 1944 q 2767 1928 2850 1933 q 2671 1810 2736 1883 q 2533 1657 2606 1736 q 2393 1506 2461 1578 q 2289 1389 2325 1433 q 2168 1250 2242 1331 q 2011 1072 2094 1169 q 2133 1088 2064 1078 q 2269 1107 2203 1097 q 2390 1126 2336 1117 q 2467 1144 2444 1136 l 2550 1156 q 2575 1165 2567 1164 q 2589 1167 2583 1167 q 2597 1176 2589 1175 q 2611 1172 2606 1178 q 2611 1144 2625 1158 q 2561 1122 2597 1131 l 2478 1106 q 2389 1090 2453 1100 q 2249 1069 2325 1081 q 2096 1049 2172 1058 q 1972 1033 2019 1039 q 1800 838 1886 936 q 1643 647 1714 739 q 1521 479 1572 556 q 1456 350 1469 403 q 1826 421 1644 389 q 2133 467 2008 453 q 2503 503 2342 497 q 2761 483 2664 508 q 2772 476 2767 478 q 2772 461 2778 475 q 2744 456 2761 439 q 2511 468 2672 472 q 2144 433 2350 464 q 1828 385 2014 417 q 1450 311 1642 353 q 1453 306 1450 306 q 1456 300 1456 306 l 1411 300 q 1181 250 1289 275 q 983 200 1072 225 q 961 217 961 211 m 2533 1906 q 2417 1844 2478 1878 q 2294 1775 2356 1811 q 2175 1703 2233 1739 q 2072 1633 2117 1667 q 1908 1507 2000 1581 q 1715 1349 1817 1433 q 1508 1175 1614 1264 q 1306 1006 1403 1086 l 1944 1067 q 2188 1339 2064 1203 q 2415 1590 2311 1475 q 2596 1793 2519 1706 q 2700 1922 2672 1881 q 2618 1918 2661 1922 q 2533 1906 2575 1914 z "},"Á":{"ha":2322,"x_min":-261,"x_max":2825,"o":"m -33 767 q -39 789 -47 781 q 6 831 -31 814 q 89 856 42 847 q 213 885 144 872 q 361 911 281 897 q 733 954 528 936 q 1156 989 939 972 q 1197 992 1178 989 q 1239 1000 1217 994 q 1453 1175 1342 1081 q 1672 1360 1564 1269 q 1879 1529 1781 1450 q 2050 1661 1978 1608 q 2219 1781 2128 1719 q 2396 1888 2311 1842 q 2549 1953 2481 1933 q 2650 1950 2617 1972 q 2674 1903 2675 1933 q 2650 1831 2672 1872 q 2590 1740 2628 1789 q 2511 1640 2553 1692 q 2425 1540 2469 1589 q 2344 1450 2381 1492 q 2194 1276 2286 1375 q 2011 1072 2103 1178 q 2129 1088 2078 1078 q 2222 1106 2181 1097 l 2306 1122 q 2331 1131 2322 1128 q 2344 1133 2339 1133 q 2353 1143 2344 1142 q 2367 1139 2361 1144 q 2367 1111 2375 1119 q 2346 1097 2358 1103 q 2317 1083 2333 1092 l 2233 1072 q 2118 1050 2183 1058 q 1978 1033 2053 1042 q 1860 890 1914 961 q 1765 757 1806 819 q 1706 644 1725 694 q 1694 561 1686 594 q 1758 499 1706 511 q 1886 500 1811 486 q 2049 544 1961 514 q 2221 613 2136 575 q 2375 686 2306 650 q 2483 744 2444 722 q 2506 739 2494 750 q 2500 717 2511 728 q 2382 649 2458 689 q 2214 569 2306 608 q 2026 499 2122 531 q 1850 458 1931 467 q 1714 469 1769 450 q 1650 556 1658 489 q 1664 642 1644 592 q 1721 754 1683 692 q 1811 886 1758 817 q 1928 1028 1864 956 q 1613 997 1786 1011 q 1256 967 1439 983 l 1167 894 q 892 681 1031 786 q 618 483 753 575 q 356 322 483 392 q 115 215 228 253 q -92 179 3 178 q -256 233 -186 181 q -258 247 -256 239 q -256 256 -261 256 q -242 267 -250 264 q -228 261 -233 269 q 7 222 -139 192 q 333 351 153 253 q 722 600 514 450 q 1144 922 931 750 q 1163 939 1153 931 q 1189 956 1172 947 l 1161 956 q 739 917 944 933 q 367 878 533 900 q 217 849 283 861 q 100 822 150 836 q 53 808 69 814 q 22 794 36 803 q -6 778 -6 786 q -33 767 -11 767 m 2633 1922 q 2558 1924 2617 1942 q 2421 1861 2500 1906 q 2250 1756 2342 1817 q 2072 1633 2158 1694 q 1908 1507 2000 1581 q 1715 1349 1817 1433 q 1508 1175 1614 1264 q 1306 1006 1403 1086 l 1950 1067 l 1961 1067 q 2206 1343 2078 1203 q 2435 1601 2333 1483 q 2594 1806 2536 1719 q 2633 1922 2653 1892 m 2661 2100 q 2657 2114 2656 2106 q 2667 2122 2658 2122 q 2694 2151 2678 2131 q 2729 2197 2711 2172 q 2764 2244 2747 2222 q 2789 2278 2781 2267 q 2800 2293 2789 2286 q 2817 2294 2811 2300 q 2824 2279 2825 2289 q 2817 2261 2822 2269 q 2792 2222 2808 2247 q 2757 2171 2775 2197 q 2719 2122 2739 2144 q 2689 2094 2700 2100 q 2661 2100 2669 2083 z "},"Ă":{"ha":2322,"x_min":-261,"x_max":3025,"o":"m -33 767 q -39 789 -47 781 q 6 831 -31 814 q 89 856 42 847 q 213 885 144 872 q 361 911 281 897 q 733 954 528 936 q 1156 989 939 972 q 1197 992 1178 989 q 1239 1000 1217 994 q 1453 1175 1342 1081 q 1672 1360 1564 1269 q 1879 1529 1781 1450 q 2050 1661 1978 1608 q 2219 1781 2128 1719 q 2396 1888 2311 1842 q 2549 1953 2481 1933 q 2650 1950 2617 1972 q 2674 1903 2675 1933 q 2650 1831 2672 1872 q 2590 1740 2628 1789 q 2511 1640 2553 1692 q 2425 1540 2469 1589 q 2344 1450 2381 1492 q 2194 1276 2286 1375 q 2011 1072 2103 1178 q 2129 1088 2078 1078 q 2222 1106 2181 1097 l 2306 1122 q 2331 1131 2322 1128 q 2344 1133 2339 1133 q 2353 1143 2344 1142 q 2367 1139 2361 1144 q 2367 1111 2375 1119 q 2346 1097 2358 1103 q 2317 1083 2333 1092 l 2233 1072 q 2118 1050 2183 1058 q 1978 1033 2053 1042 q 1860 890 1914 961 q 1765 757 1806 819 q 1706 644 1725 694 q 1694 561 1686 594 q 1758 499 1706 511 q 1886 500 1811 486 q 2049 544 1961 514 q 2221 613 2136 575 q 2375 686 2306 650 q 2483 744 2444 722 q 2506 739 2494 750 q 2500 717 2511 728 q 2382 649 2458 689 q 2214 569 2306 608 q 2026 499 2122 531 q 1850 458 1931 467 q 1714 469 1769 450 q 1650 556 1658 489 q 1664 642 1644 592 q 1721 754 1683 692 q 1811 886 1758 817 q 1928 1028 1864 956 q 1613 997 1786 1011 q 1256 967 1439 983 l 1167 894 q 892 681 1031 786 q 618 483 753 575 q 356 322 483 392 q 115 215 228 253 q -92 179 3 178 q -256 233 -186 181 q -258 247 -256 239 q -256 256 -261 256 q -242 267 -250 264 q -228 261 -233 269 q 7 222 -139 192 q 333 351 153 253 q 722 600 514 450 q 1144 922 931 750 q 1163 939 1153 931 q 1189 956 1172 947 l 1161 956 q 739 917 944 933 q 367 878 533 900 q 217 849 283 861 q 100 822 150 836 q 53 808 69 814 q 22 794 36 803 q -6 778 -6 786 q -33 767 -11 767 m 2633 1922 q 2558 1924 2617 1942 q 2421 1861 2500 1906 q 2250 1756 2342 1817 q 2072 1633 2158 1694 q 1908 1507 2000 1581 q 1715 1349 1817 1433 q 1508 1175 1614 1264 q 1306 1006 1403 1086 l 1950 1067 l 1961 1067 q 2206 1343 2078 1203 q 2435 1601 2333 1483 q 2594 1806 2536 1719 q 2633 1922 2653 1892 m 3008 2211 q 2811 2104 2911 2119 q 2647 2122 2711 2089 q 2550 2239 2583 2158 q 2547 2419 2517 2319 q 2558 2436 2550 2431 q 2575 2442 2567 2442 q 2588 2433 2583 2442 q 2583 2408 2592 2425 q 2583 2269 2567 2342 q 2656 2161 2600 2197 q 2733 2136 2689 2136 q 2824 2151 2778 2136 q 2911 2190 2869 2167 q 2983 2239 2953 2214 q 3007 2242 2989 2247 q 3008 2211 3025 2236 z "},"Â":{"ha":2322,"x_min":-261,"x_max":2858,"o":"m -33 767 q -39 789 -47 781 q 6 831 -31 814 q 89 856 42 847 q 213 885 144 872 q 361 911 281 897 q 733 954 528 936 q 1156 989 939 972 q 1197 992 1178 989 q 1239 1000 1217 994 q 1453 1175 1342 1081 q 1672 1360 1564 1269 q 1879 1529 1781 1450 q 2050 1661 1978 1608 q 2219 1781 2128 1719 q 2396 1888 2311 1842 q 2549 1953 2481 1933 q 2650 1950 2617 1972 q 2674 1903 2675 1933 q 2650 1831 2672 1872 q 2590 1740 2628 1789 q 2511 1640 2553 1692 q 2425 1540 2469 1589 q 2344 1450 2381 1492 q 2194 1276 2286 1375 q 2011 1072 2103 1178 q 2129 1088 2078 1078 q 2222 1106 2181 1097 l 2306 1122 q 2331 1131 2322 1128 q 2344 1133 2339 1133 q 2353 1143 2344 1142 q 2367 1139 2361 1144 q 2367 1111 2375 1119 q 2346 1097 2358 1103 q 2317 1083 2333 1092 l 2233 1072 q 2118 1050 2183 1058 q 1978 1033 2053 1042 q 1860 890 1914 961 q 1765 757 1806 819 q 1706 644 1725 694 q 1694 561 1686 594 q 1758 499 1706 511 q 1886 500 1811 486 q 2049 544 1961 514 q 2221 613 2136 575 q 2375 686 2306 650 q 2483 744 2444 722 q 2506 739 2494 750 q 2500 717 2511 728 q 2382 649 2458 689 q 2214 569 2306 608 q 2026 499 2122 531 q 1850 458 1931 467 q 1714 469 1769 450 q 1650 556 1658 489 q 1664 642 1644 592 q 1721 754 1683 692 q 1811 886 1758 817 q 1928 1028 1864 956 q 1613 997 1786 1011 q 1256 967 1439 983 l 1167 894 q 892 681 1031 786 q 618 483 753 575 q 356 322 483 392 q 115 215 228 253 q -92 179 3 178 q -256 233 -186 181 q -258 247 -256 239 q -256 256 -261 256 q -242 267 -250 264 q -228 261 -233 269 q 7 222 -139 192 q 333 351 153 253 q 722 600 514 450 q 1144 922 931 750 q 1163 939 1153 931 q 1189 956 1172 947 l 1161 956 q 739 917 944 933 q 367 878 533 900 q 217 849 283 861 q 100 822 150 836 q 53 808 69 814 q 22 794 36 803 q -6 778 -6 786 q -33 767 -11 767 m 2633 1922 q 2558 1924 2617 1942 q 2421 1861 2500 1906 q 2250 1756 2342 1817 q 2072 1633 2158 1694 q 1908 1507 2000 1581 q 1715 1349 1817 1433 q 1508 1175 1614 1264 q 1306 1006 1403 1086 l 1950 1067 l 1961 1067 q 2206 1343 2078 1203 q 2435 1601 2333 1483 q 2594 1806 2536 1719 q 2633 1922 2653 1892 m 2850 2161 q 2850 2139 2858 2147 q 2833 2136 2836 2133 q 2822 2144 2831 2139 q 2786 2215 2797 2178 q 2761 2300 2775 2253 q 2674 2238 2731 2278 q 2500 2156 2617 2197 q 2478 2167 2478 2156 q 2489 2189 2469 2189 q 2600 2236 2556 2214 q 2675 2278 2644 2258 q 2726 2313 2706 2297 q 2767 2339 2747 2328 q 2785 2329 2781 2339 q 2794 2306 2789 2319 q 2803 2268 2800 2281 q 2810 2243 2806 2256 q 2822 2214 2814 2231 q 2850 2161 2831 2197 z "},"Ä":{"ha":2322,"x_min":-261,"x_max":2792,"o":"m -33 767 q -39 789 -47 781 q 6 831 -31 814 q 89 856 42 847 q 213 885 144 872 q 361 911 281 897 q 733 954 528 936 q 1156 989 939 972 q 1197 992 1178 989 q 1239 1000 1217 994 q 1453 1175 1342 1081 q 1672 1360 1564 1269 q 1879 1529 1781 1450 q 2050 1661 1978 1608 q 2219 1781 2128 1719 q 2396 1888 2311 1842 q 2549 1953 2481 1933 q 2650 1950 2617 1972 q 2674 1903 2675 1933 q 2650 1831 2672 1872 q 2590 1740 2628 1789 q 2511 1640 2553 1692 q 2425 1540 2469 1589 q 2344 1450 2381 1492 q 2194 1276 2286 1375 q 2011 1072 2103 1178 q 2129 1088 2078 1078 q 2222 1106 2181 1097 l 2306 1122 q 2331 1131 2322 1128 q 2344 1133 2339 1133 q 2353 1143 2344 1142 q 2367 1139 2361 1144 q 2367 1111 2375 1119 q 2346 1097 2358 1103 q 2317 1083 2333 1092 l 2233 1072 q 2118 1050 2183 1058 q 1978 1033 2053 1042 q 1860 890 1914 961 q 1765 757 1806 819 q 1706 644 1725 694 q 1694 561 1686 594 q 1758 499 1706 511 q 1886 500 1811 486 q 2049 544 1961 514 q 2221 613 2136 575 q 2375 686 2306 650 q 2483 744 2444 722 q 2506 739 2494 750 q 2500 717 2511 728 q 2382 649 2458 689 q 2214 569 2306 608 q 2026 499 2122 531 q 1850 458 1931 467 q 1714 469 1769 450 q 1650 556 1658 489 q 1664 642 1644 592 q 1721 754 1683 692 q 1811 886 1758 817 q 1928 1028 1864 956 q 1613 997 1786 1011 q 1256 967 1439 983 l 1167 894 q 892 681 1031 786 q 618 483 753 575 q 356 322 483 392 q 115 215 228 253 q -92 179 3 178 q -256 233 -186 181 q -258 247 -256 239 q -256 256 -261 256 q -242 267 -250 264 q -228 261 -233 269 q 7 222 -139 192 q 333 351 153 253 q 722 600 514 450 q 1144 922 931 750 q 1163 939 1153 931 q 1189 956 1172 947 l 1161 956 q 739 917 944 933 q 367 878 533 900 q 217 849 283 861 q 100 822 150 836 q 53 808 69 814 q 22 794 36 803 q -6 778 -6 786 q -33 767 -11 767 m 2633 1922 q 2558 1924 2617 1942 q 2421 1861 2500 1906 q 2250 1756 2342 1817 q 2072 1633 2158 1694 q 1908 1507 2000 1581 q 1715 1349 1817 1433 q 1508 1175 1614 1264 q 1306 1006 1403 1086 l 1950 1067 l 1961 1067 q 2206 1343 2078 1203 q 2435 1601 2333 1483 q 2594 1806 2536 1719 q 2633 1922 2653 1892 m 2539 2083 q 2600 2139 2547 2147 q 2608 2133 2606 2136 q 2611 2122 2614 2128 q 2599 2108 2606 2114 q 2578 2089 2592 2103 q 2553 2068 2572 2067 q 2539 2083 2533 2069 m 2717 2083 q 2778 2139 2725 2147 q 2786 2133 2783 2136 q 2789 2122 2792 2128 q 2776 2108 2783 2114 q 2756 2089 2769 2103 q 2731 2068 2750 2067 q 2717 2083 2711 2069 z "},"À":{"ha":2322,"x_min":-261,"x_max":2675,"o":"m -33 767 q -39 789 -47 781 q 6 831 -31 814 q 89 856 42 847 q 213 885 144 872 q 361 911 281 897 q 733 954 528 936 q 1156 989 939 972 q 1197 992 1178 989 q 1239 1000 1217 994 q 1453 1175 1342 1081 q 1672 1360 1564 1269 q 1879 1529 1781 1450 q 2050 1661 1978 1608 q 2219 1781 2128 1719 q 2396 1888 2311 1842 q 2549 1953 2481 1933 q 2650 1950 2617 1972 q 2674 1903 2675 1933 q 2650 1831 2672 1872 q 2590 1740 2628 1789 q 2511 1640 2553 1692 q 2425 1540 2469 1589 q 2344 1450 2381 1492 q 2194 1276 2286 1375 q 2011 1072 2103 1178 q 2129 1088 2078 1078 q 2222 1106 2181 1097 l 2306 1122 q 2331 1131 2322 1128 q 2344 1133 2339 1133 q 2353 1143 2344 1142 q 2367 1139 2361 1144 q 2367 1111 2375 1119 q 2346 1097 2358 1103 q 2317 1083 2333 1092 l 2233 1072 q 2118 1050 2183 1058 q 1978 1033 2053 1042 q 1860 890 1914 961 q 1765 757 1806 819 q 1706 644 1725 694 q 1694 561 1686 594 q 1758 499 1706 511 q 1886 500 1811 486 q 2049 544 1961 514 q 2221 613 2136 575 q 2375 686 2306 650 q 2483 744 2444 722 q 2506 739 2494 750 q 2500 717 2511 728 q 2382 649 2458 689 q 2214 569 2306 608 q 2026 499 2122 531 q 1850 458 1931 467 q 1714 469 1769 450 q 1650 556 1658 489 q 1664 642 1644 592 q 1721 754 1683 692 q 1811 886 1758 817 q 1928 1028 1864 956 q 1613 997 1786 1011 q 1256 967 1439 983 l 1167 894 q 892 681 1031 786 q 618 483 753 575 q 356 322 483 392 q 115 215 228 253 q -92 179 3 178 q -256 233 -186 181 q -258 247 -256 239 q -256 256 -261 256 q -242 267 -250 264 q -228 261 -233 269 q 7 222 -139 192 q 333 351 153 253 q 722 600 514 450 q 1144 922 931 750 q 1163 939 1153 931 q 1189 956 1172 947 l 1161 956 q 739 917 944 933 q 367 878 533 900 q 217 849 283 861 q 100 822 150 836 q 53 808 69 814 q 22 794 36 803 q -6 778 -6 786 q -33 767 -11 767 m 2633 1922 q 2558 1924 2617 1942 q 2421 1861 2500 1906 q 2250 1756 2342 1817 q 2072 1633 2158 1694 q 1908 1507 2000 1581 q 1715 1349 1817 1433 q 1508 1175 1614 1264 q 1306 1006 1403 1086 l 1950 1067 l 1961 1067 q 2206 1343 2078 1203 q 2435 1601 2333 1483 q 2594 1806 2536 1719 q 2633 1922 2653 1892 m 2656 2056 q 2647 2046 2656 2047 q 2633 2050 2639 2044 q 2601 2078 2619 2056 q 2563 2126 2583 2100 q 2525 2178 2542 2153 q 2500 2217 2508 2203 q 2497 2235 2500 2225 q 2500 2250 2494 2244 q 2518 2249 2508 2256 q 2533 2233 2528 2242 q 2556 2200 2539 2222 q 2590 2153 2572 2178 q 2626 2107 2608 2128 q 2656 2078 2644 2086 q 2661 2069 2661 2078 q 2656 2056 2661 2061 z "},"Ą":{"ha":2322,"x_min":-261,"x_max":2675,"o":"m 1739 442 q 1664 386 1694 417 q 1625 326 1633 356 q 1631 272 1617 297 q 1686 231 1644 247 q 1883 203 1753 208 q 1926 183 1931 200 q 1892 164 1922 167 q 1689 185 1767 158 q 1586 256 1611 211 q 1593 357 1561 300 q 1717 469 1625 414 q 1672 503 1689 483 q 1650 556 1656 522 q 1664 642 1644 592 q 1721 754 1683 692 q 1811 886 1758 817 q 1928 1028 1864 956 q 1613 997 1786 1011 q 1256 967 1439 983 l 1167 894 q 892 681 1031 786 q 618 483 753 575 q 356 322 483 392 q 115 215 228 253 q -92 179 3 178 q -256 233 -186 181 q -258 247 -256 239 q -256 256 -261 256 q -242 267 -250 264 q -228 261 -233 269 q 7 222 -139 192 q 333 351 153 253 q 722 600 514 450 q 1144 922 931 750 q 1163 939 1153 931 q 1189 956 1172 947 l 1161 956 q 739 917 944 933 q 367 878 533 900 q 217 849 283 861 q 100 822 150 836 q 53 808 69 814 q 22 794 36 803 q -6 778 -6 786 q -33 767 -11 767 q -39 789 -47 781 q 6 831 -31 814 q 89 856 42 847 q 213 885 144 872 q 361 911 281 897 q 733 954 528 936 q 1156 989 939 972 q 1197 992 1178 989 q 1239 1000 1217 994 q 1453 1175 1342 1081 q 1672 1360 1564 1269 q 1879 1529 1781 1450 q 2050 1661 1978 1608 q 2219 1781 2128 1719 q 2396 1888 2311 1842 q 2549 1953 2481 1933 q 2650 1950 2617 1972 q 2674 1903 2675 1933 q 2650 1831 2672 1872 q 2590 1740 2628 1789 q 2511 1640 2553 1692 q 2425 1540 2469 1589 q 2344 1450 2381 1492 q 2194 1276 2286 1375 q 2011 1072 2103 1178 q 2129 1088 2078 1078 q 2222 1106 2181 1097 l 2306 1122 q 2331 1131 2322 1128 q 2344 1133 2339 1133 q 2353 1143 2344 1142 q 2367 1139 2361 1144 q 2367 1111 2375 1119 q 2346 1097 2358 1103 q 2317 1083 2333 1092 l 2233 1072 q 2118 1050 2183 1058 q 1978 1033 2053 1042 q 1860 890 1914 961 q 1765 757 1806 819 q 1706 644 1725 694 q 1694 561 1686 594 q 1758 499 1706 511 q 1886 500 1811 486 q 2049 544 1961 514 q 2221 613 2136 575 q 2375 686 2306 650 q 2483 744 2444 722 q 2506 739 2494 750 q 2500 717 2511 728 q 2357 638 2450 686 q 2156 546 2264 589 q 1940 475 2047 503 q 1758 458 1833 447 q 1739 442 1753 450 m 2633 1922 q 2558 1924 2617 1942 q 2421 1861 2500 1906 q 2250 1756 2342 1817 q 2072 1633 2158 1694 q 1908 1507 2000 1581 q 1715 1349 1817 1433 q 1508 1175 1614 1264 q 1306 1006 1403 1086 l 1950 1067 l 1961 1067 q 2206 1343 2078 1203 q 2435 1601 2333 1483 q 2594 1806 2536 1719 q 2633 1922 2653 1892 z "},"Å":{"ha":2322,"x_min":-261,"x_max":2919,"o":"m -33 767 q -39 789 -47 781 q 6 831 -31 814 q 89 856 42 847 q 213 885 144 872 q 361 911 281 897 q 733 954 528 936 q 1156 989 939 972 q 1197 992 1178 989 q 1239 1000 1217 994 q 1453 1175 1342 1081 q 1672 1360 1564 1269 q 1879 1529 1781 1450 q 2050 1661 1978 1608 q 2219 1781 2128 1719 q 2396 1888 2311 1842 q 2549 1953 2481 1933 q 2650 1950 2617 1972 q 2674 1903 2675 1933 q 2650 1831 2672 1872 q 2590 1740 2628 1789 q 2511 1640 2553 1692 q 2425 1540 2469 1589 q 2344 1450 2381 1492 q 2194 1276 2286 1375 q 2011 1072 2103 1178 q 2129 1088 2078 1078 q 2222 1106 2181 1097 l 2306 1122 q 2331 1131 2322 1128 q 2344 1133 2339 1133 q 2353 1143 2344 1142 q 2367 1139 2361 1144 q 2367 1111 2375 1119 q 2346 1097 2358 1103 q 2317 1083 2333 1092 l 2233 1072 q 2118 1050 2183 1058 q 1978 1033 2053 1042 q 1860 890 1914 961 q 1765 757 1806 819 q 1706 644 1725 694 q 1694 561 1686 594 q 1758 499 1706 511 q 1886 500 1811 486 q 2049 544 1961 514 q 2221 613 2136 575 q 2375 686 2306 650 q 2483 744 2444 722 q 2506 739 2494 750 q 2500 717 2511 728 q 2382 649 2458 689 q 2214 569 2306 608 q 2026 499 2122 531 q 1850 458 1931 467 q 1714 469 1769 450 q 1650 556 1658 489 q 1664 642 1644 592 q 1721 754 1683 692 q 1811 886 1758 817 q 1928 1028 1864 956 q 1613 997 1786 1011 q 1256 967 1439 983 l 1167 894 q 892 681 1031 786 q 618 483 753 575 q 356 322 483 392 q 115 215 228 253 q -92 179 3 178 q -256 233 -186 181 q -258 247 -256 239 q -256 256 -261 256 q -242 267 -250 264 q -228 261 -233 269 q 7 222 -139 192 q 333 351 153 253 q 722 600 514 450 q 1144 922 931 750 q 1163 939 1153 931 q 1189 956 1172 947 l 1161 956 q 739 917 944 933 q 367 878 533 900 q 217 849 283 861 q 100 822 150 836 q 53 808 69 814 q 22 794 36 803 q -6 778 -6 786 q -33 767 -11 767 m 2633 1922 q 2558 1924 2617 1942 q 2421 1861 2500 1906 q 2250 1756 2342 1817 q 2072 1633 2158 1694 q 1908 1507 2000 1581 q 1715 1349 1817 1433 q 1508 1175 1614 1264 q 1306 1006 1403 1086 l 1950 1067 l 1961 1067 q 2206 1343 2078 1203 q 2435 1601 2333 1483 q 2594 1806 2536 1719 q 2633 1922 2653 1892 m 2522 2183 q 2529 2208 2514 2206 q 2544 2189 2544 2211 q 2578 2136 2544 2164 q 2683 2100 2611 2108 q 2793 2099 2744 2089 q 2863 2128 2842 2108 q 2867 2171 2883 2147 q 2783 2211 2850 2194 q 2661 2215 2719 2228 q 2578 2161 2603 2203 q 2563 2161 2578 2156 q 2556 2183 2547 2167 q 2596 2225 2567 2211 q 2660 2243 2625 2239 q 2732 2244 2694 2247 q 2800 2233 2769 2242 q 2900 2176 2881 2208 q 2894 2119 2919 2144 q 2810 2082 2869 2094 q 2672 2083 2750 2069 q 2568 2118 2614 2092 q 2522 2183 2522 2144 z "},"Ã":{"ha":2322,"x_min":-261,"x_max":2914,"o":"m -33 767 q -39 789 -47 781 q 6 831 -31 814 q 89 856 42 847 q 213 885 144 872 q 361 911 281 897 q 733 954 528 936 q 1156 989 939 972 q 1197 992 1178 989 q 1239 1000 1217 994 q 1453 1175 1342 1081 q 1672 1360 1564 1269 q 1879 1529 1781 1450 q 2050 1661 1978 1608 q 2219 1781 2128 1719 q 2396 1888 2311 1842 q 2549 1953 2481 1933 q 2650 1950 2617 1972 q 2674 1903 2675 1933 q 2650 1831 2672 1872 q 2590 1740 2628 1789 q 2511 1640 2553 1692 q 2425 1540 2469 1589 q 2344 1450 2381 1492 q 2194 1276 2286 1375 q 2011 1072 2103 1178 q 2129 1088 2078 1078 q 2222 1106 2181 1097 l 2306 1122 q 2331 1131 2322 1128 q 2344 1133 2339 1133 q 2353 1143 2344 1142 q 2367 1139 2361 1144 q 2367 1111 2375 1119 q 2346 1097 2358 1103 q 2317 1083 2333 1092 l 2233 1072 q 2118 1050 2183 1058 q 1978 1033 2053 1042 q 1860 890 1914 961 q 1765 757 1806 819 q 1706 644 1725 694 q 1694 561 1686 594 q 1758 499 1706 511 q 1886 500 1811 486 q 2049 544 1961 514 q 2221 613 2136 575 q 2375 686 2306 650 q 2483 744 2444 722 q 2506 739 2494 750 q 2500 717 2511 728 q 2382 649 2458 689 q 2214 569 2306 608 q 2026 499 2122 531 q 1850 458 1931 467 q 1714 469 1769 450 q 1650 556 1658 489 q 1664 642 1644 592 q 1721 754 1683 692 q 1811 886 1758 817 q 1928 1028 1864 956 q 1613 997 1786 1011 q 1256 967 1439 983 l 1167 894 q 892 681 1031 786 q 618 483 753 575 q 356 322 483 392 q 115 215 228 253 q -92 179 3 178 q -256 233 -186 181 q -258 247 -256 239 q -256 256 -261 256 q -242 267 -250 264 q -228 261 -233 269 q 7 222 -139 192 q 333 351 153 253 q 722 600 514 450 q 1144 922 931 750 q 1163 939 1153 931 q 1189 956 1172 947 l 1161 956 q 739 917 944 933 q 367 878 533 900 q 217 849 283 861 q 100 822 150 836 q 53 808 69 814 q 22 794 36 803 q -6 778 -6 786 q -33 767 -11 767 m 2633 1922 q 2558 1924 2617 1942 q 2421 1861 2500 1906 q 2250 1756 2342 1817 q 2072 1633 2158 1694 q 1908 1507 2000 1581 q 1715 1349 1817 1433 q 1508 1175 1614 1264 q 1306 1006 1403 1086 l 1950 1067 l 1961 1067 q 2206 1343 2078 1203 q 2435 1601 2333 1483 q 2594 1806 2536 1719 q 2633 1922 2653 1892 m 2456 2167 q 2443 2181 2447 2172 q 2444 2194 2439 2189 q 2493 2250 2467 2233 q 2550 2272 2519 2267 q 2617 2271 2583 2278 q 2683 2256 2650 2264 q 2746 2232 2717 2242 q 2806 2217 2775 2222 q 2878 2233 2853 2208 q 2906 2239 2894 2250 q 2914 2225 2914 2233 q 2906 2211 2914 2217 q 2854 2182 2883 2186 q 2794 2183 2825 2178 q 2736 2199 2769 2189 q 2672 2217 2703 2208 q 2556 2233 2611 2242 q 2478 2178 2508 2233 q 2467 2168 2472 2169 q 2456 2167 2461 2167 z "},"B":{"ha":1761,"x_min":-272,"x_max":2117,"o":"m 39 33 q 31 42 33 33 q 33 56 28 50 l 33 67 q -71 57 -14 61 q -174 57 -128 53 q -246 75 -219 61 q -256 122 -272 89 q -193 169 -244 147 q -78 208 -142 192 q 49 238 -14 225 q 144 256 111 250 q 347 546 242 408 q 554 801 453 683 q 749 1017 656 919 q 917 1189 842 1114 l 922 1200 l 883 1183 q 601 1092 722 1106 q 410 1107 481 1078 q 319 1201 339 1136 q 343 1351 300 1267 q 493 1532 386 1436 q 783 1717 600 1628 q 1071 1817 914 1781 q 1383 1861 1228 1853 q 1681 1849 1539 1869 q 1924 1776 1822 1828 q 2071 1642 2025 1725 q 2083 1444 2117 1558 q 1982 1267 2061 1367 q 1765 1065 1903 1167 q 1435 872 1628 964 q 989 722 1242 781 q 1047 664 1033 700 q 1053 583 1061 628 q 1015 493 1044 539 q 944 411 986 447 q 1200 476 1069 442 q 1456 549 1331 511 q 1693 631 1581 586 q 1894 728 1806 675 q 1917 722 1908 742 q 1921 708 1922 717 q 1911 700 1919 700 q 1474 518 1731 592 q 911 361 1217 444 l 900 361 q 707 256 808 300 q 501 178 606 211 q 292 121 397 144 q 83 78 186 97 l 67 39 q 54 31 61 33 q 39 33 47 28 m 878 394 q 974 497 936 439 q 1017 604 1011 556 q 990 682 1022 653 q 878 700 958 711 l 867 700 q 850 717 850 700 q 851 731 844 722 q 867 739 858 739 q 1065 776 953 747 q 1297 853 1178 806 q 1535 963 1417 900 q 1754 1101 1653 1025 q 1932 1267 1856 1178 q 2044 1456 2008 1356 q 2039 1629 2081 1556 q 1901 1749 1997 1703 q 1671 1813 1806 1794 q 1388 1822 1536 1831 q 1088 1781 1239 1814 q 811 1689 936 1747 q 550 1529 653 1614 q 400 1368 447 1444 q 358 1229 353 1292 q 424 1139 364 1167 q 596 1125 483 1111 q 872 1211 708 1139 q 922 1238 897 1228 q 972 1261 947 1247 l 1006 1278 l 1011 1283 q 1144 1407 1083 1350 q 1261 1506 1206 1464 q 1381 1592 1328 1561 q 1456 1622 1433 1622 q 1478 1611 1467 1622 q 1483 1606 1483 1611 q 1478 1594 1483 1600 q 1343 1446 1456 1531 q 1083 1278 1231 1361 l 1033 1256 l 944 1167 q 779 996 872 1092 q 586 786 686 900 q 383 540 486 672 q 189 261 281 408 q 525 326 372 294 q 828 383 678 358 l 878 394 m 806 344 q 453 278 622 311 q 167 222 283 244 l 150 194 l 106 117 q 469 208 289 156 q 806 344 650 261 m 56 106 l 117 211 q 25 196 81 206 q -83 171 -31 186 q -175 139 -136 156 q -217 106 -214 122 q -147 86 -222 89 q 50 106 -72 83 l 56 106 m 1283 1478 q 1247 1447 1267 1461 q 1211 1417 1228 1433 l 1139 1350 l 1167 1367 q 1319 1474 1250 1422 q 1422 1567 1389 1525 q 1364 1535 1397 1558 q 1283 1478 1331 1511 z "},"":{"ha":1367,"x_min":-400,"x_max":1522,"o":"m -389 -6 q -397 8 -394 3 q -400 22 -400 14 q -361 64 -392 44 q -289 100 -331 83 q -122 342 -217 217 q 72 588 -28 467 q 272 818 172 708 q 461 1011 372 928 l 550 1089 l 522 1078 q 331 1017 422 1044 q 167 983 239 989 q 40 993 92 975 q -11 1078 -11 1011 q 49 1200 -6 1136 q 189 1324 103 1264 q 386 1435 275 1383 q 615 1521 497 1486 q 853 1568 733 1556 q 1078 1567 972 1581 q 1268 1518 1183 1553 q 1407 1433 1353 1483 q 1481 1318 1461 1383 q 1472 1183 1500 1253 q 1224 929 1425 1053 q 633 722 1022 806 l 567 706 l 589 700 q 656 617 639 675 q 635 501 669 561 q 533 378 600 442 l 511 361 l 633 400 q 1094 557 869 475 q 1494 728 1319 639 q 1508 731 1500 733 q 1522 722 1517 728 q 1511 700 1522 700 q 1285 594 1406 644 q 1032 496 1164 544 q 764 403 900 447 q 494 317 628 358 l 433 300 l 378 256 l 200 144 q 18 57 111 97 q -157 -8 -75 17 q -301 -35 -239 -33 q -389 -6 -364 -36 m -167 144 q 63 218 -67 178 q 333 306 192 258 l 411 328 l 444 350 q 583 489 536 422 q 617 611 631 556 q 544 676 603 661 q 372 678 486 692 l 361 678 q 344 689 344 669 q 356 711 339 703 q 408 718 364 711 q 517 739 453 725 q 903 832 739 778 q 1178 946 1067 886 q 1350 1069 1289 1006 q 1433 1194 1411 1133 q 1443 1306 1456 1250 q 1385 1407 1431 1361 q 1260 1486 1339 1453 q 1072 1533 1181 1519 q 854 1533 969 1547 q 624 1485 739 1519 q 404 1400 508 1450 q 218 1294 300 1350 q 85 1181 136 1239 q 28 1072 33 1122 q 60 1026 28 1042 q 167 1017 92 1011 q 322 1051 233 1025 q 511 1117 411 1078 q 561 1133 536 1125 q 611 1156 586 1142 l 644 1167 l 656 1172 q 789 1279 728 1231 q 906 1367 850 1328 q 1025 1432 972 1408 q 1100 1456 1078 1456 l 1106 1456 q 1117 1450 1111 1456 q 1122 1439 1122 1444 q 1122 1428 1122 1433 q 1072 1368 1108 1400 q 982 1303 1036 1336 q 861 1233 928 1269 q 722 1161 794 1197 l 667 1139 l 583 1067 q 383 878 492 986 q 167 644 275 769 q -46 385 58 519 q -233 122 -150 250 l -167 144 m -172 33 q -6 94 -97 56 q 183 183 86 133 l 278 233 l 317 256 l 206 228 l -156 117 l -267 72 l -278 56 q -300 44 -289 33 q -303 50 -300 50 q -306 56 -306 50 q -361 17 -347 31 l -361 11 q -172 33 -322 -17 m 1056 1406 l 1044 1400 q 922 1333 1000 1386 l 856 1278 l 800 1239 l 806 1239 q 943 1324 881 1286 q 1044 1394 1006 1361 l 1056 1406 z "},"":{"ha":1828,"x_min":-164,"x_max":2428,"o":"m 328 67 q 297 42 311 42 q 289 67 283 42 l 328 128 q 89 206 192 150 q -75 332 -14 261 q -150 476 -136 403 q -122 611 -164 550 q -1 692 -83 667 q 186 713 81 717 q 415 676 292 708 q 661 583 539 644 q 978 963 825 789 q 1228 1233 1131 1136 l 1233 1244 l 1194 1228 q 913 1136 1033 1150 q 721 1151 792 1122 q 631 1246 650 1181 q 654 1396 611 1311 q 804 1576 697 1481 q 1094 1761 911 1672 q 1382 1861 1225 1825 q 1694 1906 1539 1897 q 1992 1893 1850 1914 q 2235 1821 2133 1872 q 2382 1686 2336 1769 q 2394 1489 2428 1603 q 2290 1310 2372 1411 q 2069 1106 2208 1208 q 1733 911 1931 1003 q 1283 767 1536 819 q 1410 674 1383 733 q 1404 543 1436 614 q 1288 397 1372 472 q 1083 261 1203 322 q 1140 188 1114 222 q 1189 106 1167 153 q 1183 81 1200 83 q 1167 83 1167 78 q 1114 168 1142 131 q 1056 244 1086 206 q 732 142 908 178 q 367 122 556 106 l 328 67 m 1178 744 q 1161 761 1161 744 q 1163 775 1156 767 q 1178 783 1169 783 q 1378 821 1267 792 q 1608 897 1489 850 q 1846 1007 1728 944 q 2065 1146 1964 1069 q 2243 1311 2167 1222 q 2356 1500 2319 1400 q 2350 1674 2392 1600 q 2213 1793 2308 1747 q 1982 1857 2117 1839 q 1699 1867 1847 1875 q 1399 1825 1550 1858 q 1122 1733 1247 1792 q 861 1574 964 1658 q 711 1413 758 1489 q 669 1274 664 1336 q 735 1183 675 1211 q 907 1169 794 1156 q 1183 1256 1019 1183 l 1317 1322 l 1322 1328 q 1456 1451 1394 1394 q 1572 1550 1517 1508 q 1692 1636 1639 1606 q 1767 1667 1744 1667 q 1789 1656 1778 1667 q 1794 1650 1794 1656 q 1789 1639 1794 1644 q 1654 1490 1767 1575 q 1394 1322 1542 1406 l 1344 1300 l 1256 1211 q 1151 1096 1214 1164 q 1014 943 1089 1028 q 857 763 939 858 q 694 567 775 667 q 888 450 794 517 q 1056 294 981 383 q 1264 429 1181 356 q 1372 569 1347 503 q 1356 685 1397 636 q 1189 744 1314 733 l 1178 744 m 639 556 q 401 643 519 611 q 182 679 283 675 q 6 657 81 683 q -100 572 -69 631 q -107 449 -133 514 q -14 325 -81 383 q 149 222 53 267 q 350 161 244 178 q 486 357 414 258 q 639 556 558 456 m 1028 278 q 672 539 869 436 q 522 346 592 442 q 389 161 453 250 q 732 181 569 147 q 1028 278 894 214 m 1522 1461 l 1450 1394 l 1478 1411 q 1631 1518 1561 1467 q 1733 1611 1700 1569 q 1675 1579 1708 1603 q 1594 1522 1642 1556 l 1522 1461 z "},"":{"ha":1633,"x_min":-94,"x_max":2414,"o":"m 1533 1817 q 1565 1840 1553 1836 q 1582 1838 1578 1844 q 1582 1819 1586 1831 q 1567 1800 1578 1808 q 1418 1646 1514 1750 q 1206 1406 1322 1542 q 963 1117 1089 1269 q 719 819 836 964 q 510 550 603 675 q 367 350 417 425 q 561 357 467 356 q 744 353 656 358 q 1106 550 936 436 q 1378 783 1275 664 q 1492 1015 1481 903 q 1378 1211 1503 1128 q 1307 1215 1331 1208 q 1274 1233 1283 1222 q 1264 1256 1264 1244 q 1267 1272 1264 1267 q 1288 1278 1269 1281 q 1328 1267 1306 1275 q 1368 1251 1350 1258 q 1389 1244 1386 1244 q 1490 1244 1414 1242 q 1667 1260 1567 1247 q 1879 1300 1767 1272 q 2090 1378 1992 1328 q 2263 1500 2189 1428 q 2361 1678 2336 1572 q 2321 1858 2383 1783 q 2136 1976 2258 1933 q 1846 2032 2014 2019 q 1493 2026 1678 2044 q 1118 1960 1308 2008 q 761 1833 928 1911 q 483 1681 614 1767 q 253 1506 353 1594 q 96 1333 153 1417 q 44 1189 39 1250 q 133 1121 50 1128 q 338 1144 217 1114 q 596 1238 458 1175 q 849 1379 733 1300 q 1038 1546 964 1458 q 1106 1717 1111 1633 q 1118 1758 1100 1756 q 1144 1722 1136 1761 q 1115 1593 1153 1658 q 1011 1464 1078 1528 q 856 1343 944 1400 q 669 1238 767 1286 q 474 1154 572 1189 q 290 1101 375 1119 q 140 1085 206 1083 q 44 1111 75 1086 q 18 1247 -11 1158 q 143 1440 47 1336 q 389 1654 239 1544 q 728 1856 539 1764 q 1097 1992 900 1939 q 1486 2064 1294 2044 q 1851 2068 1678 2083 q 2153 2003 2025 2053 q 2347 1869 2281 1953 q 2394 1667 2414 1786 q 2301 1488 2378 1569 q 2100 1344 2225 1406 q 1806 1249 1975 1283 q 1433 1211 1636 1214 q 1524 1001 1539 1117 q 1413 768 1508 886 q 1158 539 1317 650 q 822 344 1000 428 q 1061 313 953 333 q 1251 268 1169 292 q 1386 224 1333 244 q 1456 189 1439 203 q 1465 163 1472 172 q 1444 161 1458 153 q 1188 250 1364 200 q 761 317 1011 300 q 503 219 631 258 q 261 167 375 181 l 244 128 q 232 119 239 122 q 217 122 225 117 q 208 131 211 122 q 211 144 206 139 l 211 156 q 107 146 164 150 q 4 146 50 142 q -68 164 -42 150 q -78 211 -94 178 q -15 258 -67 236 q 100 299 36 281 q 226 328 164 317 q 322 344 289 339 q 476 565 378 433 q 694 846 575 697 q 943 1149 814 994 q 1188 1438 1072 1303 q 1394 1672 1303 1572 q 1533 1817 1486 1772 m 233 194 l 294 300 q 203 285 258 294 q 94 260 147 275 q 3 228 42 244 q -39 194 -36 211 q 31 175 -44 178 q 228 194 106 172 l 233 194 m 328 283 l 283 206 q 475 251 375 222 q 672 322 575 281 q 513 322 594 325 q 344 311 431 319 l 328 283 z "},"C":{"ha":1422,"x_min":42,"x_max":2128,"o":"m 228 222 q 115 281 156 242 q 58 372 75 319 q 46 485 42 425 q 67 606 50 544 q 171 833 97 711 q 350 1079 244 956 q 589 1319 456 1203 q 878 1533 722 1436 q 1272 1739 1075 1653 q 1636 1863 1469 1825 q 1922 1882 1803 1900 q 2089 1778 2042 1864 q 2093 1608 2128 1697 q 1975 1429 2058 1519 q 1771 1253 1892 1339 q 1522 1094 1650 1167 q 1271 967 1403 1025 q 1022 876 1139 908 q 821 849 906 844 q 717 911 736 853 q 726 994 706 947 q 792 1093 747 1042 q 896 1193 836 1144 q 1021 1279 956 1242 q 1153 1339 1086 1317 q 1278 1361 1219 1361 q 1300 1339 1300 1350 q 1278 1322 1300 1322 q 1096 1278 1194 1325 q 914 1165 997 1231 q 782 1032 831 1100 q 750 922 733 964 q 831 885 764 889 q 1006 911 897 881 q 1238 993 1111 942 q 1494 1117 1364 1044 q 1756 1285 1639 1197 q 1950 1457 1872 1372 q 2057 1621 2028 1542 q 2056 1767 2086 1700 q 1914 1846 2019 1831 q 1654 1828 1808 1861 q 1306 1714 1500 1794 q 900 1506 1111 1633 q 629 1310 753 1417 q 407 1092 506 1203 q 238 869 308 981 q 128 661 167 758 q 90 543 103 606 q 86 422 78 481 q 132 319 94 364 q 244 256 169 275 q 396 264 297 244 q 617 321 494 283 q 876 411 739 358 q 1144 522 1014 464 q 1388 636 1275 581 q 1578 739 1500 692 q 1606 739 1597 747 q 1600 711 1614 717 q 1454 628 1556 681 q 1222 517 1353 575 q 943 399 1092 458 q 657 294 794 339 q 406 228 519 250 q 228 222 292 206 z "},"":{"ha":1422,"x_min":-692,"x_max":2128,"o":"m 228 228 q 115 286 156 247 q 58 375 75 325 q 46 485 42 425 q 67 606 50 544 q 261 967 117 769 q -64 1060 86 1003 q -335 1183 -214 1117 q -543 1321 -456 1250 q -678 1456 -631 1392 q -675 1488 -692 1481 q -650 1478 -658 1494 q -540 1364 -619 1431 q -340 1229 -461 1297 q -62 1099 -219 1161 q 283 1000 94 1036 q 547 1283 397 1142 q 878 1533 697 1425 q 1272 1739 1075 1653 q 1636 1863 1469 1825 q 1922 1882 1803 1900 q 2089 1778 2042 1864 q 2097 1601 2128 1697 q 1985 1411 2067 1506 q 1782 1232 1903 1317 q 1522 1094 1661 1147 q 878 939 1186 961 q 300 967 569 917 q 201 806 244 883 q 128 661 158 728 q 90 543 103 606 q 86 422 78 481 q 132 319 94 364 q 244 256 169 275 q 396 264 297 244 q 617 321 494 283 q 876 411 739 358 q 1144 522 1014 464 q 1388 636 1275 581 q 1578 739 1500 692 q 1606 739 1597 747 q 1600 711 1614 717 q 1454 629 1556 681 q 1222 518 1353 578 q 943 400 1092 458 q 657 299 794 342 q 406 233 519 256 q 228 228 292 211 m 1483 1122 q 1753 1264 1633 1181 q 1950 1436 1872 1347 q 2057 1613 2028 1525 q 2056 1767 2086 1700 q 1914 1846 2019 1831 q 1654 1828 1808 1861 q 1306 1714 1500 1794 q 900 1506 1111 1633 q 576 1263 719 1397 q 328 994 433 1128 q 589 967 453 972 q 871 974 725 961 q 1169 1022 1017 986 q 1483 1122 1322 1058 z "},"":{"ha":1283,"x_min":-28,"x_max":2128,"o":"m 200 950 q 53 639 94 781 q 21 389 11 497 q 89 211 31 281 q 244 117 147 142 q 422 110 331 94 q 601 167 514 125 q 768 268 689 208 q 906 394 847 328 q 999 528 964 461 q 1033 650 1033 594 q 1000 731 1036 708 q 907 746 964 753 q 779 707 850 739 q 639 626 708 675 q 508 515 569 578 q 411 389 447 453 q 385 365 394 356 q 389 400 375 375 q 494 539 428 472 q 636 657 561 606 q 790 740 711 708 q 931 776 869 772 q 1031 753 992 781 q 1067 656 1069 725 q 1031 519 1067 592 q 932 376 994 447 q 786 243 869 306 q 611 138 703 181 q 424 78 519 94 q 239 83 328 61 q 32 232 86 125 q -12 472 -22 339 q 54 744 -3 606 q 183 989 111 883 q 250 1089 214 1039 q 328 1189 286 1139 q 126 1274 211 1228 q -6 1367 42 1319 q -11 1397 -28 1389 q 22 1389 6 1406 q 147 1296 64 1342 q 344 1211 231 1250 q 588 1453 453 1336 q 878 1667 722 1569 q 1272 1872 1075 1786 q 1636 1996 1469 1958 q 1922 2015 1803 2033 q 2089 1911 2042 1997 q 2094 1738 2128 1831 q 1978 1551 2061 1644 q 1775 1374 1894 1458 q 1522 1228 1656 1289 q 1228 1132 1381 1161 q 924 1101 1075 1103 q 629 1122 772 1100 q 367 1183 486 1144 q 275 1064 317 1119 q 200 950 233 1008 m 1494 1250 q 1767 1408 1647 1322 q 1961 1582 1886 1494 q 2061 1751 2036 1669 q 2056 1900 2086 1833 q 1914 1979 2019 1964 q 1654 1961 1808 1994 q 1306 1847 1500 1928 q 900 1639 1111 1767 q 617 1432 744 1542 q 389 1206 489 1322 q 631 1153 500 1172 q 904 1135 761 1133 q 1197 1163 1047 1136 q 1494 1250 1347 1189 z "},"":{"ha":2322,"x_min":-261,"x_max":2811,"o":"m -33 767 q -39 789 -47 781 q 6 831 -31 814 q 89 856 42 847 q 213 885 144 872 q 361 911 281 897 q 733 954 528 936 q 1156 989 939 972 q 1197 992 1178 989 q 1239 1000 1217 994 q 1453 1175 1342 1081 q 1672 1360 1564 1269 q 1879 1529 1781 1450 q 2050 1661 1978 1608 q 2168 1746 2106 1703 q 2293 1828 2231 1789 q 2414 1897 2356 1867 q 2522 1944 2472 1928 q 2208 2000 2381 1986 q 1850 2010 2036 2014 q 1474 1985 1664 2006 q 1103 1935 1283 1964 q 761 1872 922 1906 q 474 1807 600 1839 q 264 1747 347 1775 q 156 1706 181 1719 q 128 1717 139 1697 q 128 1733 122 1731 q 150 1744 133 1736 q 454 1842 269 1792 q 858 1935 639 1892 q 1317 2008 1078 1978 q 1786 2047 1556 2039 q 2226 2036 2017 2056 q 2594 1961 2436 2017 q 2650 1950 2622 1969 l 2661 1933 q 2732 1897 2700 1917 q 2794 1856 2764 1878 q 2808 1829 2811 1839 q 2783 1833 2806 1819 q 2678 1889 2739 1861 q 2643 1800 2672 1850 q 2572 1696 2614 1750 q 2482 1586 2531 1642 q 2389 1483 2433 1531 q 2193 1282 2292 1386 q 2006 1072 2094 1178 q 2126 1086 2072 1081 q 2222 1106 2181 1092 l 2306 1122 q 2331 1131 2322 1128 q 2344 1133 2339 1133 q 2353 1143 2344 1142 q 2367 1139 2361 1144 q 2367 1111 2375 1119 q 2346 1097 2358 1103 q 2317 1083 2333 1092 l 2233 1072 q 2115 1050 2183 1058 q 1967 1033 2047 1042 q 1850 888 1903 958 q 1760 756 1797 817 q 1704 644 1722 694 q 1694 561 1686 594 q 1758 499 1706 511 q 1886 500 1811 486 q 2049 544 1961 514 q 2221 613 2136 575 q 2375 686 2306 650 q 2483 744 2444 722 q 2506 739 2494 750 q 2500 717 2511 728 q 2383 651 2458 692 q 2218 572 2308 611 q 2033 501 2128 533 q 1860 460 1939 469 q 1724 471 1781 450 q 1656 556 1667 492 q 1664 644 1647 592 q 1717 760 1681 697 q 1803 890 1753 822 q 1911 1028 1853 958 q 1600 997 1769 1011 q 1256 967 1431 983 l 1167 894 q 892 681 1031 786 q 618 483 753 575 q 356 322 483 392 q 115 215 228 253 q -92 179 3 178 q -256 233 -186 181 q -258 247 -256 239 q -256 256 -261 256 q -242 267 -250 264 q -228 261 -233 269 q 7 222 -139 192 q 333 351 153 253 q 722 600 514 450 q 1144 922 931 750 q 1163 939 1153 931 q 1189 956 1172 947 l 1161 956 q 739 917 944 933 q 367 878 533 900 q 217 849 283 861 q 100 822 150 836 q 53 808 69 814 q 22 794 36 803 q -6 778 -6 786 q -33 767 -11 767 m 2356 1500 q 2464 1622 2408 1561 q 2561 1738 2519 1683 q 2626 1835 2603 1792 q 2639 1900 2650 1878 q 2614 1915 2625 1908 q 2589 1922 2603 1922 q 2493 1892 2550 1917 q 2367 1826 2436 1867 q 2221 1736 2297 1786 q 2072 1633 2144 1686 q 1908 1507 2000 1581 q 1715 1349 1817 1433 q 1508 1175 1614 1264 q 1306 1006 1403 1086 l 1944 1067 q 2064 1197 2003 1133 q 2179 1318 2125 1261 q 2279 1422 2233 1375 q 2356 1500 2325 1469 z "},"Ć":{"ha":1422,"x_min":42,"x_max":2128,"o":"m 228 228 q 115 286 156 247 q 58 375 75 325 q 46 485 42 425 q 67 606 50 544 q 171 833 97 711 q 350 1079 244 956 q 589 1319 456 1203 q 878 1533 722 1436 q 1272 1739 1075 1653 q 1636 1863 1469 1825 q 1922 1882 1803 1900 q 2089 1778 2042 1864 q 2093 1608 2128 1697 q 1975 1429 2058 1519 q 1771 1253 1892 1339 q 1522 1094 1650 1167 q 1271 967 1403 1025 q 1022 876 1139 908 q 821 849 906 844 q 717 911 736 853 q 726 994 706 947 q 792 1093 747 1042 q 896 1193 836 1144 q 1021 1279 956 1242 q 1153 1339 1086 1317 q 1278 1361 1219 1361 q 1300 1339 1300 1350 q 1278 1322 1300 1322 q 1096 1278 1194 1325 q 914 1165 997 1231 q 782 1032 831 1100 q 750 922 733 964 q 831 885 764 889 q 1006 911 897 881 q 1238 993 1111 942 q 1494 1117 1364 1044 q 1756 1285 1639 1197 q 1950 1457 1872 1372 q 2057 1621 2028 1542 q 2056 1767 2086 1700 q 1914 1846 2019 1831 q 1654 1828 1808 1861 q 1306 1714 1500 1794 q 900 1506 1111 1633 q 629 1310 753 1417 q 407 1092 506 1203 q 238 869 308 981 q 128 661 167 758 q 90 543 103 606 q 86 422 78 481 q 132 319 94 364 q 244 256 169 275 q 396 264 297 244 q 617 321 494 283 q 876 411 739 358 q 1144 522 1014 464 q 1388 636 1275 581 q 1578 739 1500 692 q 1606 739 1597 747 q 1600 711 1614 717 q 1454 629 1556 681 q 1222 518 1353 578 q 943 400 1092 458 q 657 299 794 342 q 406 233 519 256 q 228 228 292 211 m 1758 2125 q 1753 2139 1753 2131 q 1758 2147 1753 2147 q 1788 2176 1769 2156 q 1824 2222 1806 2197 q 1858 2269 1842 2247 q 1881 2303 1875 2292 q 1896 2318 1886 2311 q 1914 2319 1906 2325 q 1917 2304 1919 2314 q 1914 2286 1914 2294 q 1889 2247 1906 2272 q 1851 2196 1872 2222 q 1811 2147 1831 2169 q 1781 2119 1792 2125 q 1767 2115 1775 2114 q 1758 2125 1758 2117 z "},"Č":{"ha":1422,"x_min":42,"x_max":2128,"o":"m 228 228 q 115 286 156 247 q 58 375 75 325 q 46 485 42 425 q 67 606 50 544 q 171 833 97 711 q 350 1079 244 956 q 589 1319 456 1203 q 878 1533 722 1436 q 1272 1739 1075 1653 q 1636 1863 1469 1825 q 1922 1882 1803 1900 q 2089 1778 2042 1864 q 2093 1608 2128 1697 q 1975 1429 2058 1519 q 1771 1253 1892 1339 q 1522 1094 1650 1167 q 1271 967 1403 1025 q 1022 876 1139 908 q 821 849 906 844 q 717 911 736 853 q 726 994 706 947 q 792 1093 747 1042 q 896 1193 836 1144 q 1021 1279 956 1242 q 1153 1339 1086 1317 q 1278 1361 1219 1361 q 1300 1339 1300 1350 q 1278 1322 1300 1322 q 1096 1278 1194 1325 q 914 1165 997 1231 q 782 1032 831 1100 q 750 922 733 964 q 831 885 764 889 q 1006 911 897 881 q 1238 993 1111 942 q 1494 1117 1364 1044 q 1756 1285 1639 1197 q 1950 1457 1872 1372 q 2057 1621 2028 1542 q 2056 1767 2086 1700 q 1914 1846 2019 1831 q 1654 1828 1808 1861 q 1306 1714 1500 1794 q 900 1506 1111 1633 q 629 1310 753 1417 q 407 1092 506 1203 q 238 869 308 981 q 128 661 167 758 q 90 543 103 606 q 86 422 78 481 q 132 319 94 364 q 244 256 169 275 q 396 264 297 244 q 617 321 494 283 q 876 411 739 358 q 1144 522 1014 464 q 1388 636 1275 581 q 1578 739 1500 692 q 1606 739 1597 747 q 1600 711 1614 717 q 1454 629 1556 681 q 1222 518 1353 578 q 943 400 1092 458 q 657 299 794 342 q 406 233 519 256 q 228 228 292 211 m 1717 2244 q 1717 2267 1694 2267 q 1731 2269 1725 2272 q 1744 2261 1736 2267 q 1779 2192 1767 2231 q 1806 2111 1792 2153 q 1890 2168 1836 2128 q 2067 2250 1944 2208 q 2089 2239 2078 2250 q 2090 2224 2094 2225 q 2078 2217 2086 2222 q 1967 2172 2011 2194 q 1892 2129 1922 2150 q 1840 2093 1861 2108 q 1800 2067 1819 2078 q 1779 2079 1786 2067 q 1767 2100 1772 2092 q 1760 2138 1761 2125 q 1754 2163 1758 2150 q 1743 2193 1750 2175 q 1717 2244 1736 2211 z "},"Ç":{"ha":1422,"x_min":-22,"x_max":2128,"o":"m -11 33 q -21 47 -19 39 q -17 61 -22 56 q 11 67 -8 78 q 85 39 36 42 q 172 50 133 36 q 211 65 197 56 q 233 83 225 75 q 233 133 247 106 q 214 143 228 142 q 194 139 200 144 q 167 136 181 125 q 167 161 153 147 q 178 200 175 183 q 189 239 181 217 q 53 389 72 286 q 67 606 33 492 q 171 833 97 711 q 350 1079 244 956 q 589 1319 456 1203 q 878 1533 722 1436 q 1272 1739 1075 1653 q 1636 1863 1469 1825 q 1922 1882 1803 1900 q 2089 1778 2042 1864 q 2093 1608 2128 1697 q 1975 1429 2058 1519 q 1771 1253 1892 1339 q 1522 1094 1650 1167 q 1271 967 1403 1025 q 1022 876 1139 908 q 821 849 906 844 q 717 911 736 853 q 726 994 706 947 q 792 1093 747 1042 q 896 1193 836 1144 q 1021 1279 956 1242 q 1153 1339 1086 1317 q 1278 1361 1219 1361 q 1300 1339 1300 1350 q 1278 1322 1300 1322 q 1096 1278 1194 1325 q 914 1165 997 1231 q 782 1032 831 1100 q 750 922 733 964 q 831 885 764 889 q 1006 911 897 881 q 1238 993 1111 942 q 1494 1117 1364 1044 q 1756 1285 1639 1197 q 1950 1457 1872 1372 q 2057 1621 2028 1542 q 2056 1767 2086 1700 q 1914 1846 2019 1831 q 1654 1828 1808 1861 q 1306 1714 1500 1794 q 900 1506 1111 1633 q 629 1310 753 1417 q 407 1092 506 1203 q 238 869 308 981 q 128 661 167 758 q 90 543 103 606 q 86 422 78 481 q 132 319 94 364 q 244 256 169 275 q 396 264 297 244 q 617 321 494 283 q 876 411 739 358 q 1144 522 1014 464 q 1388 636 1275 581 q 1578 739 1500 692 q 1606 739 1597 747 q 1600 711 1614 717 q 1454 629 1556 681 q 1222 518 1353 578 q 943 400 1092 458 q 657 299 794 342 q 406 233 519 256 q 228 228 292 211 l 222 228 l 211 189 l 211 183 l 217 183 q 242 174 231 178 q 261 161 253 169 l 261 150 l 267 150 l 272 144 q 261 61 289 97 q 232 32 253 44 q 189 11 211 19 q 81 0 139 -3 q -11 33 22 3 z "},"D":{"ha":1706,"x_min":-211,"x_max":1942,"o":"m -206 122 q -208 139 -211 131 q -206 161 -206 147 q -133 208 -206 183 q 56 256 -61 233 l 72 272 q 235 435 150 342 q 408 632 319 528 q 588 850 497 736 q 767 1078 678 964 q 504 1001 628 1022 q 289 1011 381 981 q 182 1100 200 1036 q 201 1250 164 1164 q 324 1435 239 1336 q 525 1626 408 1533 q 783 1801 642 1719 q 1075 1935 925 1883 q 1375 1999 1225 1986 q 1661 1967 1525 2011 q 1818 1879 1753 1936 q 1913 1739 1883 1822 q 1928 1546 1942 1656 q 1844 1306 1914 1436 q 1694 1071 1786 1192 q 1482 829 1603 950 q 1213 596 1361 708 q 889 389 1064 483 q 1433 553 1192 461 q 1850 733 1675 644 q 1864 735 1856 739 q 1878 722 1872 731 q 1876 708 1878 717 q 1867 700 1875 700 q 1394 497 1658 594 q 756 317 1131 400 q 604 250 692 286 q 421 181 517 214 q 226 121 325 147 q 43 83 128 94 q -108 79 -42 72 q -206 122 -175 86 m 756 367 q 1075 544 919 442 q 1368 769 1231 647 q 1618 1032 1506 892 q 1811 1322 1731 1172 q 1893 1546 1878 1444 q 1883 1724 1908 1647 q 1799 1853 1858 1800 q 1656 1933 1739 1906 q 1381 1964 1525 1975 q 1093 1906 1236 1953 q 815 1782 950 1858 q 567 1617 681 1706 q 368 1436 453 1528 q 242 1265 283 1344 q 208 1128 200 1186 q 289 1050 217 1069 q 525 1047 389 1019 q 811 1139 661 1075 q 956 1343 886 1244 q 1089 1533 1025 1442 q 1111 1544 1094 1544 q 1121 1529 1119 1536 q 1122 1517 1122 1522 l 878 1167 q 1124 1301 1003 1225 q 1346 1461 1244 1378 q 1519 1628 1447 1544 q 1622 1783 1592 1711 q 1636 1811 1631 1797 q 1656 1811 1642 1825 q 1660 1796 1664 1806 q 1656 1772 1656 1786 q 1547 1606 1628 1697 q 1354 1422 1467 1514 q 1106 1246 1242 1331 q 833 1100 969 1161 q 476 649 661 869 q 128 272 292 428 q 442 324 275 297 q 756 367 608 350 m -17 167 q -17 194 -36 186 l 0 211 q -121 178 -75 194 q -167 144 -167 161 q -103 115 -153 119 q 21 121 -53 111 q 183 151 94 131 q 358 200 272 172 q 521 256 444 228 q 650 311 597 283 q 539 297 606 306 q 394 278 472 289 q 235 253 317 267 q 78 228 153 239 l 11 167 q -17 167 -8 158 z "},"":{"ha":1856,"x_min":-142,"x_max":2061,"o":"m -133 122 q -142 136 -142 128 q -133 150 -142 144 q 67 363 -47 236 q 310 632 181 489 q 578 928 439 775 q 856 1222 717 1081 l 967 1328 l 994 1372 q 1040 1438 1019 1406 q 1078 1500 1061 1469 q 1129 1597 1103 1544 q 1164 1700 1156 1650 q 1151 1789 1172 1750 q 1061 1844 1131 1828 q 947 1851 1014 1856 q 804 1829 881 1847 q 647 1781 728 1811 q 489 1711 567 1750 q 308 1601 392 1661 q 165 1479 225 1542 q 75 1354 106 1417 q 56 1239 44 1292 q 189 1199 69 1181 q 472 1300 308 1217 q 618 1390 550 1342 q 735 1488 686 1439 q 808 1578 783 1536 q 822 1650 833 1619 q 839 1678 822 1661 q 856 1656 856 1678 q 840 1563 869 1614 q 757 1460 811 1511 q 629 1358 703 1408 q 483 1272 556 1308 q 335 1204 411 1233 q 192 1164 258 1175 q 79 1167 125 1153 q 22 1233 33 1181 q 40 1367 8 1297 q 138 1503 72 1436 q 292 1632 203 1569 q 478 1744 381 1694 q 636 1815 553 1783 q 800 1867 719 1847 q 953 1890 881 1886 q 1078 1878 1025 1894 q 1182 1803 1156 1850 q 1200 1701 1208 1756 q 1163 1589 1192 1647 q 1106 1483 1133 1531 l 1078 1439 l 1117 1478 q 1306 1632 1214 1564 q 1475 1738 1397 1700 q 1615 1779 1553 1775 q 1717 1739 1678 1783 q 1760 1625 1750 1700 q 1751 1454 1769 1550 q 1685 1244 1733 1358 q 1550 1011 1636 1131 q 1276 710 1444 861 q 856 433 1108 558 l 811 411 l 844 411 q 1146 476 989 442 q 1458 551 1303 511 q 1760 639 1614 592 q 2028 744 1906 686 q 2039 747 2033 750 q 2050 739 2044 744 q 2039 717 2061 717 q 1771 604 1917 653 q 1468 514 1625 556 q 1154 439 1311 472 q 856 378 997 406 q 783 364 817 369 q 717 350 750 358 l 656 339 l 650 339 q 425 258 542 292 q 178 194 308 225 q 163 190 172 192 q 143 190 153 189 q 126 196 133 192 q 122 211 119 200 q 204 267 136 244 q 356 311 272 289 q 458 336 403 325 q 572 361 514 347 l 639 372 l 744 411 q 1219 707 1031 544 q 1522 1033 1408 869 q 1654 1263 1608 1153 q 1717 1463 1700 1372 q 1725 1617 1733 1553 q 1694 1711 1717 1681 q 1592 1740 1656 1750 q 1442 1679 1528 1731 q 1251 1540 1356 1628 q 1028 1339 1147 1453 l 989 1306 l 978 1283 q 839 1099 914 1194 q 689 911 764 1003 q 433 618 564 761 q 189 367 303 475 q 92 265 139 308 q 6 183 44 222 q -67 135 -33 153 q -117 117 -100 117 q -133 122 -128 117 m -17 211 q 64 289 17 244 q 167 389 111 333 q 408 638 281 497 q 661 933 536 778 q 722 1008 692 972 q 783 1083 753 1044 l 811 1122 l 744 1056 q 536 831 639 944 q 338 608 433 717 q 153 400 242 500 q -11 222 64 300 l -28 211 l -17 211 z "},"":{"ha":1706,"x_min":-211,"x_max":1942,"o":"m -206 122 q -208 139 -211 131 q -206 161 -206 147 q -110 214 -206 186 q 128 272 -14 242 q 324 494 217 367 q 543 767 431 622 q 764 1064 656 911 q 967 1361 872 1217 q 815 1326 889 1339 q 683 1319 742 1314 q 586 1350 625 1325 q 539 1428 547 1375 q 558 1525 531 1475 q 638 1625 586 1575 q 760 1722 689 1675 q 911 1811 831 1769 q 1161 1907 1022 1869 q 1436 1951 1300 1944 q 1690 1929 1572 1958 q 1875 1825 1808 1900 q 1942 1622 1942 1750 q 1844 1306 1942 1494 q 1694 1071 1786 1192 q 1482 829 1603 950 q 1213 596 1361 708 q 889 389 1064 483 q 1433 553 1192 461 q 1850 733 1675 644 q 1864 735 1856 739 q 1878 722 1872 731 q 1876 708 1878 717 q 1867 700 1875 700 q 1394 497 1658 594 q 756 317 1131 400 q 604 250 692 286 q 421 181 517 214 q 226 121 325 147 q 43 83 128 94 q -108 79 -42 72 q -206 122 -175 86 m 756 367 q 1075 544 919 442 q 1368 769 1231 647 q 1618 1032 1506 892 q 1811 1322 1731 1172 q 1907 1619 1906 1500 q 1846 1807 1908 1739 q 1674 1900 1783 1875 q 1438 1918 1564 1925 q 1181 1876 1311 1911 q 950 1794 1050 1842 q 788 1701 861 1750 q 663 1606 714 1653 q 586 1514 611 1558 q 567 1433 561 1469 q 703 1350 581 1353 q 1006 1411 825 1347 q 1078 1526 1044 1469 q 1144 1633 1111 1583 q 1167 1644 1156 1656 q 1178 1617 1183 1628 l 1061 1428 q 1243 1506 1153 1461 q 1411 1599 1333 1550 q 1547 1697 1489 1647 q 1633 1794 1606 1747 q 1642 1806 1633 1803 q 1656 1800 1650 1808 q 1661 1778 1669 1794 q 1569 1671 1631 1725 q 1428 1565 1508 1617 q 1254 1468 1347 1514 q 1067 1389 1161 1422 l 1028 1372 q 829 1085 936 1233 q 611 790 722 936 q 393 514 500 644 q 194 283 286 383 q 475 329 328 308 q 756 367 622 350 m 22 139 q 22 167 3 147 l 83 228 q -94 182 -22 203 q -167 144 -167 161 q -103 115 -153 119 q 21 121 -53 111 q 183 151 94 131 q 358 200 272 172 q 521 256 444 228 q 650 311 597 283 q 429 283 569 303 q 150 233 289 264 q 133 217 142 233 l 50 139 q 22 139 31 119 z "},"":{"ha":1817,"x_min":-200,"x_max":1961,"o":"m -167 233 q 100 193 -33 200 q 367 200 233 186 q 550 425 456 297 q 739 692 644 553 q 925 978 833 831 q 1099 1264 1017 1125 q 1251 1526 1181 1403 q 1378 1744 1322 1650 q 1400 1750 1389 1756 q 1411 1722 1411 1744 q 1224 1397 1336 1592 q 978 990 1111 1203 q 701 571 844 778 q 422 206 558 364 q 847 307 631 228 q 1258 501 1064 386 q 1604 757 1453 617 q 1831 1039 1756 897 q 1917 1357 1919 1206 q 1851 1632 1914 1508 q 1683 1840 1789 1756 q 1461 1958 1578 1925 q 1017 2001 1236 2022 q 611 1907 797 1981 q 285 1722 425 1833 q 74 1492 144 1611 q 13 1261 3 1372 q 139 1078 22 1150 q 142 1056 158 1061 q 117 1056 125 1050 q -21 1261 -8 1139 q 42 1510 -33 1383 q 264 1753 117 1636 q 603 1946 411 1869 q 1018 2043 794 2022 q 1467 2000 1242 2064 q 1706 1874 1592 1964 q 1888 1654 1819 1783 q 1958 1364 1956 1525 q 1867 1028 1961 1203 q 1656 757 1794 897 q 1324 493 1517 617 q 893 281 1131 369 q 389 167 656 192 q 296 69 339 117 q 211 -11 253 22 q 183 -11 192 -31 q 183 11 161 0 q 260 81 222 44 q 339 167 297 117 q -178 200 89 150 q -192 217 -200 200 q -167 233 -183 233 z "},"":{"ha":1844,"x_min":-94,"x_max":2417,"o":"m 1533 1817 q 1565 1840 1553 1836 q 1582 1838 1578 1844 q 1582 1819 1586 1831 q 1567 1800 1578 1808 q 1418 1646 1514 1750 q 1206 1406 1322 1542 q 963 1117 1089 1269 q 719 819 836 964 q 510 550 603 675 q 367 350 417 425 q 756 350 572 367 q 1078 496 908 411 q 1415 682 1247 581 q 1740 900 1583 783 q 2025 1143 1897 1017 q 2240 1404 2153 1269 q 2356 1678 2328 1539 q 2311 1854 2375 1781 q 2125 1971 2247 1928 q 1838 2028 2003 2014 q 1489 2025 1672 2042 q 1117 1960 1306 2008 q 761 1833 928 1911 q 483 1681 614 1767 q 253 1506 353 1594 q 96 1333 153 1417 q 44 1189 39 1250 q 132 1122 47 1128 q 339 1150 217 1117 q 601 1247 461 1183 q 858 1390 742 1311 q 1047 1554 975 1469 q 1106 1717 1119 1639 q 1118 1758 1100 1756 q 1144 1722 1136 1761 q 1115 1593 1153 1658 q 1011 1464 1078 1528 q 856 1343 944 1400 q 669 1238 767 1286 q 474 1154 572 1189 q 290 1101 375 1119 q 140 1085 206 1083 q 44 1111 75 1086 q 18 1247 -11 1158 q 143 1440 47 1336 q 389 1654 239 1544 q 728 1856 539 1764 q 1097 1992 900 1939 q 1488 2063 1294 2044 q 1854 2065 1681 2081 q 2156 2001 2028 2050 q 2350 1868 2283 1953 q 2394 1667 2417 1783 q 2289 1407 2369 1536 q 2089 1154 2208 1278 q 1819 914 1969 1031 q 1504 693 1669 797 q 1167 500 1339 589 q 833 344 994 411 q 1253 269 1089 319 q 1456 189 1417 219 q 1465 163 1472 172 q 1444 161 1458 153 q 1192 250 1369 200 q 767 317 1014 300 q 489 217 617 253 q 261 167 361 181 l 244 128 q 232 119 239 122 q 217 122 225 117 q 208 131 211 122 q 211 144 206 139 l 211 156 q 107 146 164 150 q 4 146 50 142 q -68 164 -42 150 q -78 211 -94 178 q -15 258 -67 236 q 100 299 36 281 q 226 328 164 317 q 322 344 289 339 q 476 565 378 433 q 694 846 575 697 q 943 1149 814 994 q 1188 1438 1072 1303 q 1394 1672 1303 1572 q 1533 1817 1486 1772 m 300 306 q 206 289 261 300 q 97 263 150 278 q 4 231 44 247 q -44 200 -36 214 q -44 188 -50 194 q -10 176 -39 181 q 76 175 19 172 q 233 194 133 178 q 258 242 242 211 q 300 306 275 272 m 278 206 l 283 206 q 447 242 347 211 q 678 322 547 272 q 514 321 594 322 q 344 311 433 319 l 278 206 z "},"":{"ha":1706,"x_min":-92,"x_max":1942,"o":"m 1922 744 q 1594 563 1772 619 q 1233 489 1417 506 q 771 236 1028 331 q 211 167 514 142 q -15 231 61 178 q -85 344 -92 283 q 14 458 -78 406 q 294 522 106 511 q 349 528 319 528 q 411 528 378 528 q 710 881 561 686 q 989 1267 858 1075 q 790 1139 889 1194 q 600 1049 692 1083 q 429 1003 508 1014 q 289 1011 350 992 q 179 1100 200 1036 q 193 1250 158 1164 q 308 1435 228 1336 q 503 1626 389 1533 q 754 1801 617 1719 q 1038 1935 892 1883 q 1332 1999 1183 1986 q 1617 1967 1481 2011 l 1678 1944 q 1754 2058 1719 2003 q 1811 2161 1789 2114 q 1828 2189 1819 2175 q 1844 2189 1836 2203 q 1851 2174 1853 2183 q 1844 2150 1850 2164 q 1788 2044 1822 2100 q 1706 1922 1753 1989 q 1824 1788 1781 1872 q 1878 1599 1867 1703 q 1867 1376 1889 1494 q 1789 1139 1844 1258 q 1596 836 1722 997 q 1289 528 1469 675 q 1611 607 1456 550 q 1906 778 1767 664 q 1931 796 1922 794 q 1940 789 1939 797 q 1938 768 1942 781 q 1922 744 1933 756 m 456 528 q 822 514 628 522 q 1217 522 1017 506 q 1543 821 1406 656 q 1756 1150 1681 986 q 1831 1379 1808 1264 q 1844 1594 1853 1494 q 1796 1774 1836 1694 q 1683 1900 1756 1853 q 1411 1613 1569 1761 q 1078 1333 1253 1464 q 785 918 947 1128 q 456 528 622 708 m 1250 1694 q 1272 1700 1261 1706 q 1281 1689 1278 1694 q 1278 1678 1283 1683 q 1214 1554 1247 1619 q 1139 1422 1181 1489 q 1421 1667 1286 1539 q 1656 1917 1556 1794 l 1611 1933 q 1338 1964 1481 1975 q 1054 1906 1194 1953 q 783 1782 914 1858 q 543 1617 653 1706 q 354 1436 433 1528 q 236 1265 275 1344 q 207 1128 197 1186 q 289 1050 217 1069 q 443 1047 356 1031 q 631 1106 531 1064 q 839 1214 731 1147 q 1056 1361 947 1281 q 1160 1535 1111 1450 q 1250 1694 1208 1619 m 150 256 q 150 283 142 275 q 263 382 206 331 q 383 500 319 433 q 338 500 358 500 q 300 494 317 500 q 51 438 136 481 q -42 344 -33 394 q 15 253 -50 294 q 211 200 81 211 q 468 207 342 189 q 715 263 594 225 q 947 356 836 300 q 1161 478 1058 411 q 767 479 956 464 q 428 500 578 494 q 300 367 364 428 q 178 256 236 306 q 150 256 158 247 z "},"":{"ha":1706,"x_min":-503,"x_max":1883,"o":"m -56 172 q -292 281 -194 211 q -442 429 -389 350 q -499 586 -494 508 q -450 722 -503 664 q -312 783 -403 772 q -110 771 -222 794 q 128 692 3 747 q 372 550 253 636 q 599 808 486 667 q 817 1100 711 950 q 531 1006 667 1033 q 289 1011 394 978 q 179 1100 200 1036 q 193 1250 158 1164 q 308 1435 228 1336 q 503 1626 389 1533 q 754 1801 617 1719 q 1038 1935 892 1883 q 1332 1999 1183 1986 q 1617 1967 1481 2011 q 1785 1843 1722 1933 q 1865 1632 1847 1753 q 1860 1372 1883 1511 q 1772 1100 1836 1233 q 1619 842 1717 978 q 1389 579 1522 706 q 1083 349 1256 453 q 706 189 911 244 q 744 115 728 150 q 778 39 761 81 q 768 13 786 14 q 750 17 750 11 q 717 100 733 64 q 678 178 700 136 q 328 131 511 136 q -56 172 144 125 m 1244 1744 q 1267 1750 1256 1756 q 1278 1722 1278 1744 q 1125 1475 1211 1608 q 933 1194 1039 1342 q 1165 1329 1053 1256 q 1369 1482 1278 1403 q 1528 1639 1461 1561 q 1622 1783 1594 1717 q 1636 1811 1631 1797 q 1656 1811 1642 1825 q 1660 1796 1664 1806 q 1656 1772 1656 1786 q 1553 1615 1628 1700 q 1374 1443 1478 1531 q 1142 1274 1269 1356 q 883 1128 1014 1192 q 647 817 769 972 q 400 528 525 661 q 556 386 483 464 q 683 217 628 308 q 1039 365 872 269 q 1342 582 1206 461 q 1579 839 1478 703 q 1744 1111 1681 975 q 1826 1371 1803 1239 q 1836 1618 1850 1503 q 1767 1818 1822 1733 q 1611 1933 1711 1903 q 1338 1964 1481 1975 q 1054 1906 1194 1953 q 783 1782 914 1858 q 543 1617 653 1706 q 354 1436 433 1528 q 236 1265 275 1344 q 207 1128 197 1186 q 289 1050 217 1069 q 550 1051 397 1017 q 867 1161 703 1086 q 1072 1465 975 1317 q 1244 1744 1169 1614 m 83 250 q 83 278 75 258 q 213 388 147 325 q 350 522 278 450 q 115 665 236 608 q -114 744 -6 722 q -307 751 -222 767 q -433 678 -392 736 q -458 551 -475 622 q -383 413 -442 481 q -233 288 -325 344 q -33 206 -142 231 q 321 161 150 158 q 656 211 492 164 q 529 368 600 294 q 378 506 458 442 q 238 368 306 431 q 111 250 169 306 q 83 250 92 231 z "},"Ď":{"ha":1706,"x_min":-211,"x_max":1942,"o":"m -206 122 q -208 139 -211 131 q -206 161 -206 147 q -133 208 -206 183 q 56 256 -61 233 l 72 272 q 235 435 150 342 q 408 632 319 528 q 588 850 497 736 q 767 1078 678 964 q 504 1001 628 1022 q 289 1011 381 981 q 182 1100 200 1036 q 201 1250 164 1164 q 324 1435 239 1336 q 525 1626 408 1533 q 783 1801 642 1719 q 1075 1935 925 1883 q 1375 1999 1225 1986 q 1661 1967 1525 2011 q 1818 1879 1753 1936 q 1913 1739 1883 1822 q 1928 1546 1942 1656 q 1844 1306 1914 1436 q 1694 1071 1786 1192 q 1482 829 1603 950 q 1213 596 1361 708 q 889 389 1064 483 q 1433 553 1192 461 q 1850 733 1675 644 q 1864 735 1856 739 q 1878 722 1872 731 q 1876 708 1878 717 q 1867 700 1875 700 q 1394 497 1658 594 q 756 317 1131 400 q 604 250 692 286 q 421 181 517 214 q 226 121 325 147 q 43 83 128 94 q -108 79 -42 72 q -206 122 -175 86 m 756 367 q 1075 544 919 442 q 1368 769 1231 647 q 1618 1032 1506 892 q 1811 1322 1731 1172 q 1893 1546 1878 1444 q 1883 1724 1908 1647 q 1799 1853 1858 1800 q 1656 1933 1739 1906 q 1381 1964 1525 1975 q 1093 1906 1236 1953 q 815 1782 950 1858 q 567 1617 681 1706 q 368 1436 453 1528 q 242 1265 283 1344 q 208 1128 200 1186 q 289 1050 217 1069 q 525 1047 389 1019 q 811 1139 661 1075 q 956 1343 886 1244 q 1089 1533 1025 1442 q 1111 1544 1094 1544 q 1121 1529 1119 1536 q 1122 1517 1122 1522 l 878 1167 q 1124 1301 1003 1225 q 1346 1461 1244 1378 q 1519 1628 1447 1544 q 1622 1783 1592 1711 q 1636 1811 1631 1797 q 1656 1811 1642 1825 q 1660 1796 1664 1806 q 1656 1772 1656 1786 q 1547 1606 1628 1697 q 1354 1422 1467 1514 q 1106 1246 1242 1331 q 833 1100 969 1161 q 476 649 661 869 q 128 272 292 428 q 442 324 275 297 q 756 367 608 350 m -17 167 q -17 194 -36 186 l 0 211 q -121 178 -75 194 q -167 144 -167 161 q -103 115 -153 119 q 21 121 -53 111 q 183 151 94 131 q 358 200 272 172 q 521 256 444 228 q 650 311 597 283 q 539 297 606 306 q 394 278 472 289 q 235 253 317 267 q 78 228 153 239 l 11 167 q -17 167 -8 158 m 1564 2308 q 1564 2331 1542 2331 q 1578 2333 1572 2336 q 1592 2325 1583 2331 q 1626 2256 1614 2294 q 1653 2175 1639 2217 q 1738 2232 1683 2192 q 1914 2314 1792 2272 q 1936 2303 1925 2314 q 1938 2288 1942 2289 q 1925 2281 1933 2286 q 1814 2236 1858 2258 q 1739 2193 1769 2214 q 1688 2157 1708 2172 q 1647 2131 1667 2142 q 1626 2143 1633 2131 q 1614 2164 1619 2156 q 1607 2201 1608 2189 q 1601 2226 1606 2214 q 1590 2257 1597 2239 q 1564 2308 1583 2275 z "},"Đ":{"ha":1706,"x_min":-211,"x_max":1942,"o":"m -206 122 q -208 139 -211 131 q -206 161 -206 147 q -133 208 -206 183 q 56 256 -61 233 l 72 272 q 272 478 167 361 q 489 728 378 594 q 250 725 358 725 q 111 722 142 725 q 89 725 106 722 q 78 744 72 728 q 89 764 78 758 q 100 767 94 767 l 522 767 q 644 919 583 842 q 767 1078 706 997 q 504 1001 628 1022 q 289 1011 381 981 q 182 1100 200 1036 q 201 1250 164 1164 q 324 1435 239 1336 q 525 1626 408 1533 q 783 1801 642 1719 q 1075 1935 925 1883 q 1375 1999 1225 1986 q 1661 1967 1525 2011 q 1818 1879 1753 1936 q 1913 1739 1883 1822 q 1928 1546 1942 1656 q 1844 1306 1914 1436 q 1694 1071 1786 1192 q 1482 829 1603 950 q 1213 596 1361 708 q 889 389 1064 483 q 1433 553 1192 461 q 1850 733 1675 644 q 1864 735 1856 739 q 1878 722 1872 731 q 1876 708 1878 717 q 1867 700 1875 700 q 1394 497 1658 594 q 756 317 1131 400 q 604 250 692 286 q 421 181 517 214 q 226 121 325 147 q 43 83 128 94 q -108 79 -42 72 q -206 122 -175 86 m 756 367 q 1075 544 919 442 q 1368 769 1231 647 q 1618 1032 1506 892 q 1811 1322 1731 1172 q 1893 1546 1878 1444 q 1883 1724 1908 1647 q 1799 1853 1858 1800 q 1656 1933 1739 1906 q 1381 1964 1525 1975 q 1093 1906 1236 1953 q 815 1782 950 1858 q 567 1617 681 1706 q 368 1436 453 1528 q 242 1265 283 1344 q 208 1128 200 1186 q 289 1050 217 1069 q 525 1047 389 1019 q 811 1139 661 1075 q 956 1343 886 1244 q 1089 1533 1025 1442 q 1111 1544 1094 1544 q 1121 1529 1119 1536 q 1122 1517 1122 1522 l 878 1167 q 1124 1301 1003 1225 q 1346 1461 1244 1378 q 1519 1628 1447 1544 q 1622 1783 1592 1711 q 1636 1811 1631 1797 q 1656 1811 1642 1825 q 1660 1796 1664 1806 q 1656 1772 1656 1786 q 1547 1606 1628 1697 q 1354 1422 1467 1514 q 1106 1246 1242 1331 q 833 1100 969 1161 q 704 932 769 1017 q 572 767 639 847 l 967 767 q 981 764 975 767 q 989 744 992 758 q 978 731 989 736 q 967 728 972 728 l 542 728 q 329 481 433 597 q 128 272 225 364 q 442 324 275 297 q 756 367 608 350 m -17 167 q -17 194 -36 186 l 0 211 q -121 178 -75 194 q -167 144 -167 161 q -103 115 -153 119 q 21 121 -53 111 q 183 151 94 131 q 358 200 272 172 q 521 256 444 228 q 650 311 597 283 q 539 297 606 306 q 394 278 472 289 q 235 253 317 267 q 78 228 153 239 l 11 167 q -17 167 -8 158 z "},"E":{"ha":1011,"x_min":-233,"x_max":1797,"o":"m -106 489 q 1 579 -64 531 q 143 676 67 628 q 301 772 219 725 q 458 858 383 819 q 597 925 533 897 q 700 967 661 953 l 661 967 q 406 1028 489 981 q 306 1156 322 1075 q 336 1297 292 1217 q 464 1464 381 1378 q 661 1635 547 1550 q 901 1792 775 1719 q 1157 1918 1028 1864 q 1401 1994 1286 1972 q 1610 2000 1517 2017 q 1756 1917 1703 1983 q 1767 1776 1797 1864 q 1639 1593 1736 1689 q 1379 1407 1542 1497 q 994 1256 1217 1317 q 986 1257 989 1256 q 983 1272 983 1258 q 985 1286 978 1278 q 1000 1294 992 1294 q 1376 1444 1225 1356 q 1614 1621 1528 1533 q 1726 1783 1700 1708 q 1728 1894 1753 1858 q 1607 1964 1689 1950 q 1418 1957 1525 1978 q 1188 1888 1311 1936 q 942 1774 1064 1839 q 708 1629 819 1708 q 514 1468 597 1550 q 383 1307 431 1386 q 344 1161 336 1228 q 378 1094 350 1125 q 464 1042 406 1064 q 614 1007 522 1019 q 839 1000 706 994 q 858 983 856 1000 q 839 967 861 967 q 606 890 742 953 q 335 749 469 828 q 86 590 200 669 q -78 467 -28 511 q -149 390 -122 428 q -181 319 -175 353 q -167 263 -186 286 q -100 233 -147 239 q 76 251 -33 228 q 294 322 186 275 q 518 419 389 358 q 772 542 647 481 q 997 653 897 603 q 1133 722 1097 703 q 1151 725 1142 722 q 1167 722 1161 728 q 1156 694 1167 700 q 1014 617 1117 669 q 783 503 911 564 q 525 382 656 442 q 300 283 394 322 q 3 200 125 211 q -176 222 -119 189 q -218 325 -233 256 q -106 489 -203 394 z "},"":{"ha":1450,"x_min":42,"x_max":2219,"o":"m 1106 967 q 850 1053 933 981 q 750 1206 767 1125 q 767 1378 733 1292 q 532 1499 642 1425 q 339 1661 422 1572 q 201 1853 256 1750 q 133 2061 147 1956 q 144 2086 128 2078 q 167 2072 161 2094 q 218 1897 175 1992 q 338 1713 261 1803 q 524 1543 414 1622 q 772 1411 633 1464 q 944 1638 825 1528 q 1214 1835 1064 1747 q 1529 1982 1364 1922 q 1836 2060 1694 2042 q 2078 2044 1978 2078 q 2200 1917 2178 2011 q 2185 1747 2219 1828 q 2076 1596 2150 1667 q 1897 1468 2003 1525 q 1665 1372 1792 1411 q 1401 1314 1539 1333 q 1128 1300 1264 1294 q 794 1367 953 1308 q 778 1288 781 1325 q 789 1211 775 1250 q 831 1121 800 1161 q 919 1051 861 1081 q 1067 1004 978 1022 q 1283 983 1156 986 q 1294 975 1292 983 q 1297 958 1297 967 q 1292 943 1297 950 q 1278 939 1286 936 q 1033 939 1172 950 q 751 896 894 928 q 475 811 608 864 q 249 689 342 758 q 117 533 156 619 q 122 350 78 447 q 192 278 144 303 q 299 246 239 253 q 425 246 358 239 q 553 267 492 253 q 663 296 614 281 q 739 322 711 311 q 964 415 833 356 q 1219 538 1094 475 q 1443 651 1344 600 q 1578 722 1542 703 q 1596 725 1586 722 q 1611 722 1606 728 q 1600 694 1611 700 q 1519 647 1575 678 q 1390 581 1464 617 q 1231 501 1317 544 q 1058 419 1144 458 q 890 344 972 381 q 744 283 808 308 q 461 207 578 219 q 267 211 344 194 q 147 264 189 228 q 89 333 106 300 q 67 508 42 425 q 165 664 92 592 q 351 794 239 736 q 593 892 464 853 q 856 950 722 931 q 1106 967 989 969 m 1117 1333 q 1368 1339 1239 1322 q 1618 1390 1497 1356 q 1844 1478 1739 1425 q 2025 1597 1950 1531 q 2139 1739 2100 1664 q 2167 1894 2178 1814 q 2060 2014 2153 1983 q 1832 2028 1967 2044 q 1539 1953 1697 2011 q 1235 1810 1381 1894 q 974 1617 1089 1725 q 811 1394 858 1508 q 956 1357 878 1372 q 1117 1333 1033 1342 z "},"":{"ha":1389,"x_min":-275,"x_max":2233,"o":"m -267 117 q -272 131 -275 122 q -256 139 -269 139 q -168 158 -214 147 q -72 183 -122 169 q 146 499 0 322 q 467 872 292 675 l 361 844 q 336 838 356 844 q 311 844 317 831 q 322 867 308 858 l 339 872 q 410 892 369 881 q 506 911 450 903 q 749 1165 625 1039 q 992 1407 872 1292 q 1218 1622 1111 1522 q 1411 1800 1325 1722 q 1206 1753 1303 1778 q 1028 1694 1108 1728 q 1008 1688 1014 1689 q 989 1694 1003 1686 q 989 1710 981 1703 q 1006 1722 997 1717 q 1210 1790 1094 1764 q 1456 1839 1325 1817 q 1497 1882 1478 1864 q 1539 1917 1517 1900 q 1567 1917 1547 1925 q 1567 1894 1578 1906 l 1522 1856 q 1721 1879 1622 1869 q 1911 1893 1819 1889 q 2081 1899 2003 1897 q 2217 1900 2158 1900 q 2232 1881 2231 1900 q 2211 1861 2233 1861 q 1854 1851 2047 1861 q 1472 1811 1661 1842 q 1279 1633 1386 1733 q 1053 1418 1172 1533 q 810 1176 933 1303 q 567 922 686 1050 q 754 958 653 942 q 954 988 856 975 q 1142 1011 1053 1000 q 1294 1028 1231 1022 l 1308 1028 q 1318 1022 1314 1025 q 1322 1011 1322 1019 q 1308 997 1322 1003 q 1294 994 1300 994 q 1111 971 1211 983 q 908 944 1011 958 q 706 915 806 931 q 522 883 606 900 q 196 513 342 692 q -22 194 50 333 q 222 246 94 219 q 475 296 350 272 q 711 338 600 319 q 906 367 822 356 q 1278 401 1114 397 q 1533 383 1442 406 q 1544 361 1550 375 q 1522 350 1536 336 q 1285 363 1447 367 q 917 333 1122 358 q 713 300 828 319 q 468 256 597 281 q 207 201 339 231 q -44 144 75 172 q -67 100 -58 122 q -94 89 -72 81 q -100 117 -108 89 q -97 126 -100 122 q -94 139 -94 131 l -244 100 q -267 117 -267 100 z "},"":{"ha":1450,"x_min":-233,"x_max":2231,"o":"m 372 589 q 557 728 461 667 q 746 835 653 789 q 924 913 839 881 q 1078 967 1008 944 l 1039 967 q 786 1028 867 981 q 700 1156 706 1075 q 742 1311 692 1225 q 882 1488 792 1397 q 1093 1664 972 1578 q 1346 1822 1214 1750 q 1610 1944 1478 1894 q 1858 2013 1742 1994 q 2064 2010 1975 2031 q 2194 1917 2153 1989 q 2200 1767 2231 1853 q 2069 1589 2169 1681 q 1799 1410 1969 1497 q 1389 1256 1628 1322 q 1381 1254 1383 1250 q 1383 1272 1378 1258 q 1385 1283 1378 1278 q 1400 1294 1392 1289 q 1768 1428 1611 1347 q 2021 1592 1925 1508 q 2154 1754 2117 1675 q 2167 1889 2192 1833 q 2060 1976 2136 1956 q 1878 1981 1983 1997 q 1646 1918 1772 1964 q 1393 1806 1519 1872 q 1149 1658 1267 1739 q 939 1492 1031 1578 q 790 1321 847 1406 q 733 1161 733 1236 q 764 1094 736 1125 q 849 1042 792 1064 q 997 1007 906 1019 q 1222 1000 1089 994 q 1239 978 1239 1000 q 1217 950 1239 956 q 1015 906 1119 936 q 806 826 911 875 q 599 715 700 778 q 411 578 497 653 q 300 454 344 519 q 239 322 256 389 q 511 454 372 394 q 781 557 650 514 q 1028 625 911 600 q 1231 650 1144 650 q 1365 625 1317 650 q 1411 544 1414 600 q 1360 411 1411 483 q 1226 271 1308 339 q 1038 143 1144 203 q 819 43 931 83 q 600 -12 708 3 q 406 -6 492 -28 q 246 96 297 25 q 200 256 194 167 q -7 122 92 192 q -194 -28 -106 53 q -229 -39 -225 -50 q -211 -6 -233 -28 q -25 151 -128 75 q 200 300 78 228 q 254 450 208 375 q 372 589 300 525 m 411 33 q 599 25 494 11 q 810 76 703 39 q 1018 172 917 114 q 1199 294 1119 231 q 1326 424 1278 358 q 1378 544 1375 489 q 1278 617 1381 608 q 1010 588 1175 625 q 640 469 844 550 q 233 278 436 389 q 269 126 228 194 q 411 33 311 58 z "},"É":{"ha":1011,"x_min":-233,"x_max":1797,"o":"m -106 489 q 1 579 -64 531 q 143 676 67 628 q 301 772 219 725 q 458 858 383 819 q 597 925 533 897 q 700 967 661 953 l 661 967 q 406 1028 489 981 q 306 1156 322 1075 q 336 1297 292 1217 q 464 1464 381 1378 q 661 1635 547 1550 q 901 1792 775 1719 q 1157 1918 1028 1864 q 1401 1994 1286 1972 q 1610 2000 1517 2017 q 1756 1917 1703 1983 q 1767 1776 1797 1864 q 1639 1593 1736 1689 q 1379 1407 1542 1497 q 994 1256 1217 1317 q 986 1257 989 1256 q 983 1272 983 1258 q 985 1286 978 1278 q 1000 1294 992 1294 q 1376 1444 1225 1356 q 1614 1621 1528 1533 q 1726 1783 1700 1708 q 1728 1894 1753 1858 q 1607 1964 1689 1950 q 1418 1957 1525 1978 q 1188 1888 1311 1936 q 942 1774 1064 1839 q 708 1629 819 1708 q 514 1468 597 1550 q 383 1307 431 1386 q 344 1161 336 1228 q 378 1094 350 1125 q 464 1042 406 1064 q 614 1007 522 1019 q 839 1000 706 994 q 858 983 856 1000 q 839 967 861 967 q 606 890 742 953 q 335 749 469 828 q 86 590 200 669 q -78 467 -28 511 q -149 390 -122 428 q -181 319 -175 353 q -167 263 -186 286 q -100 233 -147 239 q 76 251 -33 228 q 294 322 186 275 q 518 419 389 358 q 772 542 647 481 q 997 653 897 603 q 1133 722 1097 703 q 1151 725 1142 722 q 1167 722 1161 728 q 1156 694 1167 700 q 1014 617 1117 669 q 783 503 911 564 q 525 382 656 442 q 300 283 394 322 q 3 200 125 211 q -176 222 -119 189 q -218 325 -233 256 q -106 489 -203 394 m 1589 2183 q 1589 2197 1589 2189 q 1594 2211 1589 2206 q 1624 2238 1606 2217 q 1660 2283 1642 2258 q 1694 2331 1678 2308 q 1717 2367 1711 2353 q 1731 2379 1722 2372 q 1744 2378 1739 2386 q 1751 2363 1753 2372 q 1744 2344 1750 2353 q 1719 2306 1736 2331 q 1685 2254 1703 2281 q 1647 2206 1667 2228 q 1617 2178 1628 2183 q 1603 2174 1611 2172 q 1589 2183 1594 2175 z "},"Ě":{"ha":1011,"x_min":-233,"x_max":1808,"o":"m -106 489 q 1 579 -64 531 q 143 676 67 628 q 301 772 219 725 q 458 858 383 819 q 597 925 533 897 q 700 967 661 953 l 661 967 q 406 1028 489 981 q 306 1156 322 1075 q 336 1297 292 1217 q 464 1464 381 1378 q 661 1635 547 1550 q 901 1792 775 1719 q 1157 1918 1028 1864 q 1401 1994 1286 1972 q 1610 2000 1517 2017 q 1756 1917 1703 1983 q 1767 1776 1797 1864 q 1639 1593 1736 1689 q 1379 1407 1542 1497 q 994 1256 1217 1317 q 986 1257 989 1256 q 983 1272 983 1258 q 985 1286 978 1278 q 1000 1294 992 1294 q 1376 1444 1225 1356 q 1614 1621 1528 1533 q 1726 1783 1700 1708 q 1728 1894 1753 1858 q 1607 1964 1689 1950 q 1418 1957 1525 1978 q 1188 1888 1311 1936 q 942 1774 1064 1839 q 708 1629 819 1708 q 514 1468 597 1550 q 383 1307 431 1386 q 344 1161 336 1228 q 378 1094 350 1125 q 464 1042 406 1064 q 614 1007 522 1019 q 839 1000 706 994 q 858 983 856 1000 q 839 967 861 967 q 606 890 742 953 q 335 749 469 828 q 86 590 200 669 q -78 467 -28 511 q -149 390 -122 428 q -181 319 -175 353 q -167 263 -186 286 q -100 233 -147 239 q 76 251 -33 228 q 294 322 186 275 q 518 419 389 358 q 772 542 647 481 q 997 653 897 603 q 1133 722 1097 703 q 1151 725 1142 722 q 1167 722 1161 728 q 1156 694 1167 700 q 1014 617 1117 669 q 783 503 911 564 q 525 382 656 442 q 300 283 394 322 q 3 200 125 211 q -176 222 -119 189 q -218 325 -233 256 q -106 489 -203 394 m 1431 2314 q 1431 2336 1408 2336 q 1444 2339 1439 2342 q 1458 2331 1450 2336 q 1493 2261 1481 2300 q 1519 2181 1506 2222 q 1604 2238 1550 2197 q 1781 2319 1658 2278 q 1803 2308 1792 2319 q 1804 2293 1808 2294 q 1792 2286 1800 2292 q 1681 2242 1725 2264 q 1606 2199 1636 2219 q 1554 2163 1575 2178 q 1514 2136 1533 2147 q 1493 2149 1500 2136 q 1481 2169 1486 2161 q 1474 2207 1475 2194 q 1468 2232 1472 2219 q 1457 2263 1464 2244 q 1431 2314 1450 2281 z "},"Ê":{"ha":1011,"x_min":-233,"x_max":1797,"o":"m -106 489 q 1 579 -64 531 q 143 676 67 628 q 301 772 219 725 q 458 858 383 819 q 597 925 533 897 q 700 967 661 953 l 661 967 q 406 1028 489 981 q 306 1156 322 1075 q 336 1297 292 1217 q 464 1464 381 1378 q 661 1635 547 1550 q 901 1792 775 1719 q 1157 1918 1028 1864 q 1401 1994 1286 1972 q 1610 2000 1517 2017 q 1756 1917 1703 1983 q 1767 1776 1797 1864 q 1639 1593 1736 1689 q 1379 1407 1542 1497 q 994 1256 1217 1317 q 986 1257 989 1256 q 983 1272 983 1258 q 985 1286 978 1278 q 1000 1294 992 1294 q 1376 1444 1225 1356 q 1614 1621 1528 1533 q 1726 1783 1700 1708 q 1728 1894 1753 1858 q 1607 1964 1689 1950 q 1418 1957 1525 1978 q 1188 1888 1311 1936 q 942 1774 1064 1839 q 708 1629 819 1708 q 514 1468 597 1550 q 383 1307 431 1386 q 344 1161 336 1228 q 378 1094 350 1125 q 464 1042 406 1064 q 614 1007 522 1019 q 839 1000 706 994 q 858 983 856 1000 q 839 967 861 967 q 606 890 742 953 q 335 749 469 828 q 86 590 200 669 q -78 467 -28 511 q -149 390 -122 428 q -181 319 -175 353 q -167 263 -186 286 q -100 233 -147 239 q 76 251 -33 228 q 294 322 186 275 q 518 419 389 358 q 772 542 647 481 q 997 653 897 603 q 1133 722 1097 703 q 1151 725 1142 722 q 1167 722 1161 728 q 1156 694 1167 700 q 1014 617 1117 669 q 783 503 911 564 q 525 382 656 442 q 300 283 394 322 q 3 200 125 211 q -176 222 -119 189 q -218 325 -233 256 q -106 489 -203 394 m 1733 2194 q 1733 2172 1756 2183 q 1706 2183 1722 2167 q 1671 2253 1683 2214 q 1644 2333 1658 2292 q 1560 2274 1614 2311 q 1383 2189 1506 2236 q 1368 2193 1369 2189 q 1361 2206 1367 2197 q 1372 2228 1356 2219 q 1483 2272 1439 2250 q 1558 2313 1528 2294 q 1610 2346 1589 2331 q 1650 2372 1631 2361 q 1671 2363 1664 2372 q 1678 2344 1678 2353 q 1689 2306 1686 2319 q 1696 2279 1692 2292 q 1707 2249 1700 2267 q 1733 2194 1714 2231 z "},"Ë":{"ha":1011,"x_min":-233,"x_max":1797,"o":"m -106 489 q 1 579 -64 531 q 143 676 67 628 q 301 772 219 725 q 458 858 383 819 q 597 925 533 897 q 700 967 661 953 l 661 967 q 406 1028 489 981 q 306 1156 322 1075 q 336 1297 292 1217 q 464 1464 381 1378 q 661 1635 547 1550 q 901 1792 775 1719 q 1157 1918 1028 1864 q 1401 1994 1286 1972 q 1610 2000 1517 2017 q 1756 1917 1703 1983 q 1767 1776 1797 1864 q 1639 1593 1736 1689 q 1379 1407 1542 1497 q 994 1256 1217 1317 q 986 1257 989 1256 q 983 1272 983 1258 q 985 1286 978 1278 q 1000 1294 992 1294 q 1376 1444 1225 1356 q 1614 1621 1528 1533 q 1726 1783 1700 1708 q 1728 1894 1753 1858 q 1607 1964 1689 1950 q 1418 1957 1525 1978 q 1188 1888 1311 1936 q 942 1774 1064 1839 q 708 1629 819 1708 q 514 1468 597 1550 q 383 1307 431 1386 q 344 1161 336 1228 q 378 1094 350 1125 q 464 1042 406 1064 q 614 1007 522 1019 q 839 1000 706 994 q 858 983 856 1000 q 839 967 861 967 q 606 890 742 953 q 335 749 469 828 q 86 590 200 669 q -78 467 -28 511 q -149 390 -122 428 q -181 319 -175 353 q -167 263 -186 286 q -100 233 -147 239 q 76 251 -33 228 q 294 322 186 275 q 518 419 389 358 q 772 542 647 481 q 997 653 897 603 q 1133 722 1097 703 q 1151 725 1142 722 q 1167 722 1161 728 q 1156 694 1167 700 q 1014 617 1117 669 q 783 503 911 564 q 525 382 656 442 q 300 283 394 322 q 3 200 125 211 q -176 222 -119 189 q -218 325 -233 256 q -106 489 -203 394 m 1417 2211 q 1438 2251 1422 2236 q 1478 2261 1453 2267 q 1486 2256 1481 2258 q 1492 2251 1489 2253 q 1489 2244 1494 2250 q 1478 2232 1483 2236 q 1456 2211 1472 2228 q 1449 2199 1456 2203 q 1433 2194 1442 2194 q 1419 2199 1425 2194 q 1417 2211 1414 2203 m 1594 2211 q 1615 2251 1600 2236 q 1656 2261 1631 2267 q 1664 2256 1658 2258 q 1669 2251 1667 2253 q 1667 2244 1672 2250 q 1656 2232 1661 2236 q 1633 2211 1650 2228 q 1626 2199 1633 2203 q 1611 2194 1619 2194 q 1597 2199 1603 2194 q 1594 2211 1592 2203 z "},"È":{"ha":1011,"x_min":-233,"x_max":1797,"o":"m -106 489 q 1 579 -64 531 q 143 676 67 628 q 301 772 219 725 q 458 858 383 819 q 597 925 533 897 q 700 967 661 953 l 661 967 q 406 1028 489 981 q 306 1156 322 1075 q 336 1297 292 1217 q 464 1464 381 1378 q 661 1635 547 1550 q 901 1792 775 1719 q 1157 1918 1028 1864 q 1401 1994 1286 1972 q 1610 2000 1517 2017 q 1756 1917 1703 1983 q 1767 1776 1797 1864 q 1639 1593 1736 1689 q 1379 1407 1542 1497 q 994 1256 1217 1317 q 986 1257 989 1256 q 983 1272 983 1258 q 985 1286 978 1278 q 1000 1294 992 1294 q 1376 1444 1225 1356 q 1614 1621 1528 1533 q 1726 1783 1700 1708 q 1728 1894 1753 1858 q 1607 1964 1689 1950 q 1418 1957 1525 1978 q 1188 1888 1311 1936 q 942 1774 1064 1839 q 708 1629 819 1708 q 514 1468 597 1550 q 383 1307 431 1386 q 344 1161 336 1228 q 378 1094 350 1125 q 464 1042 406 1064 q 614 1007 522 1019 q 839 1000 706 994 q 858 983 856 1000 q 839 967 861 967 q 606 890 742 953 q 335 749 469 828 q 86 590 200 669 q -78 467 -28 511 q -149 390 -122 428 q -181 319 -175 353 q -167 263 -186 286 q -100 233 -147 239 q 76 251 -33 228 q 294 322 186 275 q 518 419 389 358 q 772 542 647 481 q 997 653 897 603 q 1133 722 1097 703 q 1151 725 1142 722 q 1167 722 1161 728 q 1156 694 1167 700 q 1014 617 1117 669 q 783 503 911 564 q 525 382 656 442 q 300 283 394 322 q 3 200 125 211 q -176 222 -119 189 q -218 325 -233 256 q -106 489 -203 394 m 1628 2094 q 1600 2089 1619 2078 q 1568 2117 1586 2094 q 1529 2165 1550 2139 q 1492 2217 1508 2192 q 1467 2256 1475 2242 q 1460 2274 1461 2264 q 1467 2289 1458 2283 q 1485 2290 1475 2297 q 1500 2278 1494 2283 q 1522 2242 1506 2264 q 1557 2194 1539 2219 q 1593 2149 1575 2169 q 1622 2122 1611 2128 q 1632 2108 1631 2117 q 1628 2094 1633 2100 z "},"Ę":{"ha":1011,"x_min":-250,"x_max":1797,"o":"m 39 192 q -36 136 -6 167 q -75 76 -67 106 q -69 22 -83 47 q -14 -19 -56 -3 q 183 -47 53 -42 q 226 -67 231 -50 q 192 -86 222 -83 q -3 -67 72 -92 q -107 -1 -78 -42 q -114 92 -136 39 q -14 200 -92 144 q -217 268 -183 186 q -106 489 -250 350 q 1 579 -64 531 q 143 676 67 628 q 301 772 219 725 q 458 858 383 819 q 597 925 533 897 q 700 967 661 953 l 661 967 q 406 1028 489 981 q 306 1156 322 1075 q 336 1297 292 1217 q 464 1464 381 1378 q 661 1635 547 1550 q 901 1792 775 1719 q 1157 1918 1028 1864 q 1401 1994 1286 1972 q 1610 2000 1517 2017 q 1756 1917 1703 1983 q 1767 1776 1797 1864 q 1639 1593 1736 1689 q 1379 1407 1542 1497 q 994 1256 1217 1317 q 986 1257 989 1256 q 983 1272 983 1258 q 985 1286 978 1278 q 1000 1294 992 1294 q 1376 1444 1225 1356 q 1614 1621 1528 1533 q 1726 1783 1700 1708 q 1728 1894 1753 1858 q 1607 1964 1689 1950 q 1418 1957 1525 1978 q 1188 1888 1311 1936 q 942 1774 1064 1839 q 708 1629 819 1708 q 514 1468 597 1550 q 383 1307 431 1386 q 344 1161 336 1228 q 378 1094 350 1125 q 464 1042 406 1064 q 614 1007 522 1019 q 839 1000 706 994 q 858 983 856 1000 q 839 967 861 967 q 606 890 742 953 q 335 749 469 828 q 86 590 200 669 q -78 467 -28 511 q -149 390 -122 428 q -181 319 -175 353 q -167 263 -186 286 q -100 233 -147 239 q 76 251 -33 228 q 294 322 186 275 q 518 419 389 358 q 772 542 647 481 q 997 653 897 603 q 1133 722 1097 703 q 1151 725 1142 722 q 1167 722 1161 728 q 1156 694 1167 700 q 1014 617 1117 669 q 783 503 911 564 q 525 382 656 442 q 300 283 394 322 q 58 211 156 228 q 39 192 53 197 z "},"Ð":{"ha":1706,"x_min":-211,"x_max":1942,"o":"m 150 722 q 128 724 144 722 q 117 739 111 725 q 131 758 117 753 q 144 761 136 761 q 299 771 183 761 q 544 789 414 781 l 767 1078 q 504 1001 628 1022 q 289 1011 381 981 q 182 1100 200 1036 q 201 1250 164 1164 q 324 1435 239 1336 q 525 1626 408 1533 q 783 1801 642 1719 q 1075 1935 925 1883 q 1375 1999 1225 1986 q 1661 1967 1525 2011 q 1818 1879 1753 1936 q 1913 1739 1883 1822 q 1928 1546 1942 1656 q 1844 1306 1914 1436 q 1694 1071 1786 1192 q 1482 829 1603 950 q 1213 596 1361 708 q 889 389 1064 483 q 1433 553 1192 461 q 1850 733 1675 644 q 1864 735 1856 739 q 1878 722 1872 731 q 1876 708 1878 717 q 1867 700 1875 700 q 1394 497 1658 594 q 756 317 1131 400 q 604 250 692 286 q 421 181 517 214 q 226 121 325 147 q 43 83 128 94 q -108 79 -42 72 q -206 122 -175 86 q -208 139 -211 131 q -206 161 -206 147 q -133 208 -206 183 q 56 256 -61 233 l 72 272 q 283 486 172 364 q 511 750 394 608 q 289 732 394 742 q 150 722 183 722 m 756 367 q 1075 544 919 442 q 1368 769 1231 647 q 1618 1032 1506 892 q 1811 1322 1731 1172 q 1893 1546 1878 1444 q 1883 1724 1908 1647 q 1799 1853 1858 1800 q 1656 1933 1739 1906 q 1381 1964 1525 1975 q 1093 1906 1236 1953 q 815 1782 950 1858 q 567 1617 681 1706 q 368 1436 453 1528 q 242 1265 283 1344 q 208 1128 200 1186 q 289 1050 217 1069 q 525 1047 389 1019 q 811 1139 661 1075 q 956 1343 886 1244 q 1089 1533 1025 1442 q 1111 1544 1094 1544 q 1121 1529 1119 1536 q 1122 1517 1122 1522 l 878 1167 q 1124 1301 1003 1225 q 1346 1461 1244 1378 q 1519 1628 1447 1544 q 1622 1783 1592 1711 q 1636 1811 1631 1797 q 1656 1811 1642 1825 q 1660 1796 1664 1806 q 1656 1772 1656 1786 q 1547 1606 1628 1697 q 1354 1422 1467 1514 q 1106 1246 1242 1331 q 833 1100 969 1161 l 594 794 q 751 807 683 803 q 844 811 819 811 q 861 808 853 811 q 872 789 875 803 q 856 778 869 778 l 844 778 q 742 771 819 778 q 567 756 664 764 q 339 493 450 617 q 128 272 228 369 q 442 324 275 297 q 756 367 608 350 m -17 167 q -17 194 -36 186 l 0 211 q -121 178 -75 194 q -167 144 -167 161 q -103 115 -153 119 q 21 121 -53 111 q 183 151 94 131 q 358 200 272 172 q 521 256 444 228 q 650 311 597 283 q 539 297 606 306 q 394 278 472 289 q 235 253 317 267 q 78 228 153 239 l 11 167 q -17 167 -8 158 z "},"€":{"ha":1494,"x_min":33,"x_max":1361,"o":"m 33 878 q 38 892 33 883 q 50 900 42 900 q 200 933 108 917 q 406 967 292 950 l 408 969 q 410 975 408 972 q 411 983 411 978 q 449 1053 428 1017 q 494 1122 469 1089 q 339 1110 414 1114 q 189 1111 264 1106 q 174 1117 181 1111 q 167 1128 167 1122 q 189 1144 167 1156 q 356 1146 272 1144 q 522 1161 439 1147 q 679 1360 592 1264 q 861 1526 767 1456 q 1050 1638 956 1597 q 1233 1667 1144 1678 q 1315 1625 1286 1658 q 1353 1542 1344 1592 q 1354 1435 1361 1492 q 1331 1325 1347 1378 q 1289 1231 1314 1272 q 1239 1172 1264 1189 q 1225 1168 1233 1167 q 1211 1178 1217 1169 q 1217 1206 1211 1200 q 1257 1256 1236 1219 q 1293 1336 1278 1292 q 1315 1432 1308 1381 q 1317 1525 1322 1483 q 1290 1597 1311 1567 q 1228 1633 1269 1628 q 1065 1606 1150 1642 q 894 1504 981 1569 q 725 1350 808 1439 q 572 1167 642 1261 q 797 1185 686 1175 q 1022 1189 908 1194 q 1039 1167 1039 1189 q 1035 1156 1039 1161 q 1022 1150 1031 1150 q 783 1149 900 1158 q 544 1122 667 1139 l 450 967 q 728 981 589 983 q 972 944 867 978 q 989 922 989 944 q 967 911 978 900 q 715 944 861 944 q 428 928 569 944 q 353 729 369 819 q 367 583 336 639 q 406 543 378 558 q 479 528 433 528 q 593 547 525 528 q 756 611 661 567 q 1024 733 889 669 q 1300 839 1158 797 q 1322 828 1311 850 q 1321 815 1322 819 q 1306 806 1319 811 q 1036 697 1167 758 q 767 572 906 636 q 481 490 586 489 q 333 567 375 492 q 318 721 300 625 q 383 922 336 817 q 197 893 283 908 q 56 861 111 878 q 33 878 33 861 z "},"F":{"ha":1989,"x_min":36,"x_max":2739,"o":"m 544 -411 q 568 -318 531 -381 q 661 -183 606 -256 q 814 13 725 -94 q 1011 244 903 119 l 1222 483 q 1021 458 1117 469 q 849 439 925 447 q 718 425 772 431 q 644 417 664 419 q 622 433 633 411 q 628 444 622 439 q 639 456 633 450 q 717 463 658 458 q 858 475 775 467 q 1043 496 942 483 q 1256 522 1144 508 q 1638 933 1439 722 q 2028 1344 1836 1144 q 2289 1606 2175 1500 l 2322 1633 l 2278 1628 q 1933 1588 2122 1606 q 1544 1544 1744 1569 q 1089 1488 1314 1519 q 672 1410 864 1456 q 336 1303 481 1364 q 128 1156 192 1242 q 93 1040 78 1083 q 172 972 108 997 q 346 936 239 942 q 583 944 453 931 q 839 994 711 961 q 1072 1076 967 1028 q 1251 1185 1178 1125 q 1344 1317 1325 1244 q 1367 1328 1344 1339 q 1378 1324 1372 1328 q 1378 1306 1383 1319 q 1278 1160 1356 1225 q 1088 1044 1200 1094 q 844 960 975 994 q 589 911 714 925 q 346 903 458 897 q 161 939 233 908 q 58 1029 81 969 q 100 1178 36 1089 q 317 1336 167 1269 q 664 1450 467 1403 q 1090 1529 861 1497 q 1544 1583 1319 1561 q 1983 1631 1775 1608 q 2356 1678 2192 1653 l 2372 1678 l 2422 1722 q 2500 1781 2464 1756 q 2567 1822 2536 1806 q 2638 1854 2608 1847 q 2689 1856 2667 1861 q 2726 1831 2714 1850 q 2733 1789 2739 1811 q 2636 1701 2717 1731 q 2433 1650 2556 1672 l 2389 1644 l 2383 1639 q 2238 1503 2319 1583 q 2056 1322 2156 1422 l 1317 533 q 1550 567 1433 547 q 1772 611 1667 586 q 1967 665 1878 636 q 2117 728 2056 694 q 2128 731 2122 733 q 2139 722 2133 728 q 2133 694 2150 703 q 1975 629 2069 658 q 1769 575 1881 600 q 1538 531 1658 550 q 1300 494 1417 511 l 1278 494 q 1156 353 1214 422 q 1039 217 1097 283 q 842 -14 931 94 q 689 -206 753 -122 q 628 -293 650 -258 q 594 -350 606 -328 q 581 -385 583 -372 q 578 -400 578 -397 q 567 -422 583 -414 q 544 -411 556 -433 m 2700 1797 q 2668 1821 2697 1825 q 2597 1796 2639 1817 q 2514 1744 2556 1775 q 2444 1694 2472 1714 l 2444 1689 q 2582 1721 2531 1706 q 2660 1750 2633 1736 q 2693 1776 2686 1764 q 2700 1797 2700 1789 z "},"":{"ha":1658,"x_min":-3,"x_max":2400,"o":"m 417 33 q 604 247 500 133 q 817 478 708 361 q 499 482 611 453 q 378 600 386 511 q 410 707 375 661 q 501 782 444 753 q 629 821 558 811 q 769 817 700 831 q 900 764 839 803 q 1000 661 961 725 q 1228 886 1117 778 q 1431 1085 1339 994 q 1592 1242 1522 1175 q 1694 1344 1661 1308 q 1956 1606 1842 1500 l 1989 1633 l 1944 1628 l 1506 1572 q 1049 1515 1275 1547 q 631 1438 822 1483 q 294 1331 439 1392 q 89 1183 150 1269 q 54 1068 39 1111 q 133 1000 69 1025 q 307 964 200 969 q 544 972 414 958 q 797 1019 669 986 q 1031 1101 925 1053 q 1210 1211 1136 1150 q 1300 1344 1283 1272 q 1322 1356 1311 1367 q 1338 1349 1331 1356 q 1339 1333 1344 1342 q 1238 1188 1317 1253 q 1046 1072 1158 1122 q 801 988 933 1022 q 544 939 669 953 q 307 929 419 925 q 122 967 194 933 q 18 1057 39 997 q 61 1206 -3 1117 q 276 1363 128 1297 q 622 1475 425 1428 q 1047 1554 819 1522 q 1500 1611 1275 1586 q 1682 1631 1617 1622 q 1796 1644 1747 1639 q 1893 1657 1844 1650 q 2022 1678 1942 1664 l 2039 1678 l 2089 1722 q 2167 1781 2131 1756 q 2233 1822 2203 1806 q 2304 1854 2275 1847 q 2356 1856 2333 1861 q 2390 1831 2381 1850 q 2400 1789 2400 1811 q 2376 1740 2400 1761 q 2311 1703 2353 1719 q 2215 1674 2269 1686 q 2100 1650 2161 1661 l 2056 1644 l 2050 1639 q 1904 1503 1986 1583 q 1722 1322 1822 1422 q 1590 1192 1667 1267 q 1422 1026 1514 1117 q 1226 835 1331 936 q 1017 628 1122 733 q 1035 586 1031 606 q 1044 544 1039 567 q 1261 578 1153 558 q 1467 619 1369 597 q 1646 669 1564 642 q 1783 728 1728 697 q 1794 731 1789 733 q 1806 722 1800 728 q 1800 694 1817 703 q 1654 633 1739 661 q 1469 583 1569 606 q 1261 542 1369 561 q 1044 506 1153 522 q 1007 301 1050 417 q 890 67 964 186 q 722 -165 817 -53 q 532 -361 628 -278 q 351 -487 436 -444 q 211 -511 267 -531 q 151 -453 158 -497 q 165 -350 144 -408 q 225 -228 186 -292 q 304 -108 264 -164 q 376 -14 344 -53 q 417 33 408 25 m 444 11 q 411 -32 442 6 q 340 -121 381 -69 q 261 -233 300 -172 q 200 -347 222 -294 q 182 -439 178 -400 q 233 -483 186 -478 q 356 -447 281 -492 q 517 -326 431 -403 q 690 -147 603 -250 q 849 67 778 -44 q 964 290 919 178 q 1011 500 1008 403 l 878 478 q 646 238 756 356 q 444 11 536 119 m 978 633 q 881 740 942 703 q 751 788 819 778 q 615 783 683 797 q 497 739 547 769 q 424 667 447 708 q 422 578 400 625 q 481 528 436 544 q 586 506 525 511 q 718 504 647 500 q 856 517 789 508 l 978 633 m 2367 1789 q 2360 1811 2367 1806 q 2344 1822 2353 1817 q 2313 1821 2336 1828 q 2256 1789 2289 1814 q 2189 1750 2225 1772 q 2111 1694 2153 1728 l 2111 1689 l 2122 1694 q 2247 1722 2200 1708 q 2321 1749 2294 1736 q 2357 1771 2347 1761 q 2367 1789 2367 1781 m 1011 539 l 989 600 l 917 522 l 1011 539 z "},"":{"ha":1042,"x_min":-358,"x_max":2156,"o":"m 344 1617 q 592 1675 453 1644 q 875 1735 731 1706 q 1158 1790 1019 1764 q 1408 1833 1297 1817 l 1433 1856 q 1478 1868 1464 1878 q 1478 1844 1492 1858 l 1511 1850 q 1881 1886 1719 1881 q 2139 1867 2042 1892 q 2150 1857 2144 1861 q 2150 1844 2156 1853 q 2122 1833 2139 1825 q 1889 1849 2050 1850 q 1522 1817 1728 1847 l 1425 1803 q 1304 1688 1369 1753 q 1167 1544 1239 1622 l 733 1083 q 1093 1119 922 1111 q 1367 1117 1264 1128 q 1389 1099 1392 1111 q 1353 1086 1386 1086 q 1035 1088 1203 1100 q 697 1044 867 1075 q 410 733 547 886 q 150 439 272 581 q -47 208 42 317 q -200 17 -136 100 q -261 -71 -239 -36 q -294 -128 -283 -106 q -308 -162 -306 -150 q -311 -178 -311 -175 q -322 -200 -306 -192 q -344 -189 -333 -211 q -321 -96 -358 -158 q -228 39 -283 -33 q -75 235 -164 128 q 122 467 14 342 q 368 740 239 597 q 639 1033 497 883 q 378 975 497 1008 q 172 906 258 942 q 139 906 153 900 q 135 925 125 919 q 150 939 144 931 q 389 1017 253 983 q 672 1072 525 1050 q 906 1322 789 1197 q 1139 1567 1022 1447 q 1257 1689 1203 1633 q 1361 1792 1311 1744 q 1115 1747 1247 1772 q 849 1694 983 1722 q 588 1638 714 1667 q 361 1583 461 1608 q 317 1589 322 1569 q 344 1617 311 1608 z "},"G":{"ha":1944,"x_min":228,"x_max":2294,"o":"m 756 717 q 744 744 739 725 q 749 756 744 750 q 767 756 753 761 l 778 744 q 792 744 783 744 q 817 739 800 744 q 864 742 839 739 q 922 744 889 744 q 1063 763 986 753 q 1228 789 1139 772 q 1565 864 1400 822 q 1828 944 1731 906 q 1839 943 1833 944 q 1850 933 1844 942 q 1839 911 1856 919 q 1746 875 1800 894 q 1628 839 1692 856 l 1628 836 q 1622 833 1628 833 l 1628 833 l 1611 817 l 1594 806 q 1435 608 1486 692 q 1406 500 1383 525 q 1479 476 1425 472 q 1604 503 1533 481 q 1756 563 1675 525 q 1908 639 1836 600 q 2038 713 1981 678 q 2122 767 2094 747 q 2150 761 2144 767 q 2144 733 2161 742 q 2013 649 2086 692 q 1860 568 1939 606 q 1703 500 1781 531 q 1560 454 1625 469 q 1446 443 1494 439 q 1378 478 1397 447 q 1361 538 1361 500 q 1417 650 1361 575 q 1307 575 1358 611 q 1203 504 1256 539 q 1093 436 1150 469 q 967 367 1036 403 q 738 263 853 308 q 524 201 622 217 q 353 211 425 186 q 256 322 281 236 q 271 565 228 417 q 418 879 314 714 q 681 1210 522 1044 q 1044 1506 839 1375 q 1458 1718 1250 1639 q 1838 1822 1667 1797 q 2126 1822 2008 1847 q 2272 1722 2244 1797 q 2253 1588 2294 1661 q 2126 1442 2211 1514 q 1926 1303 2042 1369 q 1690 1188 1811 1236 q 1454 1113 1569 1139 q 1256 1094 1339 1086 q 1226 1117 1222 1100 q 1256 1128 1231 1133 q 1444 1146 1336 1122 q 1667 1214 1553 1169 q 1889 1319 1781 1258 q 2079 1447 1997 1381 q 2204 1579 2161 1514 q 2233 1700 2247 1644 q 2103 1790 2217 1769 q 1821 1783 1989 1811 q 1453 1679 1653 1756 q 1067 1478 1253 1603 q 706 1181 861 1344 q 450 857 550 1017 q 308 558 350 697 q 289 333 267 419 q 369 246 308 267 q 518 238 431 225 q 715 293 606 250 q 944 400 825 336 q 1126 504 1036 447 q 1296 617 1217 561 q 1440 721 1375 672 q 1544 800 1506 769 l 1550 811 l 1567 828 q 1401 788 1486 806 q 1233 756 1317 769 q 1067 728 1144 739 q 922 711 989 717 q 867 703 892 706 q 817 700 842 700 q 756 717 772 700 z "},"":{"ha":1544,"x_min":-67,"x_max":2011,"o":"m -22 -267 q 261 -47 53 -167 q 806 256 469 72 q 921 379 872 325 q 1010 479 969 433 q 1083 567 1050 525 q 1156 656 1117 608 q 1046 576 1097 614 q 940 504 994 539 q 828 436 886 469 q 700 367 769 403 q 471 263 586 308 q 257 201 356 217 q 86 211 158 186 q -11 322 14 236 q 7 564 -39 417 q 157 875 53 711 q 418 1204 261 1039 q 772 1500 575 1369 q 1157 1721 964 1628 q 1514 1860 1350 1814 q 1799 1893 1678 1906 q 1967 1794 1919 1881 q 1979 1626 2011 1717 q 1868 1443 1947 1536 q 1674 1258 1789 1350 q 1433 1089 1558 1167 q 1186 953 1317 1017 q 942 851 1056 889 q 743 815 828 814 q 633 872 658 817 q 639 957 619 908 q 700 1057 658 1006 q 800 1160 742 1108 q 922 1251 858 1211 q 1053 1317 986 1292 q 1178 1344 1119 1342 q 1200 1322 1200 1344 q 1196 1311 1200 1317 q 1178 1306 1192 1306 q 1063 1281 1125 1306 q 939 1217 1000 1256 q 825 1132 878 1178 q 733 1039 772 1086 q 676 950 694 992 q 672 883 658 908 q 751 851 686 853 q 922 883 817 850 q 1151 976 1028 917 q 1406 1111 1275 1036 q 1658 1290 1544 1197 q 1844 1471 1772 1383 q 1943 1640 1917 1558 q 1933 1789 1969 1722 q 1790 1858 1894 1850 q 1533 1826 1686 1867 q 1190 1699 1381 1786 q 794 1478 1000 1611 q 440 1178 594 1342 q 186 856 286 1014 q 43 558 86 697 q 22 333 0 419 q 103 246 42 267 q 251 238 164 225 q 449 293 339 250 q 678 400 558 336 q 883 515 786 453 q 1058 632 981 578 q 1188 729 1136 686 q 1256 789 1239 772 l 1261 789 q 1289 796 1275 806 q 1294 772 1303 786 q 1128 560 1231 675 q 911 311 1025 444 q 1401 572 1211 472 q 1700 739 1592 672 q 1719 743 1706 744 q 1733 733 1733 742 q 1729 717 1739 725 q 1711 700 1719 708 q 1535 597 1639 653 q 1310 479 1431 542 q 1065 353 1189 417 q 833 228 942 289 l 811 200 q 621 -7 728 97 q 404 -199 514 -111 q 193 -344 294 -286 q 22 -411 92 -403 q -42 -404 -22 -417 q -64 -371 -61 -392 q -56 -322 -67 -350 q -22 -267 -44 -294 m 744 178 q 421 -3 567 81 q 171 -154 275 -86 q 14 -276 67 -222 q -28 -367 -39 -331 q 82 -361 3 -392 q 268 -256 161 -331 q 499 -69 375 -181 q 744 178 622 42 z "},"":{"ha":1728,"x_min":-36,"x_max":2297,"o":"m 756 767 q 779 779 764 775 q 811 789 794 783 q 863 792 836 789 q 922 794 889 794 q 1064 797 986 800 q 1233 789 1142 794 q 1506 772 1364 789 l 1589 839 l 1589 844 q 1617 850 1603 858 q 1622 833 1631 842 q 1632 818 1631 828 q 1617 794 1633 808 q 1594 781 1603 789 q 1572 767 1586 772 q 1731 747 1656 758 q 1856 722 1806 736 q 1867 713 1861 717 q 1872 700 1872 708 q 1850 689 1856 683 q 1708 714 1792 703 q 1528 739 1625 725 q 1301 519 1392 642 q 1160 282 1211 397 q 1090 74 1108 167 q 1083 -56 1072 -19 q 1071 -79 1092 -81 q 1044 -61 1050 -78 q 1053 69 1039 -6 q 1100 228 1067 144 q 1183 399 1133 311 q 1300 567 1233 486 q 1143 467 1219 517 q 967 367 1067 417 q 738 263 853 308 q 524 201 622 217 q 353 211 425 186 q 256 322 281 236 q 249 458 239 381 q 293 628 258 536 q 385 819 328 719 q 522 1022 442 919 q 238 1076 372 1036 q -11 1189 103 1117 q -24 1222 -36 1206 q 11 1222 -11 1239 q 253 1106 117 1147 q 544 1056 389 1064 q 769 1293 644 1178 q 1044 1506 894 1408 q 1458 1718 1250 1639 q 1839 1822 1667 1797 q 2129 1822 2011 1847 q 2272 1722 2247 1797 q 2236 1558 2297 1644 q 2053 1389 2175 1472 q 1757 1232 1931 1306 q 1386 1106 1583 1158 q 978 1028 1189 1053 q 567 1017 767 1003 q 426 815 486 914 q 332 628 367 717 q 286 463 297 539 q 289 333 275 386 q 369 246 308 267 q 518 238 431 225 q 715 293 606 250 q 944 400 825 336 q 1235 572 1094 475 q 1467 744 1375 669 l 1233 756 q 922 756 1053 764 q 864 756 889 756 q 822 750 839 756 q 792 744 794 744 l 783 744 l 778 733 q 775 728 778 731 q 767 722 769 722 q 744 739 744 722 q 756 767 736 756 m 2233 1700 q 2110 1789 2222 1769 q 1828 1781 1997 1808 q 1456 1676 1658 1753 q 1067 1478 1253 1600 q 806 1272 925 1381 q 589 1050 686 1164 q 972 1064 775 1039 q 1357 1138 1169 1089 q 1710 1253 1544 1186 q 1996 1394 1875 1319 q 2181 1549 2117 1469 q 2233 1700 2244 1628 z "},"H":{"ha":3006,"x_min":25,"x_max":3572,"o":"m 747 1158 q 726 1167 739 1161 q 714 1186 714 1172 q 717 1192 714 1189 q 731 1197 722 1197 q 899 1188 775 1175 q 1194 1239 1022 1200 q 1571 1342 1367 1278 q 1979 1488 1775 1406 q 2372 1665 2183 1569 q 2703 1867 2561 1761 q 2717 1879 2708 1875 q 2731 1883 2725 1883 q 2742 1861 2739 1869 q 2731 1844 2744 1853 q 2586 1696 2658 1772 q 2429 1532 2514 1619 q 2242 1342 2344 1444 q 2011 1117 2139 1239 q 2211 1140 2108 1131 q 2414 1157 2314 1150 q 2606 1168 2514 1164 q 2772 1178 2697 1172 q 3011 1421 2892 1306 q 3235 1629 3131 1536 q 3418 1786 3339 1722 q 3539 1872 3497 1850 q 3551 1871 3544 1872 q 3567 1861 3558 1869 q 3568 1847 3572 1856 q 3556 1833 3564 1839 q 3444 1753 3517 1811 q 3276 1607 3372 1694 q 3067 1410 3181 1519 q 2833 1178 2953 1300 q 2997 1182 2925 1183 q 3111 1167 3069 1181 q 3122 1144 3131 1167 q 3111 1133 3117 1136 q 3100 1139 3106 1131 q 2974 1149 3050 1147 q 2800 1144 2897 1150 l 2633 961 q 2482 765 2533 847 q 2410 628 2431 683 q 2392 540 2389 572 q 2406 492 2394 508 q 2488 468 2428 464 q 2624 497 2547 472 q 2786 558 2700 522 q 2946 629 2872 594 q 3071 692 3019 664 q 3133 728 3122 719 q 3167 725 3158 744 q 3161 700 3175 706 q 3081 653 3136 683 q 2953 589 3025 622 q 2800 522 2881 556 q 2644 467 2719 489 q 2506 435 2569 444 q 2406 442 2442 425 q 2360 483 2381 453 q 2350 575 2339 514 q 2414 733 2361 636 q 2589 972 2467 831 l 2739 1139 q 2565 1128 2658 1133 q 2372 1114 2472 1122 q 2168 1096 2272 1106 q 1967 1072 2064 1086 q 1738 869 1858 972 q 1488 668 1617 767 q 1225 482 1358 569 q 958 328 1092 394 q 774 249 878 286 q 563 185 669 211 q 354 147 456 158 q 178 147 253 136 q 64 196 103 158 q 42 306 25 233 q 147 450 58 372 q 378 607 236 528 q 703 764 519 686 q 1090 908 886 842 q 1511 1026 1294 975 q 1933 1106 1728 1078 q 2113 1276 2033 1200 q 2261 1424 2192 1353 q 2397 1563 2331 1494 q 2539 1711 2464 1631 q 2249 1558 2411 1633 q 1913 1417 2086 1483 q 1563 1296 1739 1350 q 1231 1207 1386 1242 q 949 1158 1075 1172 q 747 1158 822 1144 m 1883 1061 q 1215 901 1531 997 q 658 699 900 806 q 264 488 417 592 q 86 306 111 383 q 103 219 67 247 q 208 186 139 192 q 374 193 278 181 q 571 232 469 206 q 769 293 672 258 q 942 367 867 328 q 1200 517 1069 431 q 1454 696 1331 603 q 1688 883 1578 789 q 1883 1061 1797 978 z "},"":{"ha":1967,"x_min":-33,"x_max":2586,"o":"m -22 178 q -7 261 -33 219 q 72 344 19 303 q 199 428 125 386 q 361 511 272 469 q 554 594 450 553 q 772 683 658 636 l 872 722 l 978 828 q 1194 1061 1094 942 q 1365 1293 1294 1181 q 1474 1508 1436 1406 q 1500 1694 1511 1611 l 1483 1739 l 1450 1789 q 1317 1872 1397 1844 q 1143 1904 1236 1900 q 950 1888 1050 1908 q 760 1826 850 1867 q 593 1725 669 1786 q 472 1589 517 1664 q 426 1425 425 1511 q 472 1271 428 1339 q 597 1164 517 1203 q 789 1144 678 1125 q 811 1122 800 1144 q 789 1100 811 1111 q 576 1128 667 1083 q 439 1251 486 1172 q 389 1426 392 1331 q 439 1611 386 1522 q 668 1819 517 1736 q 986 1929 819 1903 q 1300 1915 1153 1956 q 1517 1756 1447 1875 q 1524 1549 1553 1664 q 1419 1307 1494 1433 q 1236 1049 1344 1181 q 1006 794 1128 917 l 961 756 l 1011 772 q 1129 819 1069 797 q 1256 867 1189 842 l 1428 939 l 1456 972 q 1772 1276 1614 1139 q 2072 1511 1931 1414 q 2244 1615 2161 1572 q 2396 1678 2328 1658 q 2513 1688 2464 1697 q 2583 1633 2561 1678 l 2583 1628 q 2496 1449 2586 1539 q 2254 1269 2406 1358 q 1906 1093 2103 1181 q 1500 922 1708 1006 l 1450 906 l 1383 833 q 1333 771 1358 800 q 1283 711 1308 742 q 1133 483 1161 564 q 1121 428 1117 444 q 1133 406 1125 411 q 1247 404 1164 389 q 1447 457 1331 419 q 1704 551 1564 494 q 1989 678 1844 608 q 2000 676 1994 678 q 2011 667 2006 675 q 2000 639 2011 644 q 1738 524 1875 581 q 1476 425 1600 467 q 1257 367 1353 383 q 1122 372 1161 350 q 1099 494 1058 403 q 1256 733 1139 586 q 1306 796 1281 767 q 1356 856 1331 825 l 1372 878 l 1267 833 q 1083 767 1175 800 q 900 694 992 733 l 889 689 l 856 661 q 561 414 706 522 q 294 233 417 306 q 185 175 239 200 q 88 139 131 150 q 15 136 44 128 q -22 178 -14 144 m 2156 1256 q 2421 1421 2319 1339 q 2544 1583 2522 1503 l 2544 1633 q 2390 1639 2506 1675 q 2094 1478 2275 1603 q 1589 1056 1861 1328 l 1500 967 l 1733 1056 q 1957 1156 1850 1106 q 2156 1256 2064 1206 m 78 178 q 165 207 117 186 q 278 267 214 228 q 468 390 361 317 q 683 561 575 464 l 786 650 q 567 561 669 603 q 372 478 464 519 q 90 317 183 389 q 11 189 -3 244 q 25 172 11 175 q 78 178 39 169 z "},"":{"ha":1967,"x_min":-33,"x_max":2586,"o":"m -22 178 q -7 261 -33 219 q 72 344 19 303 q 199 428 125 386 q 361 511 272 469 q 554 594 450 553 q 772 683 658 636 l 872 722 l 978 828 q 1194 1061 1094 942 q 1365 1293 1294 1181 q 1474 1508 1436 1406 q 1500 1694 1511 1611 l 1483 1739 l 1450 1789 q 1317 1872 1397 1844 q 1142 1904 1236 1900 q 949 1889 1047 1908 q 758 1829 850 1869 q 592 1728 667 1789 q 472 1589 517 1667 q 438 1485 442 1542 q 450 1378 433 1428 q 507 1293 467 1328 q 611 1256 547 1258 q 708 1267 650 1256 q 829 1311 767 1278 q 949 1410 892 1344 q 1044 1583 1006 1475 q 1058 1608 1053 1606 q 1078 1611 1064 1611 q 1085 1599 1078 1606 q 1078 1567 1092 1592 q 981 1390 1042 1458 q 851 1285 919 1322 q 718 1233 783 1247 q 611 1222 653 1219 q 488 1265 536 1225 q 417 1364 439 1306 q 400 1489 394 1422 q 439 1611 406 1556 q 668 1819 517 1736 q 986 1929 819 1903 q 1300 1915 1153 1956 q 1517 1756 1447 1875 q 1524 1549 1553 1664 q 1419 1307 1494 1433 q 1236 1049 1344 1181 q 1006 794 1128 917 l 961 756 l 1011 772 q 1129 819 1069 797 q 1256 867 1189 842 l 1428 939 l 1456 972 q 1772 1276 1614 1139 q 2072 1511 1931 1414 q 2244 1615 2161 1572 q 2396 1678 2328 1658 q 2513 1688 2464 1697 q 2583 1633 2561 1678 l 2583 1628 q 2496 1449 2586 1539 q 2254 1269 2406 1358 q 1906 1093 2103 1181 q 1500 922 1708 1006 l 1450 906 l 1383 833 q 1333 771 1358 800 q 1283 711 1308 742 q 1133 483 1161 564 q 1121 428 1117 444 q 1133 406 1125 411 q 1247 404 1164 389 q 1447 457 1331 419 q 1704 551 1564 494 q 1989 678 1844 608 q 2000 676 1994 678 q 2011 667 2006 675 q 2000 639 2011 644 q 1738 524 1875 581 q 1476 425 1600 467 q 1257 367 1353 383 q 1122 372 1161 350 q 1099 494 1058 403 q 1256 733 1139 586 q 1306 796 1281 767 q 1356 856 1331 825 l 1372 878 l 1267 833 q 1083 767 1175 800 q 900 694 992 733 l 889 689 l 856 661 q 561 414 706 522 q 294 233 417 306 q 185 175 239 200 q 88 139 131 150 q 15 136 44 128 q -22 178 -14 144 m 2156 1256 q 2421 1421 2319 1339 q 2544 1583 2522 1503 l 2544 1633 q 2390 1639 2506 1675 q 2094 1478 2275 1603 q 1589 1056 1861 1328 l 1500 967 l 1733 1056 q 1957 1156 1850 1106 q 2156 1256 2064 1206 m 78 178 q 165 207 117 186 q 278 267 214 228 q 468 390 361 317 q 683 561 575 464 l 786 650 q 567 561 669 603 q 372 478 464 519 q 90 317 183 389 q 11 189 -3 244 q 25 172 11 175 q 78 178 39 169 z "},"":{"ha":1967,"x_min":-36,"x_max":2586,"o":"m -28 178 q -10 263 -36 219 q 69 347 17 306 q 196 431 122 389 q 356 511 269 472 q 551 597 447 553 q 772 689 656 642 l 872 722 l 994 844 q 1211 1082 1111 961 q 1381 1315 1311 1203 q 1483 1528 1450 1428 q 1500 1706 1517 1628 l 1483 1750 l 1450 1800 q 1247 1903 1375 1883 q 982 1885 1119 1922 q 721 1751 844 1847 q 528 1511 597 1656 q 490 1374 497 1447 q 500 1238 483 1300 q 554 1131 517 1175 q 656 1078 592 1086 q 818 1110 739 1067 q 958 1228 897 1153 q 1054 1399 1019 1303 q 1083 1589 1089 1494 q 1089 1604 1083 1597 q 1100 1611 1094 1611 q 1122 1594 1122 1611 q 1089 1392 1125 1494 q 986 1207 1053 1289 q 832 1076 919 1125 q 650 1039 744 1028 q 526 1101 572 1050 q 464 1225 481 1153 q 457 1378 447 1297 q 500 1528 467 1458 q 717 1792 575 1689 q 1013 1931 858 1894 q 1306 1928 1167 1967 q 1517 1767 1444 1889 q 1536 1568 1561 1681 q 1438 1331 1511 1456 q 1254 1074 1364 1206 q 1017 817 1144 942 l 961 761 l 1011 778 q 1129 825 1069 803 q 1256 878 1189 847 l 1417 939 l 1422 944 q 1764 1344 1589 1181 q 2094 1600 1939 1508 q 2260 1681 2181 1650 q 2404 1718 2339 1711 q 2515 1707 2469 1725 q 2583 1644 2561 1689 l 2583 1639 q 2496 1456 2586 1547 q 2254 1275 2406 1364 q 1906 1100 2103 1186 q 1500 933 1708 1014 l 1439 906 l 1361 789 q 1299 654 1311 706 q 1300 578 1286 603 q 1433 522 1328 522 q 1700 567 1547 522 q 1983 678 1853 611 q 1997 676 1989 678 q 2011 667 2006 675 q 2000 644 2011 650 q 1858 585 1933 614 q 1708 533 1783 556 q 1563 499 1633 511 q 1433 489 1492 486 q 1333 504 1378 489 q 1267 567 1289 519 q 1264 665 1250 606 q 1328 806 1278 725 l 1383 883 l 1267 839 q 1082 767 1175 800 q 900 700 989 733 l 894 694 l 872 678 q 572 426 722 539 q 300 239 422 314 q 189 179 244 206 q 88 140 133 153 q 11 135 42 128 q -28 178 -19 142 m 2150 1261 q 2417 1432 2314 1350 q 2544 1594 2519 1514 l 2544 1633 l 2528 1656 q 2379 1676 2486 1694 q 2117 1567 2272 1658 q 1839 1364 1986 1492 q 1544 1056 1692 1236 l 1478 967 l 1500 967 q 1846 1115 1681 1042 q 2150 1261 2011 1189 m 78 178 q 165 210 117 186 q 278 272 214 233 q 476 404 369 328 q 700 572 583 481 l 789 656 q 568 563 672 606 q 372 478 464 519 q 90 317 183 389 q 11 189 -3 244 q 25 172 11 175 q 78 178 39 169 z "},"":{"ha":1967,"x_min":-33,"x_max":2586,"o":"m -22 178 q -7 263 -33 219 q 72 347 19 306 q 199 431 125 389 q 361 511 272 472 q 554 597 450 553 q 772 689 658 642 l 844 717 l 939 806 q 1143 1025 1050 917 q 1299 1233 1236 1133 q 1390 1418 1361 1333 q 1400 1567 1419 1503 l 1383 1600 l 1367 1617 q 1257 1657 1325 1650 q 1103 1647 1189 1664 q 919 1594 1017 1631 q 722 1506 822 1558 q 525 1385 617 1450 q 363 1251 433 1319 q 251 1115 292 1183 q 211 989 211 1047 q 317 922 219 922 q 431 950 367 928 q 567 1006 494 972 q 706 1086 636 1042 q 829 1179 775 1131 q 921 1276 883 1228 q 967 1367 958 1325 q 944 1411 967 1411 q 921 1431 919 1411 q 956 1439 922 1450 q 1000 1367 1008 1431 q 956 1263 994 1317 q 858 1156 917 1208 q 726 1056 800 1103 q 583 972 653 1008 q 442 911 511 933 q 317 889 372 889 q 221 904 258 883 q 178 989 183 925 q 219 1129 175 1056 q 338 1276 264 1203 q 507 1419 411 1350 q 706 1544 603 1489 q 915 1636 808 1597 q 1118 1690 1022 1675 q 1292 1690 1214 1706 q 1411 1622 1369 1675 l 1411 1617 q 1435 1453 1456 1550 q 1347 1243 1414 1356 q 1179 1010 1281 1131 q 961 772 1078 889 l 939 750 l 1011 783 q 1129 829 1069 806 q 1256 878 1189 853 l 1417 939 l 1422 944 q 1765 1344 1589 1181 q 2100 1600 1942 1508 q 2263 1683 2183 1653 q 2407 1721 2342 1714 q 2518 1711 2472 1728 q 2583 1650 2564 1694 l 2583 1639 q 2496 1456 2586 1547 q 2254 1275 2406 1364 q 1906 1100 2103 1186 q 1500 933 1708 1014 l 1439 906 l 1361 789 q 1299 657 1311 706 q 1300 578 1286 608 q 1433 522 1328 522 q 1558 535 1489 522 q 1701 568 1628 547 q 1849 618 1775 589 q 1989 678 1922 647 q 2000 681 1994 683 q 2011 672 2006 678 q 2000 644 2011 650 q 1858 585 1933 614 q 1708 533 1783 556 q 1563 499 1633 511 q 1433 489 1492 486 q 1333 504 1378 489 q 1267 567 1289 519 q 1264 665 1250 606 q 1328 806 1278 725 l 1383 883 l 1267 839 q 1083 767 1175 800 q 900 700 992 733 l 867 683 l 828 650 q 540 410 681 519 q 283 233 400 300 q 179 175 231 200 q 86 139 128 150 q 15 136 44 128 q -22 178 -14 144 m 2156 1261 q 2421 1435 2319 1350 q 2544 1594 2522 1519 l 2544 1633 l 2528 1656 q 2379 1676 2486 1694 q 2117 1567 2272 1658 q 1839 1364 1986 1492 q 1544 1056 1692 1236 l 1478 967 l 1500 967 q 1847 1115 1681 1042 q 2156 1261 2014 1189 m 78 172 q 160 207 111 186 q 267 261 208 228 q 453 389 350 317 q 656 550 556 461 l 767 650 l 678 611 q 517 544 594 578 q 372 478 439 511 q 90 317 183 389 q 11 189 -3 244 q 25 171 11 175 q 78 172 39 167 z "},"":{"ha":2183,"x_min":-636,"x_max":2972,"o":"m 1022 -78 q 1132 154 1031 11 q 1389 472 1233 297 q 1068 435 1225 450 q 761 394 911 419 l 656 378 l 639 367 q 304 111 475 225 q -33 -78 133 -3 q -381 -165 -233 -169 q -578 -94 -528 -161 q -561 79 -636 -14 q -272 244 -486 172 q 100 336 -117 300 q 578 411 317 372 l 633 417 l 767 539 q 988 763 883 647 q 1189 994 1092 878 q 1401 1304 1311 1153 q 1542 1586 1492 1456 q 1600 1821 1592 1717 q 1567 1989 1608 1925 q 1439 2044 1528 2044 q 1232 2003 1350 2044 q 978 1882 1114 1961 q 706 1700 842 1803 q 458 1489 569 1597 q 276 1283 347 1381 q 185 1108 206 1186 q 211 989 164 1031 q 278 971 231 967 q 389 1000 325 975 q 531 1068 453 1025 q 694 1172 608 1111 q 847 1293 772 1228 q 985 1425 922 1358 q 1090 1556 1047 1492 q 1150 1672 1133 1619 q 1154 1704 1158 1697 q 1150 1717 1150 1711 q 1139 1717 1144 1717 q 1128 1711 1133 1717 q 1114 1703 1122 1703 q 1100 1711 1106 1703 q 1100 1739 1081 1731 q 1133 1756 1114 1753 q 1169 1749 1153 1758 q 1193 1715 1186 1739 q 1189 1656 1200 1692 q 1126 1533 1172 1600 q 1015 1399 1081 1467 q 872 1264 950 1331 q 717 1139 794 1197 q 558 1036 639 1083 q 406 960 478 989 q 275 928 333 931 q 183 956 217 925 q 143 1110 119 1017 q 243 1310 167 1203 q 436 1526 319 1417 q 678 1733 553 1636 q 947 1911 806 1828 q 1218 2040 1089 1994 q 1449 2085 1347 2086 q 1600 2011 1550 2083 q 1644 1822 1653 1936 q 1582 1571 1636 1708 q 1432 1279 1528 1433 q 1217 967 1336 1125 q 1018 735 1125 850 q 794 506 911 619 l 711 433 l 756 433 q 1085 479 914 464 q 1422 517 1256 494 q 1617 721 1514 617 q 1833 933 1719 825 q 2150 1233 1989 1086 q 2457 1510 2311 1381 q 2728 1742 2603 1639 q 2939 1906 2853 1844 q 2953 1910 2944 1911 q 2967 1900 2961 1908 q 2969 1886 2972 1894 q 2961 1878 2967 1878 q 2754 1710 2878 1814 q 2485 1476 2631 1606 q 2178 1200 2339 1347 q 1861 900 2017 1053 q 1667 706 1761 800 q 1489 522 1572 611 q 1931 596 1714 547 q 2339 744 2147 644 q 2353 743 2344 744 q 2367 733 2361 742 q 2365 715 2367 725 q 2356 700 2364 706 q 1925 554 2156 600 q 1450 478 1694 508 q 1181 147 1286 294 q 1061 -83 1075 0 q 1039 -100 1061 -100 q 1024 -93 1031 -100 q 1022 -78 1017 -86 m -56 -44 q 200 92 75 14 q 450 261 325 169 l 578 367 l 417 344 q 39 281 211 311 q -256 211 -133 250 q -429 132 -364 172 q -525 54 -494 92 q -558 -15 -556 17 q -544 -67 -561 -47 q -486 -108 -528 -92 q -382 -126 -444 -125 q -236 -110 -319 -128 q -56 -44 -153 -92 z "},"":{"ha":2656,"x_min":0,"x_max":3572,"o":"m 833 1189 q 1058 1069 956 1147 q 1233 883 1161 992 q 1542 947 1367 914 q 1900 1011 1717 981 q 2208 1386 2067 1200 q 2467 1722 2350 1572 q 2206 1563 2356 1647 q 1901 1407 2056 1478 q 1611 1286 1747 1336 q 1394 1233 1475 1236 q 1381 1238 1389 1233 q 1372 1256 1372 1242 q 1375 1261 1372 1258 q 1389 1267 1381 1267 q 1543 1306 1450 1275 q 1744 1382 1636 1336 q 1967 1483 1853 1428 q 2189 1596 2081 1539 q 2389 1708 2297 1653 q 2544 1811 2481 1764 q 2567 1822 2544 1833 q 2574 1806 2572 1814 q 2567 1789 2575 1797 q 2444 1635 2511 1722 q 2301 1447 2378 1547 q 2140 1239 2225 1347 q 1961 1022 2056 1131 q 2363 1074 2167 1053 q 2717 1100 2558 1094 q 2972 1364 2844 1236 q 3211 1596 3100 1492 q 3407 1774 3322 1700 q 3539 1872 3492 1847 q 3551 1871 3544 1872 q 3567 1861 3558 1869 q 3568 1847 3572 1856 q 3556 1833 3564 1839 q 3433 1744 3514 1811 q 3247 1579 3353 1678 q 3018 1357 3142 1481 q 2767 1100 2894 1233 q 2900 1099 2842 1100 q 3000 1083 2958 1097 q 3013 1076 3008 1078 q 3011 1061 3017 1075 q 3000 1050 3006 1053 q 2989 1056 2994 1047 q 2878 1065 2942 1064 q 2733 1061 2814 1067 l 2617 939 q 2479 790 2561 883 q 2313 599 2397 697 q 2151 410 2228 500 q 2033 267 2075 319 l 1983 167 q 1972 144 1992 144 q 1958 149 1967 144 q 1944 161 1950 153 l 1944 167 q 1964 217 1950 189 q 2011 283 1978 244 q 2128 442 2050 344 q 2293 639 2206 539 q 2463 829 2381 739 q 2594 972 2544 919 l 2678 1061 q 2321 1029 2519 1053 q 1922 972 2122 1006 q 1633 674 1783 817 q 1317 422 1483 531 q 1247 226 1294 325 q 1111 22 1200 128 q 1085 19 1097 14 q 1089 56 1072 25 q 1208 228 1164 144 q 1278 394 1253 311 q 911 225 1097 281 q 528 194 725 169 q 256 286 364 219 q 88 443 147 353 q 14 638 28 533 q 29 842 0 742 q 128 1028 58 942 q 300 1167 197 1114 q 538 1229 403 1219 q 833 1189 672 1239 m 967 811 q 1058 840 1000 825 q 1189 878 1117 856 q 1029 1043 1125 975 q 828 1150 933 1111 q 554 1193 681 1200 q 331 1138 428 1186 q 168 1010 233 1089 q 72 838 103 931 q 51 646 42 744 q 115 464 61 547 q 271 318 169 381 q 528 233 372 256 q 918 268 728 208 q 1283 444 1108 328 q 1283 654 1306 553 q 1211 839 1261 756 q 1078 807 1136 822 q 978 778 1019 792 q 953 790 956 769 q 967 811 950 811 m 1250 850 q 1318 672 1297 767 q 1322 472 1339 578 q 1604 699 1469 572 q 1861 967 1739 825 q 1538 908 1694 936 q 1250 850 1381 881 z "},"":{"ha":3006,"x_min":-6,"x_max":3572,"o":"m 1522 1278 q 1500 1300 1500 1278 q 1503 1306 1500 1303 q 1517 1311 1508 1311 q 1685 1354 1581 1319 q 1911 1440 1789 1389 q 2167 1557 2033 1492 q 2426 1693 2300 1622 q 2663 1835 2553 1764 q 2850 1972 2772 1906 q 2864 1985 2856 1981 q 2878 1989 2872 1989 q 2889 1967 2886 1975 q 2878 1950 2892 1958 q 2717 1781 2806 1878 q 2522 1571 2628 1683 q 2297 1335 2417 1458 q 2050 1089 2178 1211 q 2435 1144 2247 1119 q 2772 1178 2622 1169 q 3011 1421 2892 1306 q 3235 1629 3131 1536 q 3418 1786 3339 1722 q 3539 1872 3497 1850 q 3551 1871 3544 1872 q 3567 1861 3558 1869 q 3568 1847 3572 1856 q 3556 1833 3564 1839 q 3444 1753 3517 1811 q 3276 1607 3372 1694 q 3067 1410 3181 1519 q 2833 1178 2953 1300 q 2997 1182 2925 1183 q 3111 1167 3069 1181 q 3122 1144 3131 1167 q 3111 1133 3117 1136 q 3100 1139 3106 1131 q 2974 1149 3050 1147 q 2800 1144 2897 1150 l 2633 961 q 2482 767 2533 847 q 2411 632 2431 686 q 2396 547 2392 578 q 2411 500 2400 517 q 2493 476 2433 472 q 2629 504 2553 481 q 2789 563 2706 528 q 2946 632 2872 597 q 3071 693 3019 667 q 3133 728 3122 719 q 3167 725 3158 744 q 3161 700 3175 706 q 3019 622 3122 675 q 2796 522 2917 569 q 2565 450 2675 475 q 2406 456 2456 425 q 2365 504 2381 469 q 2364 601 2350 539 q 2429 754 2378 664 q 2589 972 2481 844 l 2739 1139 q 2392 1100 2581 1125 q 2006 1044 2203 1075 q 1661 742 1839 886 q 1300 483 1483 597 q 1136 286 1228 383 q 939 106 1044 189 q 910 103 925 97 q 917 133 894 108 q 1074 271 997 192 q 1217 433 1150 350 q 788 240 1003 308 q 367 189 572 172 q 110 274 194 208 q 10 432 25 339 q 43 633 -6 525 q 185 847 92 742 q 408 1043 278 953 q 689 1190 539 1133 q 1000 1258 839 1247 q 1317 1217 1161 1269 q 1449 1128 1406 1186 q 1500 989 1492 1069 q 1732 1033 1614 1011 q 1972 1078 1850 1056 q 2353 1457 2172 1267 q 2683 1806 2533 1647 q 2374 1617 2544 1708 q 2039 1450 2203 1525 q 1736 1328 1875 1375 q 1522 1278 1597 1281 m 861 833 q 1094 903 933 864 q 1461 983 1256 942 q 1333 1167 1453 1111 q 1044 1222 1194 1228 q 749 1168 894 1217 q 472 1035 603 1119 q 244 851 342 950 q 93 650 147 753 q 46 460 39 547 q 132 311 53 372 q 378 233 211 250 q 826 294 594 211 q 1289 528 1058 378 q 1410 744 1364 636 q 1461 944 1456 853 q 1108 867 1264 903 q 878 806 953 831 q 851 815 856 797 q 861 833 847 833 m 1500 950 q 1460 769 1494 867 q 1361 572 1425 672 q 1922 1033 1653 772 l 1500 950 z "},"":{"ha":1400,"x_min":-483,"x_max":2203,"o":"m 189 1244 q 167 1267 167 1244 q 169 1275 167 1272 q 189 1278 172 1278 q 217 1279 197 1275 q 258 1290 236 1283 q 303 1306 281 1297 q 339 1322 325 1314 q 439 1360 367 1331 q 594 1425 511 1389 q 753 1496 678 1461 q 867 1550 828 1531 q 1024 1631 944 1589 q 1174 1713 1103 1672 q 1304 1789 1244 1753 q 1406 1856 1364 1825 q 1428 1856 1414 1869 q 1433 1844 1433 1856 l 1433 1839 q 1436 1825 1439 1833 q 1428 1811 1433 1817 q 1175 1647 1317 1753 q 878 1407 1033 1542 q 560 1118 722 1272 q 244 811 397 964 q 531 858 392 836 q 778 894 669 881 q 985 917 886 911 q 1167 928 1083 922 l 1211 972 q 1508 1269 1358 1122 q 1788 1539 1658 1417 q 2018 1747 1917 1661 q 2172 1861 2119 1833 q 2194 1856 2189 1861 q 2200 1842 2203 1850 q 2189 1828 2197 1833 q 2042 1715 2142 1800 q 1813 1510 1942 1631 q 1535 1243 1683 1389 q 1239 944 1386 1097 l 1228 928 q 1325 921 1278 922 q 1406 911 1372 919 q 1417 901 1411 906 q 1417 889 1422 897 q 1389 878 1406 869 q 1306 890 1356 886 q 1189 889 1256 894 q 1047 739 1125 825 q 893 565 969 653 q 751 400 817 478 q 650 278 686 322 q 614 224 625 244 q 594 189 603 203 l 594 178 q 594 163 600 169 q 583 156 589 156 q 561 167 572 156 l 561 178 q 622 300 561 214 q 719 425 658 350 q 853 582 781 500 q 999 744 925 664 q 1133 889 1072 825 q 967 878 1058 883 q 778 856 875 872 q 507 818 656 839 q 200 767 358 797 q -137 406 17 578 q -389 111 -292 233 q -444 17 -436 39 l -444 11 q -447 -7 -439 -3 q -461 -11 -456 -11 q -478 0 -478 -11 l -478 11 q -465 58 -483 28 q -417 128 -447 89 q -185 410 -328 244 q 133 750 -42 575 q -69 710 28 728 q -256 667 -167 692 q -272 669 -267 664 q -278 682 -278 675 q -275 694 -278 689 q -267 700 -272 700 q -54 749 -167 725 q 172 794 58 772 q 624 1232 389 1017 q 1067 1611 858 1447 q 975 1563 1019 1586 q 883 1522 931 1539 q 768 1464 844 1500 q 610 1390 692 1428 q 456 1321 528 1353 q 356 1278 383 1289 l 256 1244 q 215 1238 233 1239 q 189 1244 197 1236 z "},"":{"ha":2183,"x_min":-231,"x_max":3258,"o":"m -222 233 q -187 349 -231 283 q -6 489 -144 414 q 167 568 56 522 q 436 667 278 614 q 793 776 594 719 q 1228 889 992 833 l 1344 917 l 1367 944 q 1633 1271 1517 1111 q 1822 1568 1750 1431 q 1918 1813 1894 1706 q 1906 1978 1942 1919 q 1782 2036 1869 2033 q 1574 1999 1694 2039 q 1310 1882 1453 1958 q 1022 1706 1167 1806 q 758 1496 878 1603 q 561 1293 639 1389 q 457 1118 483 1197 q 472 994 431 1039 q 538 979 492 975 q 649 1007 583 983 q 796 1074 714 1031 q 967 1178 878 1117 q 1131 1297 1050 1233 q 1279 1426 1211 1361 q 1396 1554 1347 1492 q 1467 1672 1444 1617 q 1471 1690 1472 1683 q 1469 1703 1469 1697 q 1467 1711 1467 1708 q 1444 1706 1458 1719 q 1411 1711 1425 1697 q 1417 1739 1411 1728 q 1454 1753 1433 1750 q 1490 1746 1475 1756 q 1510 1714 1506 1736 q 1500 1656 1514 1692 q 1428 1531 1478 1597 q 1307 1397 1378 1464 q 1154 1265 1236 1331 q 989 1144 1072 1200 q 824 1043 908 1089 q 664 969 739 997 q 531 939 589 942 q 444 967 472 936 q 418 1121 389 1028 q 531 1319 447 1214 q 739 1535 614 1425 q 1000 1739 864 1644 q 1283 1914 1136 1833 q 1561 2038 1431 1994 q 1793 2076 1692 2081 q 1939 1994 1894 2072 q 1960 1825 1978 1931 q 1878 1588 1942 1719 q 1710 1307 1814 1456 q 1478 1006 1606 1158 l 1411 933 l 1494 956 q 1763 1025 1633 989 q 2017 1100 1892 1061 l 2056 1111 l 2061 1117 q 2247 1283 2150 1200 q 2443 1446 2344 1367 q 2638 1596 2542 1525 q 2822 1722 2733 1667 q 3006 1814 2914 1778 q 3161 1850 3097 1850 q 3211 1846 3186 1856 q 3250 1811 3236 1836 q 3200 1683 3258 1758 q 3022 1508 3128 1589 q 2783 1357 2917 1428 q 2493 1222 2650 1286 q 2167 1100 2336 1158 l 2078 1078 l 1994 989 q 1828 807 1903 892 q 1711 656 1753 722 q 1658 551 1661 583 q 1672 511 1656 519 q 1738 508 1692 503 q 1863 539 1783 514 q 2058 614 1942 564 q 2339 744 2175 664 q 2353 743 2344 744 q 2367 733 2361 742 q 2356 706 2367 711 q 2082 578 2200 628 q 1879 500 1964 528 q 1739 468 1794 472 q 1656 478 1683 464 q 1617 551 1606 497 q 1678 681 1628 606 q 1806 843 1728 756 q 1967 1017 1883 931 l 1994 1050 l 1778 989 q 1644 950 1711 967 q 1511 917 1578 933 l 1367 878 l 1322 828 q 933 493 1122 628 q 581 276 744 358 q 282 160 417 194 q 56 122 147 125 q -35 125 11 119 q -121 143 -81 131 q -189 178 -161 156 q -222 233 -217 200 m 72 161 q 281 203 147 164 q 581 325 414 242 q 931 538 747 408 q 1289 856 1114 667 l 1294 861 l 1239 850 q 449 629 764 736 q 11 456 133 522 q -93 386 -53 417 q -154 328 -133 356 q -182 276 -175 300 q -183 233 -189 253 q -103 172 -169 192 q 72 161 -36 153 m 3167 1706 q 3204 1765 3197 1744 q 3211 1794 3211 1786 q 3199 1806 3211 1800 q 3161 1811 3186 1811 q 3021 1776 3106 1811 q 2844 1683 2936 1742 q 2524 1458 2694 1592 q 2194 1178 2353 1325 l 2150 1144 l 2267 1178 q 2804 1414 2567 1286 q 3167 1706 3042 1542 z "},"":{"ha":3006,"x_min":128,"x_max":3572,"o":"m 1522 1278 q 1500 1300 1500 1278 q 1503 1306 1500 1303 q 1517 1311 1508 1311 q 1686 1354 1583 1319 q 1913 1440 1789 1389 q 2169 1558 2036 1492 q 2431 1696 2303 1625 q 2668 1839 2558 1767 q 2856 1978 2778 1911 q 2878 1989 2867 1989 q 2889 1967 2886 1975 q 2878 1950 2892 1958 q 2724 1786 2808 1881 q 2542 1579 2639 1692 q 2335 1344 2444 1467 q 2106 1100 2225 1222 q 2461 1147 2289 1125 q 2772 1178 2633 1169 q 3010 1415 2892 1300 q 3232 1625 3128 1531 q 3417 1785 3336 1719 q 3539 1872 3497 1850 q 3551 1871 3544 1872 q 3567 1861 3558 1869 q 3568 1847 3572 1856 q 3556 1833 3564 1839 q 3444 1753 3517 1811 q 3276 1607 3372 1694 q 3067 1410 3181 1519 q 2833 1178 2953 1300 q 2997 1182 2925 1183 q 3111 1167 3069 1181 q 3122 1144 3131 1167 q 3111 1133 3117 1136 q 3100 1139 3106 1131 q 2974 1149 3050 1147 q 2800 1144 2897 1150 l 2633 961 q 2482 767 2533 847 q 2411 632 2431 686 q 2396 547 2392 578 q 2411 500 2400 517 q 2493 476 2433 472 q 2629 504 2553 481 q 2789 563 2706 528 q 2946 632 2872 597 q 3071 693 3019 667 q 3133 728 3122 719 q 3167 725 3158 744 q 3161 700 3175 706 q 3019 622 3122 675 q 2796 522 2917 569 q 2565 450 2675 475 q 2406 456 2456 425 q 2365 504 2381 469 q 2363 601 2350 539 q 2426 754 2375 664 q 2589 972 2478 844 l 2739 1139 q 2419 1103 2592 1125 q 2067 1056 2247 1081 q 1756 756 1917 900 q 1428 493 1594 611 q 1090 294 1261 375 q 750 189 919 214 q 451 185 578 161 q 249 269 325 208 q 150 418 172 331 q 160 608 128 506 q 279 818 192 711 q 517 1022 367 925 q 551 1036 536 1033 q 572 1035 567 1039 q 572 1019 578 1031 q 544 994 567 1008 q 317 800 403 900 q 199 606 231 700 q 188 432 167 511 q 281 300 208 353 q 474 226 353 247 q 761 233 594 206 q 1075 332 917 258 q 1388 514 1233 406 q 1693 757 1542 622 q 1989 1039 1844 892 q 1639 979 1811 1011 q 1318 915 1467 947 q 1054 854 1169 883 q 878 806 939 825 q 851 815 856 797 q 861 833 847 833 q 1039 888 919 856 q 1317 953 1158 919 q 1660 1019 1475 986 q 2033 1083 1844 1053 q 2382 1464 2217 1275 q 2694 1811 2547 1653 q 2383 1621 2556 1714 q 2044 1453 2211 1528 q 1738 1329 1878 1378 q 1522 1278 1597 1281 z "},"I":{"ha":1122,"x_min":-172,"x_max":2094,"o":"m 994 1456 q 983 1463 989 1456 q 983 1478 978 1469 q 988 1493 983 1486 q 1006 1494 992 1500 q 1011 1492 1008 1494 l 1011 1489 l 1017 1478 l 1056 1478 q 1104 1478 1078 1478 q 1161 1483 1131 1478 q 1301 1501 1225 1492 q 1467 1528 1378 1511 q 1529 1539 1497 1533 q 1594 1550 1561 1544 q 1625 1576 1611 1564 q 1656 1594 1639 1589 q 1678 1589 1669 1608 l 1678 1567 q 1897 1625 1794 1597 q 2067 1678 2000 1653 q 2089 1672 2078 1683 q 2078 1650 2094 1658 q 1876 1582 2003 1617 q 1611 1522 1750 1547 q 1458 1374 1550 1467 q 1256 1160 1367 1281 q 1021 901 1144 1039 q 778 622 897 764 q 594 401 672 506 q 450 189 517 297 q 783 239 625 222 q 1151 275 989 269 q 1411 256 1314 281 q 1422 251 1417 256 q 1422 233 1428 247 q 1408 222 1414 225 q 1394 228 1403 219 q 1160 240 1322 244 q 789 211 997 236 q 613 182 706 197 q 422 150 519 167 q 394 89 394 103 l 394 78 q 394 63 400 69 q 383 56 389 56 q 361 67 367 56 l 361 78 q 363 107 356 92 q 378 144 369 122 q 122 90 253 119 q -139 28 -8 61 q -153 35 -144 33 q -161 44 -161 36 q -150 67 -172 67 q 128 132 -11 106 q 400 183 267 158 l 411 200 q 576 435 492 325 q 750 650 661 544 q 969 904 858 778 q 1185 1143 1081 1031 q 1381 1349 1289 1256 q 1544 1506 1472 1442 l 1472 1494 q 1307 1467 1383 1478 q 1167 1450 1231 1456 q 1107 1442 1133 1444 q 1056 1439 1081 1439 q 994 1456 1019 1439 z "},"":{"ha":1722,"x_min":-8,"x_max":2536,"o":"m 422 1122 q 121 829 208 981 q 64 561 33 678 q 239 383 94 444 q 633 361 383 322 q 960 463 803 386 q 1264 650 1117 539 q 1549 897 1411 761 q 1815 1179 1686 1033 q 2064 1471 1944 1325 q 2294 1750 2183 1617 q 2024 1583 2164 1653 q 1747 1467 1883 1514 q 1490 1396 1611 1419 q 1283 1367 1369 1372 q 1265 1371 1275 1367 q 1261 1389 1256 1375 q 1263 1400 1261 1394 q 1278 1406 1264 1406 q 1540 1447 1394 1417 q 1847 1543 1686 1478 q 2175 1714 2008 1608 q 2500 1983 2342 1819 q 2514 1986 2506 1989 q 2522 1989 2517 1989 q 2533 1967 2531 1975 q 2522 1950 2536 1958 q 2293 1690 2417 1844 q 2029 1364 2169 1536 q 1729 1018 1889 1192 q 1394 699 1569 844 q 1028 449 1219 553 q 628 317 836 344 q 211 344 364 275 q 25 543 58 414 q 79 835 -8 672 q 389 1144 167 997 q 446 1161 428 1175 q 422 1122 464 1147 z "},"Í":{"ha":1122,"x_min":-172,"x_max":2094,"o":"m 994 1456 q 983 1463 989 1456 q 983 1478 978 1469 q 988 1493 983 1486 q 1006 1494 992 1500 q 1011 1492 1008 1494 l 1011 1489 l 1017 1478 l 1056 1478 q 1104 1478 1078 1478 q 1161 1483 1131 1478 q 1301 1501 1225 1492 q 1467 1528 1378 1511 q 1529 1539 1497 1533 q 1594 1550 1561 1544 q 1625 1576 1611 1564 q 1656 1594 1639 1589 q 1678 1589 1669 1608 l 1678 1567 q 1897 1625 1794 1597 q 2067 1678 2000 1653 q 2089 1672 2078 1683 q 2078 1650 2094 1658 q 1876 1582 2003 1617 q 1611 1522 1750 1547 q 1458 1374 1550 1467 q 1256 1160 1367 1281 q 1021 901 1144 1039 q 778 622 897 764 q 594 401 672 506 q 450 189 517 297 q 783 239 625 222 q 1151 275 989 269 q 1411 256 1314 281 q 1422 251 1417 256 q 1422 233 1428 247 q 1408 222 1414 225 q 1394 228 1403 219 q 1160 240 1322 244 q 789 211 997 236 q 613 182 706 197 q 422 150 519 167 q 394 89 394 103 l 394 78 q 394 63 400 69 q 383 56 389 56 q 361 67 367 56 l 361 78 q 363 107 356 92 q 378 144 369 122 q 122 90 253 119 q -139 28 -8 61 q -153 35 -144 33 q -161 44 -161 36 q -150 67 -172 67 q 128 132 -11 106 q 400 183 267 158 l 411 200 q 576 435 492 325 q 750 650 661 544 q 969 904 858 778 q 1185 1143 1081 1031 q 1381 1349 1289 1256 q 1544 1506 1472 1442 l 1472 1494 q 1307 1467 1383 1478 q 1167 1450 1231 1456 q 1107 1442 1133 1444 q 1056 1439 1081 1439 q 994 1456 1019 1439 m 1633 1800 q 1633 1828 1625 1819 q 1663 1854 1644 1833 q 1699 1900 1681 1875 q 1733 1947 1717 1925 q 1756 1983 1750 1969 q 1771 1996 1761 1989 q 1789 1994 1781 2003 q 1792 1981 1794 1989 q 1789 1967 1789 1972 q 1764 1926 1781 1953 q 1726 1872 1747 1900 q 1686 1822 1706 1844 q 1656 1794 1667 1800 q 1642 1790 1650 1789 q 1633 1800 1633 1792 z "},"Î":{"ha":1122,"x_min":-172,"x_max":2094,"o":"m 994 1456 q 983 1463 989 1456 q 983 1478 978 1469 q 988 1493 983 1486 q 1006 1494 992 1500 q 1011 1492 1008 1494 l 1011 1489 l 1017 1478 l 1056 1478 q 1104 1478 1078 1478 q 1161 1483 1131 1478 q 1301 1501 1225 1492 q 1467 1528 1378 1511 q 1529 1539 1497 1533 q 1594 1550 1561 1544 q 1625 1576 1611 1564 q 1656 1594 1639 1589 q 1678 1589 1669 1608 l 1678 1567 q 1897 1625 1794 1597 q 2067 1678 2000 1653 q 2089 1672 2078 1683 q 2078 1650 2094 1658 q 1876 1582 2003 1617 q 1611 1522 1750 1547 q 1458 1374 1550 1467 q 1256 1160 1367 1281 q 1021 901 1144 1039 q 778 622 897 764 q 594 401 672 506 q 450 189 517 297 q 783 239 625 222 q 1151 275 989 269 q 1411 256 1314 281 q 1422 251 1417 256 q 1422 233 1428 247 q 1408 222 1414 225 q 1394 228 1403 219 q 1160 240 1322 244 q 789 211 997 236 q 613 182 706 197 q 422 150 519 167 q 394 89 394 103 l 394 78 q 394 63 400 69 q 383 56 389 56 q 361 67 367 56 l 361 78 q 363 107 356 92 q 378 144 369 122 q 122 90 253 119 q -139 28 -8 61 q -153 35 -144 33 q -161 44 -161 36 q -150 67 -172 67 q 128 132 -11 106 q 400 183 267 158 l 411 200 q 576 435 492 325 q 750 650 661 544 q 969 904 858 778 q 1185 1143 1081 1031 q 1381 1349 1289 1256 q 1544 1506 1472 1442 l 1472 1494 q 1307 1467 1383 1478 q 1167 1450 1231 1456 q 1107 1442 1133 1444 q 1056 1439 1081 1439 q 994 1456 1019 1439 m 1922 1928 q 1922 1906 1933 1917 q 1894 1917 1903 1900 q 1858 1986 1869 1947 q 1833 2067 1847 2025 q 1744 2007 1800 2044 q 1567 1922 1689 1969 q 1544 1939 1553 1922 q 1546 1951 1544 1947 q 1561 1961 1547 1956 q 1747 2046 1694 2008 q 1833 2106 1800 2083 q 1856 2096 1850 2106 q 1867 2078 1861 2086 q 1875 2039 1872 2053 q 1882 2013 1878 2025 q 1894 1982 1886 2000 q 1922 1928 1903 1964 z "},"Ï":{"ha":1122,"x_min":-172,"x_max":2094,"o":"m 994 1456 q 983 1463 989 1456 q 983 1478 978 1469 q 988 1493 983 1486 q 1006 1494 992 1500 q 1011 1492 1008 1494 l 1011 1489 l 1017 1478 l 1056 1478 q 1104 1478 1078 1478 q 1161 1483 1131 1478 q 1301 1501 1225 1492 q 1467 1528 1378 1511 q 1529 1539 1497 1533 q 1594 1550 1561 1544 q 1625 1576 1611 1564 q 1656 1594 1639 1589 q 1678 1589 1669 1608 l 1678 1567 q 1897 1625 1794 1597 q 2067 1678 2000 1653 q 2089 1672 2078 1683 q 2078 1650 2094 1658 q 1876 1582 2003 1617 q 1611 1522 1750 1547 q 1458 1374 1550 1467 q 1256 1160 1367 1281 q 1021 901 1144 1039 q 778 622 897 764 q 594 401 672 506 q 450 189 517 297 q 783 239 625 222 q 1151 275 989 269 q 1411 256 1314 281 q 1422 251 1417 256 q 1422 233 1428 247 q 1408 222 1414 225 q 1394 228 1403 219 q 1160 240 1322 244 q 789 211 997 236 q 613 182 706 197 q 422 150 519 167 q 394 89 394 103 l 394 78 q 394 63 400 69 q 383 56 389 56 q 361 67 367 56 l 361 78 q 363 107 356 92 q 378 144 369 122 q 122 90 253 119 q -139 28 -8 61 q -153 35 -144 33 q -161 44 -161 36 q -150 67 -172 67 q 128 132 -11 106 q 400 183 267 158 l 411 200 q 576 435 492 325 q 750 650 661 544 q 969 904 858 778 q 1185 1143 1081 1031 q 1381 1349 1289 1256 q 1544 1506 1472 1442 l 1472 1494 q 1307 1467 1383 1478 q 1167 1450 1231 1456 q 1107 1442 1133 1444 q 1056 1439 1081 1439 q 994 1456 1019 1439 m 1828 1844 q 1889 1900 1836 1900 q 1897 1894 1894 1897 q 1900 1878 1903 1889 q 1888 1868 1894 1872 q 1867 1850 1881 1864 q 1842 1829 1861 1828 q 1828 1844 1822 1831 m 1517 1844 q 1578 1900 1525 1900 q 1586 1894 1583 1897 q 1589 1878 1592 1889 q 1576 1868 1583 1872 q 1556 1850 1569 1864 q 1531 1829 1550 1828 q 1517 1844 1511 1831 z "},"Ì":{"ha":1122,"x_min":-172,"x_max":2094,"o":"m 994 1456 q 983 1463 989 1456 q 983 1478 978 1469 q 988 1493 983 1486 q 1006 1494 992 1500 q 1011 1492 1008 1494 l 1011 1489 l 1017 1478 l 1056 1478 q 1104 1478 1078 1478 q 1161 1483 1131 1478 q 1301 1501 1225 1492 q 1467 1528 1378 1511 q 1529 1539 1497 1533 q 1594 1550 1561 1544 q 1625 1576 1611 1564 q 1656 1594 1639 1589 q 1678 1589 1669 1608 l 1678 1567 q 1897 1625 1794 1597 q 2067 1678 2000 1653 q 2089 1672 2078 1683 q 2078 1650 2094 1658 q 1876 1582 2003 1617 q 1611 1522 1750 1547 q 1458 1374 1550 1467 q 1256 1160 1367 1281 q 1021 901 1144 1039 q 778 622 897 764 q 594 401 672 506 q 450 189 517 297 q 783 239 625 222 q 1151 275 989 269 q 1411 256 1314 281 q 1422 251 1417 256 q 1422 233 1428 247 q 1408 222 1414 225 q 1394 228 1403 219 q 1160 240 1322 244 q 789 211 997 236 q 613 182 706 197 q 422 150 519 167 q 394 89 394 103 l 394 78 q 394 63 400 69 q 383 56 389 56 q 361 67 367 56 l 361 78 q 363 107 356 92 q 378 144 369 122 q 122 90 253 119 q -139 28 -8 61 q -153 35 -144 33 q -161 44 -161 36 q -150 67 -172 67 q 128 132 -11 106 q 400 183 267 158 l 411 200 q 576 435 492 325 q 750 650 661 544 q 969 904 858 778 q 1185 1143 1081 1031 q 1381 1349 1289 1256 q 1544 1506 1472 1442 l 1472 1494 q 1307 1467 1383 1478 q 1167 1450 1231 1456 q 1107 1442 1133 1444 q 1056 1439 1081 1439 q 994 1456 1019 1439 m 1672 1767 q 1644 1761 1664 1750 q 1590 1817 1619 1775 q 1544 1883 1561 1858 q 1544 1901 1544 1892 q 1550 1917 1544 1911 q 1565 1915 1558 1922 q 1578 1900 1572 1908 q 1618 1842 1592 1878 q 1667 1789 1644 1806 q 1676 1781 1675 1789 q 1672 1767 1678 1772 z "},"J":{"ha":1972,"x_min":233,"x_max":2389,"o":"m 278 -333 q 281 -225 233 -297 q 444 -64 328 -153 q 742 121 561 25 q 1144 300 922 217 q 1383 614 1256 436 q 1649 979 1511 792 q 1926 1353 1786 1167 q 2200 1694 2067 1539 l 2150 1678 q 1957 1639 2064 1658 q 1733 1596 1850 1619 q 1494 1542 1617 1572 q 1256 1472 1372 1511 q 947 1340 1086 1417 q 729 1160 808 1264 q 642 921 650 1056 q 728 611 633 786 q 733 596 736 603 q 722 589 731 589 q 700 594 714 581 q 604 929 594 783 q 700 1183 614 1075 q 931 1371 786 1292 q 1244 1506 1075 1450 q 1507 1583 1372 1550 q 1767 1642 1642 1617 q 2003 1688 1892 1667 q 2194 1728 2114 1708 l 2244 1744 l 2272 1767 q 2315 1797 2294 1783 q 2350 1811 2336 1811 q 2383 1789 2369 1811 q 2386 1782 2389 1789 q 2383 1767 2383 1775 q 2381 1761 2381 1764 q 2372 1756 2375 1756 q 2306 1722 2356 1739 l 2261 1717 q 2068 1474 2169 1606 q 1864 1204 1967 1342 q 1664 931 1761 1067 q 1481 678 1567 794 q 1326 471 1394 561 q 1217 333 1258 381 l 1483 450 q 1715 549 1611 503 q 1901 632 1819 594 q 2046 703 1983 669 q 2156 767 2108 736 q 2171 769 2164 772 q 2183 761 2178 767 q 2178 739 2194 739 q 1813 551 2053 658 q 1244 306 1572 444 l 1167 272 q 1010 92 1092 181 q 843 -75 928 3 q 675 -214 758 -153 q 517 -312 592 -275 q 381 -357 442 -350 q 278 -333 319 -364 m 1100 250 q 796 108 942 186 q 539 -44 650 31 q 363 -185 428 -119 q 300 -289 297 -250 q 393 -312 319 -328 q 575 -228 467 -297 q 819 -39 683 -158 q 1100 250 956 81 z "},"":{"ha":1628,"x_min":-122,"x_max":2153,"o":"m 2122 1600 q 1989 1607 2064 1608 q 1822 1600 1914 1606 l 1806 1578 q 1617 1349 1711 1469 q 1432 1106 1522 1228 q 1257 864 1342 983 q 1097 643 1172 744 q 963 461 1022 542 q 861 333 903 381 l 1128 450 q 1360 549 1256 503 q 1546 632 1464 594 q 1690 703 1628 669 q 1800 767 1753 736 q 1815 769 1808 772 q 1828 761 1822 767 q 1822 739 1839 739 q 1457 551 1697 658 q 889 306 1217 444 l 811 272 q 656 92 739 181 q 488 -75 572 3 q 319 -214 403 -153 q 161 -312 236 -275 q 25 -357 86 -350 q -78 -333 -36 -364 q -75 -225 -122 -297 q 89 -64 -28 -153 q 386 121 206 25 q 789 300 567 217 q 1013 592 900 436 q 1243 910 1125 747 q 1486 1236 1361 1072 q 1744 1556 1611 1400 l 1783 1594 q 1371 1556 1594 1583 q 932 1488 1147 1528 q 536 1399 717 1447 q 256 1300 356 1350 q 239 1297 242 1294 q 228 1306 236 1300 q 225 1322 222 1319 q 233 1333 228 1325 q 413 1403 303 1369 q 657 1467 522 1436 q 943 1525 792 1497 q 1247 1574 1094 1553 q 1544 1610 1400 1594 q 1811 1633 1689 1625 q 1863 1674 1844 1664 q 1894 1683 1881 1683 q 1908 1669 1903 1683 q 1900 1656 1914 1656 q 1878 1644 1886 1650 q 1861 1633 1869 1639 q 2008 1639 1942 1639 q 2122 1633 2075 1639 q 2150 1619 2147 1633 q 2122 1600 2153 1606 m 744 250 q 440 108 586 186 q 183 -44 294 31 q 7 -185 72 -119 q -56 -289 -58 -250 q 38 -312 -36 -328 q 219 -228 111 -297 q 464 -39 328 -158 q 744 250 600 81 z "},"":{"ha":1944,"x_min":-328,"x_max":2319,"o":"m 2211 1706 q 2079 1682 2181 1697 q 1844 1640 1978 1667 q 1567 1574 1711 1614 q 1308 1475 1422 1533 q 1129 1336 1194 1417 q 1089 1150 1064 1256 q 1164 1039 1106 1078 q 1297 992 1222 1000 q 1453 1004 1372 983 q 1601 1071 1533 1025 q 1711 1188 1669 1117 q 1750 1350 1753 1258 q 1769 1382 1750 1383 q 1789 1356 1789 1381 q 1732 1157 1786 1239 q 1596 1025 1678 1075 q 1419 960 1514 975 q 1243 965 1325 944 q 1106 1043 1161 986 q 1050 1194 1050 1100 q 1094 1344 1047 1278 q 1226 1465 1142 1411 q 1425 1563 1311 1519 q 1671 1638 1539 1606 q 1943 1694 1803 1669 q 2222 1739 2083 1719 q 2279 1790 2256 1783 q 2311 1785 2303 1797 q 2308 1750 2319 1772 q 2261 1717 2297 1728 q 2106 1449 2192 1594 q 1915 1153 2019 1303 q 1685 857 1811 1003 q 1411 583 1558 711 q 1789 611 1611 578 q 2106 750 1967 644 q 2143 753 2131 767 q 2133 722 2156 739 q 1779 571 1975 606 q 1367 544 1583 536 q 1138 383 1258 456 q 882 263 1017 311 q 597 194 747 214 q 283 189 447 175 q 11 250 131 200 q -187 368 -108 300 q -297 514 -267 436 q -300 661 -328 592 q -186 768 -269 742 q 22 790 -103 794 q 304 756 147 786 q 636 690 461 725 q 994 624 811 656 q 1356 583 1178 592 q 1656 878 1519 719 q 1899 1190 1792 1036 q 2083 1481 2006 1344 q 2211 1706 2161 1617 m -272 644 q -265 531 -294 597 q -165 401 -236 464 q 14 290 -94 339 q 261 228 122 242 q 832 289 572 194 q 1306 550 1092 383 q 957 594 1133 564 q 617 658 781 625 q 304 719 453 692 q 39 754 156 747 q -160 738 -78 761 q -272 644 -242 714 z "},"K":{"ha":2233,"x_min":-72,"x_max":2939,"o":"m 1144 606 q 1171 804 1139 694 q 1261 1022 1203 914 l 1183 989 l 1167 978 q 883 769 1008 869 q 658 571 758 669 q 482 372 558 472 q 344 161 406 272 q 321 150 336 147 q 306 167 306 153 q 371 349 297 233 q 561 611 444 464 l 617 683 l 678 750 l 617 722 l -44 400 q -67 406 -61 392 q -71 419 -72 411 q -61 433 -69 428 q 251 586 81 506 q 606 756 422 667 l 744 822 l 756 839 q 1150 1250 939 1039 q 1297 1396 1233 1333 q 1419 1511 1361 1458 q 1533 1614 1478 1564 q 1656 1722 1589 1664 q 1344 1554 1514 1633 q 1007 1415 1175 1475 q 683 1324 839 1356 q 417 1300 528 1292 q 408 1303 414 1300 q 400 1310 403 1306 q 400 1318 397 1314 q 417 1328 403 1322 q 574 1339 456 1325 q 878 1410 692 1353 q 1311 1578 1064 1467 q 1856 1883 1558 1689 q 1864 1876 1861 1889 q 1844 1839 1867 1864 l 1678 1700 q 1556 1589 1611 1639 q 1444 1485 1500 1539 q 1325 1369 1389 1431 q 1178 1228 1261 1308 q 1001 1043 1086 1131 q 833 872 917 956 l 833 861 l 856 878 l 1111 994 l 1167 1017 l 1256 1078 l 1322 1122 q 1372 1189 1347 1156 q 1428 1256 1397 1222 q 1456 1261 1436 1272 q 1456 1233 1469 1247 l 1411 1183 l 1633 1322 q 2119 1604 1908 1492 q 2489 1779 2331 1717 q 2754 1858 2647 1842 q 2928 1856 2861 1875 l 2939 1844 q 2928 1822 2939 1833 q 2811 1749 2914 1800 q 2544 1617 2708 1697 l 1889 1317 l 1383 1078 l 1322 1056 q 1211 817 1250 933 q 1178 611 1172 700 q 1204 497 1181 547 q 1274 415 1228 447 q 1390 376 1319 383 q 1561 394 1461 369 q 1742 453 1639 414 q 1960 542 1844 492 q 2197 651 2075 592 q 2433 772 2319 711 q 2444 775 2439 778 q 2456 767 2450 772 q 2444 739 2456 744 q 2210 621 2331 681 q 1972 510 2089 561 q 1753 419 1856 458 q 1572 361 1650 381 q 1388 344 1467 336 q 1254 388 1308 353 q 1174 478 1200 422 q 1144 606 1147 533 m 1878 1344 l 2528 1656 q 2744 1756 2658 1714 q 2872 1822 2831 1797 l 2889 1833 l 2883 1833 q 2722 1824 2822 1847 q 2504 1751 2622 1800 q 2258 1639 2386 1703 q 2015 1510 2131 1575 q 1804 1386 1900 1444 q 1656 1294 1708 1328 l 1394 1128 l 1383 1122 l 1628 1233 l 1878 1344 m 994 900 l 872 839 l 767 789 q 543 529 636 647 q 394 322 450 411 l 389 300 l 400 322 q 633 599 500 469 q 950 867 767 728 l 994 900 z "},"":{"ha":2233,"x_min":-197,"x_max":2939,"o":"m 1144 606 q 1171 804 1139 694 q 1261 1022 1203 914 l 1183 989 l 1167 978 q 883 769 1008 869 q 658 571 758 669 q 482 372 558 472 q 344 161 406 272 q 321 150 336 147 q 306 167 306 153 q 371 349 297 233 q 561 611 444 464 l 617 683 l 678 750 l 617 722 l -44 400 q -67 406 -61 392 q -71 419 -72 411 q -61 433 -69 428 q 251 586 81 506 q 606 756 422 667 l 744 822 l 756 839 q 1150 1250 939 1039 q 1297 1396 1233 1333 q 1419 1511 1361 1458 q 1533 1614 1478 1564 q 1656 1722 1589 1664 l 1767 1822 l 1789 1839 l 1783 1839 l 1722 1828 q 1414 1789 1589 1806 q 1056 1750 1239 1772 q 676 1697 864 1728 q 329 1621 489 1667 q 50 1511 169 1575 q -122 1356 -69 1447 q -33 1217 -178 1258 q 139 1194 33 1194 q 361 1211 244 1194 q 599 1261 481 1228 q 814 1340 717 1294 q 979 1446 911 1386 q 1067 1578 1047 1506 q 1089 1589 1067 1600 q 1100 1567 1100 1589 q 1006 1421 1078 1486 q 829 1306 933 1356 q 604 1222 725 1256 q 367 1172 483 1189 q 138 1160 244 1158 q -44 1183 31 1161 q -161 1253 -125 1206 q -150 1372 -197 1300 q 33 1539 -92 1469 q 321 1656 158 1608 q 672 1735 483 1703 q 1050 1789 861 1767 q 1411 1826 1239 1811 q 1717 1867 1583 1842 q 1785 1876 1756 1872 q 1839 1889 1814 1881 l 1856 1894 l 1872 1906 q 1953 1967 1919 1944 q 2000 1994 1986 1989 q 2021 1990 2008 1994 q 2033 1972 2033 1986 q 1993 1908 2033 1933 q 1889 1861 1953 1883 l 1872 1856 l 1867 1856 l 1678 1700 q 1556 1589 1611 1639 q 1444 1485 1500 1539 q 1325 1369 1389 1431 q 1178 1228 1261 1308 q 1001 1043 1086 1131 q 833 872 917 956 l 833 861 l 856 878 l 1111 994 l 1167 1017 l 1256 1078 l 1322 1122 q 1372 1189 1347 1156 q 1428 1256 1397 1222 q 1456 1261 1436 1272 q 1456 1233 1469 1247 l 1411 1183 l 1633 1322 q 2119 1604 1908 1492 q 2489 1779 2331 1717 q 2754 1858 2647 1842 q 2928 1856 2861 1875 l 2939 1844 q 2928 1822 2939 1833 q 2811 1749 2914 1800 q 2544 1617 2708 1697 l 1889 1317 l 1383 1078 l 1322 1056 q 1211 817 1250 933 q 1178 611 1172 700 q 1204 497 1181 547 q 1274 415 1228 447 q 1390 376 1319 383 q 1561 394 1461 369 q 1742 453 1639 414 q 1960 542 1844 492 q 2197 651 2075 592 q 2433 772 2319 711 q 2444 775 2439 778 q 2456 767 2450 772 q 2444 739 2456 744 q 2210 621 2331 681 q 1972 510 2089 561 q 1753 419 1856 458 q 1572 361 1650 381 q 1388 344 1467 336 q 1254 388 1308 353 q 1174 478 1200 422 q 1144 606 1147 533 m 1878 1344 l 2528 1656 q 2744 1756 2658 1714 q 2872 1822 2831 1797 l 2889 1833 l 2883 1833 q 2722 1824 2822 1847 q 2504 1751 2622 1800 q 2258 1639 2386 1703 q 2015 1510 2131 1575 q 1804 1386 1900 1444 q 1656 1294 1708 1328 l 1394 1128 l 1383 1122 l 1628 1233 l 1878 1344 m 994 900 l 872 839 l 767 789 q 543 529 636 647 q 394 322 450 411 l 389 300 l 400 322 q 633 599 500 469 q 950 867 767 728 l 994 900 z "},"L":{"ha":1656,"x_min":36,"x_max":2392,"o":"m 44 117 q 39 131 36 122 q 56 139 42 139 q 174 168 111 153 q 308 197 236 183 q 419 349 350 256 q 567 543 489 442 q 722 742 644 644 q 856 906 800 839 l 861 917 l 839 917 q 471 963 650 925 q 167 1100 292 1000 q 146 1117 150 1106 q 146 1135 142 1128 q 163 1142 150 1142 q 189 1128 175 1142 q 325 1046 250 1078 q 485 994 400 1014 q 660 965 569 975 q 839 950 750 956 l 894 950 l 944 1011 q 1208 1278 1069 1147 q 1497 1522 1347 1408 q 1808 1728 1647 1636 q 2139 1878 1969 1819 q 2367 1850 2314 1944 q 2378 1740 2392 1803 q 2322 1611 2364 1678 q 2210 1456 2281 1536 q 2043 1296 2139 1375 q 1828 1146 1947 1217 q 1567 1022 1708 1075 q 1258 938 1419 964 q 933 911 1097 911 l 906 911 l 878 878 q 756 729 825 817 q 614 547 686 642 q 474 363 542 453 q 358 208 406 272 q 592 257 472 233 q 825 301 711 281 q 1040 339 939 322 q 1217 367 1142 356 q 1589 401 1425 397 q 1844 383 1753 406 q 1856 361 1861 375 q 1833 350 1847 336 q 1596 363 1758 367 q 1228 333 1433 358 q 1039 304 1147 322 q 811 264 931 286 q 568 215 692 242 q 328 164 444 189 q 322 156 322 158 q 300 150 314 136 l 294 156 q 174 128 231 142 q 67 100 117 114 q 44 117 44 100 m 1556 1056 q 1810 1178 1692 1108 q 2021 1324 1928 1247 q 2182 1478 2114 1400 q 2289 1628 2250 1556 q 2340 1751 2331 1700 q 2333 1833 2350 1803 q 2276 1867 2319 1858 q 2144 1844 2233 1875 q 1824 1697 1981 1789 q 1519 1493 1667 1606 q 1235 1251 1372 1381 q 978 989 1097 1122 l 944 944 l 1028 950 q 1299 983 1167 958 q 1556 1056 1431 1008 z "},"":{"ha":1833,"x_min":-42,"x_max":2794,"o":"m 261 511 q 239 522 239 500 q 240 538 233 531 q 256 544 247 544 q 465 547 350 561 q 708 500 581 533 q 1033 906 850 689 l 1039 917 l 1017 917 q 657 971 828 925 q 344 1100 486 1017 q 108 1304 203 1183 q -14 1581 14 1425 q 8 1928 -42 1736 q 206 2344 58 2119 q 233 2344 219 2358 q 233 2322 244 2344 q 42 1919 89 2103 q 22 1588 -6 1736 q 142 1325 50 1439 q 367 1133 233 1211 q 668 1008 500 1053 q 1017 950 836 964 l 1072 950 l 1122 1011 q 1386 1278 1247 1147 q 1675 1522 1525 1408 q 1986 1728 1825 1636 q 2317 1878 2147 1819 q 2544 1850 2492 1944 q 2556 1740 2569 1803 q 2500 1611 2542 1678 q 2388 1456 2458 1536 q 2221 1296 2317 1375 q 2006 1146 2125 1217 q 1744 1022 1886 1075 q 1436 938 1597 964 q 1111 911 1275 911 l 1083 911 l 1056 878 q 889 678 967 775 q 744 492 811 581 q 1156 354 942 436 q 1576 196 1369 272 q 1971 65 1783 119 q 2300 11 2158 11 q 2465 36 2383 14 q 2613 101 2547 58 q 2718 207 2678 144 q 2761 350 2758 269 q 2763 374 2761 364 q 2778 383 2764 383 q 2792 369 2783 383 q 2794 356 2794 361 q 2751 204 2792 272 q 2644 86 2711 136 q 2489 8 2578 36 q 2300 -22 2400 -19 q 2089 0 2206 -25 q 1840 68 1972 25 q 1565 164 1708 111 q 1279 271 1422 217 q 994 375 1136 325 q 722 461 853 425 l 667 383 q 644 378 661 369 q 639 406 631 392 q 661 439 650 422 q 686 472 672 456 q 454 515 561 503 q 261 511 347 528 m 1733 1056 q 1988 1178 1869 1108 q 2199 1324 2106 1247 q 2360 1478 2292 1400 q 2467 1628 2428 1556 q 2518 1751 2508 1700 q 2511 1833 2528 1803 q 2454 1867 2497 1858 q 2322 1844 2411 1875 q 2001 1697 2158 1789 q 1697 1493 1844 1606 q 1413 1251 1550 1381 q 1156 989 1275 1122 l 1122 944 l 1206 950 q 1476 983 1344 958 q 1733 1056 1608 1008 z "},"":{"ha":1656,"x_min":142,"x_max":2794,"o":"m 261 511 q 239 522 239 500 q 240 538 233 531 q 256 544 247 544 q 397 551 322 556 q 558 533 472 547 q 572 550 561 539 q 726 746 653 650 q 856 906 800 842 l 861 917 l 839 917 q 471 963 650 925 q 167 1100 292 1000 q 146 1117 150 1106 q 146 1135 142 1128 q 163 1142 150 1142 q 189 1128 175 1142 q 325 1046 250 1078 q 485 994 400 1014 q 660 965 569 975 q 839 950 750 956 l 894 950 l 944 1011 q 1208 1278 1069 1147 q 1497 1522 1347 1408 q 1808 1728 1647 1636 q 2139 1878 1969 1819 q 2367 1850 2314 1944 q 2378 1740 2392 1803 q 2322 1611 2364 1678 q 2210 1456 2281 1536 q 2043 1296 2139 1375 q 1828 1146 1947 1217 q 1567 1022 1708 1075 q 1258 938 1419 964 q 933 911 1097 911 l 906 911 l 878 878 q 750 719 825 814 q 600 528 675 625 q 1036 400 803 486 q 1499 226 1269 314 q 1936 75 1728 139 q 2300 11 2144 11 q 2465 36 2383 14 q 2613 101 2547 58 q 2718 207 2678 144 q 2761 350 2758 269 q 2763 374 2761 364 q 2778 383 2764 383 q 2792 369 2783 383 q 2794 356 2794 361 q 2751 204 2792 272 q 2644 86 2711 136 q 2489 8 2578 36 q 2300 -22 2400 -19 q 2065 6 2197 -25 q 1786 85 1933 36 q 1481 194 1639 133 q 1165 314 1322 256 q 857 421 1008 372 q 572 497 706 469 q 554 493 564 492 q 544 503 544 494 q 393 521 464 517 q 261 511 322 525 m 1556 1056 q 1810 1178 1692 1108 q 2021 1324 1928 1247 q 2182 1478 2114 1400 q 2289 1628 2250 1556 q 2340 1751 2331 1700 q 2333 1833 2350 1803 q 2276 1867 2319 1858 q 2144 1844 2233 1875 q 1824 1697 1981 1789 q 1519 1493 1667 1606 q 1235 1251 1372 1381 q 978 989 1097 1122 l 944 944 l 1028 950 q 1299 983 1167 958 q 1556 1056 1431 1008 z "},"Ĺ":{"ha":1656,"x_min":36,"x_max":2397,"o":"m 44 117 q 39 131 36 122 q 56 139 42 139 q 174 168 111 153 q 308 197 236 183 q 419 349 350 256 q 567 543 489 442 q 722 742 644 644 q 856 906 800 839 l 861 917 l 839 917 q 471 963 650 925 q 167 1100 292 1000 q 146 1117 150 1106 q 146 1135 142 1128 q 163 1142 150 1142 q 189 1128 175 1142 q 325 1046 250 1078 q 485 994 400 1014 q 660 965 569 975 q 839 950 750 956 l 894 950 l 944 1011 q 1208 1278 1069 1147 q 1497 1522 1347 1408 q 1808 1728 1647 1636 q 2139 1878 1969 1819 q 2367 1850 2314 1944 q 2378 1740 2392 1803 q 2322 1611 2364 1678 q 2210 1456 2281 1536 q 2043 1296 2139 1375 q 1828 1146 1947 1217 q 1567 1022 1708 1075 q 1258 938 1419 964 q 933 911 1097 911 l 906 911 l 878 878 q 756 729 825 817 q 614 547 686 642 q 474 363 542 453 q 358 208 406 272 q 592 257 472 233 q 825 301 711 281 q 1040 339 939 322 q 1217 367 1142 356 q 1589 401 1425 397 q 1844 383 1753 406 q 1856 361 1861 375 q 1833 350 1847 336 q 1596 363 1758 367 q 1228 333 1433 358 q 1039 304 1147 322 q 811 264 931 286 q 568 215 692 242 q 328 164 444 189 q 322 156 322 158 q 300 150 314 136 l 294 156 q 174 128 231 142 q 67 100 117 114 q 44 117 44 100 m 1556 1056 q 1810 1178 1692 1108 q 2021 1324 1928 1247 q 2182 1478 2114 1400 q 2289 1628 2250 1556 q 2340 1751 2331 1700 q 2333 1833 2350 1803 q 2276 1867 2319 1858 q 2144 1844 2233 1875 q 1824 1697 1981 1789 q 1519 1493 1667 1606 q 1235 1251 1372 1381 q 978 989 1097 1122 l 944 944 l 1028 950 q 1299 983 1167 958 q 1556 1056 1431 1008 m 2236 2069 q 2231 2083 2231 2075 q 2236 2092 2231 2092 q 2265 2121 2247 2100 q 2301 2167 2283 2142 q 2336 2214 2319 2192 q 2358 2247 2353 2236 q 2374 2263 2364 2256 q 2392 2264 2383 2269 q 2394 2249 2397 2258 q 2392 2231 2392 2239 q 2367 2192 2383 2217 q 2329 2140 2350 2167 q 2289 2092 2308 2114 q 2258 2064 2269 2069 q 2244 2060 2253 2058 q 2236 2069 2236 2061 z "},"Ľ":{"ha":1656,"x_min":36,"x_max":2425,"o":"m 44 117 q 39 131 36 122 q 56 139 42 139 q 174 168 111 153 q 308 197 236 183 q 419 349 350 256 q 567 543 489 442 q 722 742 644 644 q 856 906 800 839 l 861 917 l 839 917 q 471 963 650 925 q 167 1100 292 1000 q 146 1117 150 1106 q 146 1135 142 1128 q 163 1142 150 1142 q 189 1128 175 1142 q 325 1046 250 1078 q 485 994 400 1014 q 660 965 569 975 q 839 950 750 956 l 894 950 l 944 1011 q 1208 1278 1069 1147 q 1497 1522 1347 1408 q 1808 1728 1647 1636 q 2139 1878 1969 1819 q 2367 1850 2314 1944 q 2378 1740 2392 1803 q 2322 1611 2364 1678 q 2210 1456 2281 1536 q 2043 1296 2139 1375 q 1828 1146 1947 1217 q 1567 1022 1708 1075 q 1258 938 1419 964 q 933 911 1097 911 l 906 911 l 878 878 q 756 729 825 817 q 614 547 686 642 q 474 363 542 453 q 358 208 406 272 q 592 257 472 233 q 825 301 711 281 q 1040 339 939 322 q 1217 367 1142 356 q 1589 401 1425 397 q 1844 383 1753 406 q 1856 361 1861 375 q 1833 350 1847 336 q 1596 363 1758 367 q 1228 333 1433 358 q 1039 304 1147 322 q 811 264 931 286 q 568 215 692 242 q 328 164 444 189 q 322 156 322 158 q 300 150 314 136 l 294 156 q 174 128 231 142 q 67 100 117 114 q 44 117 44 100 m 1556 1056 q 1810 1178 1692 1108 q 2021 1324 1928 1247 q 2182 1478 2114 1400 q 2289 1628 2250 1556 q 2340 1751 2331 1700 q 2333 1833 2350 1803 q 2276 1867 2319 1858 q 2144 1844 2233 1875 q 1824 1697 1981 1789 q 1519 1493 1667 1606 q 1235 1251 1372 1381 q 978 989 1097 1122 l 944 944 l 1028 950 q 1299 983 1167 958 q 1556 1056 1431 1008 m 2311 2133 q 2317 2161 2300 2153 q 2389 2239 2364 2189 q 2411 2244 2400 2250 q 2417 2222 2425 2231 q 2382 2169 2400 2192 q 2339 2133 2364 2147 q 2311 2133 2319 2125 z "},"Ł":{"ha":1656,"x_min":36,"x_max":2392,"o":"m 294 156 q 174 128 231 142 q 67 100 117 114 q 44 117 44 100 q 39 131 36 122 q 56 139 42 139 q 174 168 111 153 q 308 197 236 183 q 383 301 339 239 q 481 433 428 364 q 590 578 533 503 q 703 719 647 653 l 347 658 q 319 657 342 658 q 303 675 297 656 q 319 697 300 692 q 339 703 328 700 q 504 726 394 708 q 739 764 614 744 l 856 906 l 861 917 l 839 917 q 471 963 650 925 q 167 1100 292 1000 q 146 1117 150 1106 q 146 1135 142 1128 q 163 1142 150 1142 q 189 1128 175 1142 q 325 1046 250 1078 q 485 994 400 1014 q 660 965 569 975 q 839 950 750 956 l 894 950 l 944 1011 q 1208 1278 1069 1147 q 1497 1522 1347 1408 q 1808 1728 1647 1636 q 2139 1878 1969 1819 q 2367 1850 2314 1944 q 2378 1740 2392 1803 q 2322 1611 2364 1678 q 2210 1456 2281 1536 q 2043 1296 2139 1375 q 1828 1146 1947 1217 q 1567 1022 1708 1075 q 1258 938 1419 964 q 933 911 1097 911 l 906 911 l 878 878 q 835 829 856 856 q 789 772 814 803 q 932 794 861 783 q 1063 817 1003 806 q 1167 835 1122 828 q 1236 844 1211 842 q 1258 842 1247 844 q 1278 822 1281 836 q 1261 808 1278 808 q 1242 808 1253 806 q 1160 794 1211 803 q 1043 776 1108 786 q 904 753 978 767 q 756 728 831 739 q 650 593 706 664 q 542 453 594 522 q 442 321 489 383 q 358 208 394 258 q 592 257 472 233 q 825 301 711 281 q 1040 339 939 322 q 1217 367 1142 356 q 1589 401 1425 397 q 1844 383 1753 406 q 1856 361 1861 375 q 1833 350 1847 336 q 1596 363 1758 367 q 1228 333 1433 358 q 1039 304 1147 322 q 811 264 931 286 q 568 215 692 242 q 328 164 444 189 q 322 156 322 158 q 300 150 314 136 l 294 156 m 1556 1056 q 1810 1178 1692 1108 q 2021 1324 1928 1247 q 2182 1478 2114 1400 q 2289 1628 2250 1556 q 2340 1751 2331 1700 q 2333 1833 2350 1803 q 2276 1867 2319 1858 q 2144 1844 2233 1875 q 1824 1697 1981 1789 q 1519 1493 1667 1606 q 1235 1251 1372 1381 q 978 989 1097 1122 l 944 944 l 1028 950 q 1299 983 1167 958 q 1556 1056 1431 1008 z "},"M":{"ha":2344,"x_min":86,"x_max":2525,"o":"m 2033 1133 q 2196 1282 2117 1214 q 2339 1406 2275 1350 q 2426 1490 2394 1461 q 2472 1533 2458 1519 l 2478 1539 l 2478 1544 q 2468 1553 2472 1550 q 2450 1550 2464 1556 q 2400 1535 2428 1544 q 2333 1500 2372 1525 q 2158 1393 2258 1461 q 1950 1250 2058 1325 q 1675 1029 1808 1136 q 1461 856 1542 922 l 1444 844 l 1433 833 q 1378 789 1381 789 q 1350 789 1364 781 q 1356 817 1339 808 q 1369 828 1358 819 q 1386 842 1375 833 q 1411 861 1397 850 l 1422 878 l 1578 1011 q 1818 1240 1703 1128 q 2022 1450 1933 1353 q 2128 1574 2081 1517 q 2200 1678 2175 1631 q 2232 1747 2231 1728 q 2228 1772 2233 1767 q 1817 1633 2139 1836 q 1582 1461 1708 1558 q 1322 1256 1456 1364 l 1272 1211 l 1256 1194 q 1113 1026 1189 1111 q 956 867 1036 942 q 686 621 822 736 q 433 422 550 506 q 336 353 386 386 q 240 294 286 319 q 160 254 194 269 q 106 244 125 239 q 100 256 100 250 q 89 269 86 261 q 106 283 92 278 q 218 360 131 289 q 456 561 306 431 q 767 831 597 683 q 1117 1133 936 978 l 1244 1239 l 1278 1289 q 1433 1553 1386 1431 q 1439 1756 1481 1675 l 1411 1789 l 1394 1806 q 1271 1846 1347 1836 q 1099 1847 1194 1856 q 896 1814 1003 1839 q 683 1750 789 1789 q 465 1657 567 1708 q 289 1549 364 1606 q 174 1433 214 1492 q 139 1322 133 1375 q 181 1278 142 1292 q 283 1268 219 1264 q 432 1292 347 1272 q 611 1344 517 1311 q 789 1422 706 1381 q 933 1506 872 1464 q 1028 1586 994 1547 q 1056 1656 1061 1625 q 1060 1669 1056 1661 q 1072 1678 1064 1678 q 1094 1661 1086 1678 q 1063 1569 1103 1617 q 954 1476 1022 1522 q 800 1389 886 1431 q 628 1317 714 1347 q 451 1263 542 1286 q 285 1235 361 1239 q 157 1249 208 1231 q 100 1322 106 1267 q 140 1454 94 1389 q 267 1579 186 1519 q 453 1692 347 1639 q 672 1783 558 1744 q 900 1853 783 1825 q 1122 1888 1017 1881 q 1311 1876 1228 1894 q 1439 1811 1394 1858 l 1444 1811 q 1490 1629 1511 1739 q 1394 1389 1469 1519 l 1356 1333 l 1472 1422 q 1643 1550 1561 1489 q 1800 1661 1725 1611 q 1938 1746 1869 1708 q 2064 1804 2006 1783 q 2171 1826 2122 1825 q 2250 1806 2219 1828 q 2269 1744 2278 1783 q 2231 1654 2261 1706 q 2153 1544 2200 1603 q 2056 1428 2106 1486 q 1989 1358 2022 1394 q 1922 1283 1956 1322 l 1850 1217 l 1928 1278 q 2136 1425 2036 1358 q 2317 1533 2236 1492 q 2388 1571 2356 1558 q 2444 1589 2419 1583 q 2493 1578 2475 1589 q 2511 1533 2511 1567 l 2511 1522 l 2506 1522 q 2463 1469 2500 1506 q 2365 1381 2425 1433 q 2226 1258 2306 1328 q 2056 1106 2147 1189 q 1949 997 2017 1067 q 1808 844 1881 928 q 1675 679 1736 761 q 1586 533 1614 597 q 1579 438 1558 469 q 1694 428 1600 406 q 1792 454 1728 433 q 1933 503 1856 475 q 2096 564 2011 531 q 2256 629 2181 597 q 2392 688 2331 661 q 2483 733 2453 714 q 2515 729 2506 742 q 2500 700 2525 717 q 2401 651 2467 681 q 2256 590 2336 622 q 2088 524 2175 558 q 1921 461 2000 489 q 1779 414 1842 433 q 1689 389 1717 394 q 1557 403 1592 372 q 1528 483 1522 433 q 1600 644 1536 550 q 1746 835 1664 739 q 1908 1013 1828 931 q 2033 1133 1989 1094 m 411 450 q 663 651 528 539 q 928 894 797 764 l 1111 1078 l 967 950 l 478 533 q 385 451 428 492 q 300 378 342 411 l 278 361 l 300 372 l 411 450 z "},"":{"ha":2122,"x_min":-233,"x_max":2303,"o":"m 833 617 q 821 619 825 611 q 817 633 817 628 q 849 810 819 686 q 932 1088 878 933 q 1068 1406 986 1242 q 1261 1706 1150 1569 q 1126 1593 1208 1661 q 950 1440 1044 1525 q 750 1261 856 1356 q 544 1068 644 1167 q 351 875 444 969 q 189 700 258 781 q 8 471 89 578 q -144 256 -72 364 q -178 201 -167 222 q -189 167 -189 181 l -189 156 q -206 133 -189 133 q -228 144 -217 122 l -228 150 q -218 204 -233 172 q -172 278 -203 236 q -11 511 -97 400 q 167 722 75 622 q 433 1010 278 856 q 744 1307 589 1164 q 1038 1567 900 1450 q 1256 1744 1175 1683 q 1324 1778 1306 1775 q 1342 1768 1342 1781 q 1326 1732 1342 1756 q 1294 1689 1311 1708 q 1110 1404 1189 1558 q 978 1104 1031 1250 q 897 843 925 958 q 867 678 869 728 l 878 689 l 894 700 q 1349 1067 1128 906 q 1753 1338 1569 1228 q 2067 1504 1936 1447 q 2250 1561 2197 1561 q 2285 1546 2272 1561 q 2283 1522 2297 1531 q 2119 1408 2211 1481 q 1929 1246 2028 1336 q 1733 1054 1831 1156 q 1557 854 1636 953 q 1421 669 1478 756 q 1346 524 1364 583 q 1356 436 1328 464 q 1472 428 1383 408 q 1569 454 1506 433 q 1711 503 1633 475 q 1874 564 1789 531 q 2033 629 1958 597 q 2169 688 2108 661 q 2261 733 2231 714 q 2293 729 2283 742 q 2278 700 2303 717 q 2179 651 2244 681 q 2033 590 2114 622 q 1865 524 1953 558 q 1699 461 1778 489 q 1557 414 1619 433 q 1467 389 1494 394 q 1331 400 1369 372 q 1300 478 1292 428 q 1358 636 1306 544 q 1492 831 1411 728 q 1669 1039 1572 933 q 1864 1236 1767 1144 q 2050 1400 1961 1328 q 2200 1511 2139 1472 q 1907 1379 2067 1464 q 1576 1182 1747 1294 q 1235 939 1406 1069 q 911 672 1064 808 l 856 622 l 844 622 q 836 617 839 617 l 833 617 l 833 617 z "},"":{"ha":2344,"x_min":-317,"x_max":2531,"o":"m 2033 1133 q 2196 1282 2117 1214 q 2339 1406 2275 1350 q 2396 1456 2364 1428 q 2449 1507 2428 1483 q 2474 1543 2469 1531 q 2450 1550 2478 1556 q 2400 1535 2428 1544 q 2333 1500 2372 1525 q 2158 1393 2258 1461 q 1950 1250 2058 1325 q 1850 1171 1900 1208 q 1750 1094 1800 1133 q 1424 771 1544 881 q 1240 618 1303 661 q 1158 576 1178 575 q 1139 583 1139 578 q 1175 650 1136 603 q 1283 761 1214 697 q 1447 904 1353 825 q 1656 1072 1542 983 q 1768 1176 1719 1128 q 1858 1269 1817 1225 q 1939 1358 1900 1314 q 2022 1450 1978 1403 q 2128 1574 2081 1517 q 2200 1678 2175 1631 q 2232 1747 2231 1728 q 2228 1772 2233 1767 q 1817 1633 2139 1836 q 1582 1461 1708 1558 q 1322 1256 1456 1364 l 1272 1211 l 1256 1194 q 1113 1026 1189 1111 q 956 867 1036 942 q 686 621 822 736 q 433 422 550 506 q 336 353 386 386 q 240 294 286 319 q 160 254 194 269 q 106 244 125 239 q 100 256 100 250 q 89 269 86 261 q 106 283 92 278 q 218 360 131 289 q 456 561 306 431 q 767 831 597 683 q 1117 1133 936 978 l 1244 1239 l 1278 1289 q 1433 1553 1386 1431 q 1439 1756 1481 1675 l 1411 1789 l 1394 1806 q 1263 1857 1347 1836 q 1064 1878 1178 1878 q 813 1850 950 1878 q 528 1756 675 1822 q 215 1588 367 1683 q -49 1386 64 1492 q -224 1174 -161 1281 q -267 972 -286 1067 q -200 899 -256 919 q -54 886 -144 878 q 154 928 36 894 q 406 1017 272 961 q 647 1143 531 1069 q 853 1293 764 1217 q 992 1440 942 1369 q 1033 1561 1042 1511 q 1038 1582 1033 1569 q 1056 1594 1042 1594 q 1065 1597 1064 1603 q 1072 1578 1067 1592 q 1032 1436 1083 1514 q 890 1279 981 1358 q 685 1125 800 1200 q 450 994 569 1050 q 207 900 333 939 q -28 851 81 861 q -211 867 -136 842 q -300 967 -286 892 q -253 1189 -317 1075 q -74 1411 -189 1303 q 193 1615 42 1519 q 500 1783 344 1711 q 803 1885 653 1853 q 1079 1917 953 1917 q 1300 1888 1206 1917 q 1439 1811 1394 1858 l 1444 1811 q 1490 1629 1511 1739 q 1394 1389 1469 1519 l 1356 1333 l 1472 1422 q 1643 1550 1561 1489 q 1800 1661 1725 1611 q 1938 1746 1869 1708 q 2064 1804 2006 1783 q 2171 1826 2122 1825 q 2250 1806 2219 1828 q 2269 1744 2278 1783 q 2231 1654 2261 1706 q 2153 1544 2200 1603 q 2056 1428 2106 1486 q 1989 1358 2022 1394 q 1922 1283 1956 1322 l 1850 1217 l 1928 1278 q 1993 1325 1947 1292 q 2097 1397 2039 1358 q 2219 1476 2156 1436 q 2342 1544 2283 1517 q 2444 1582 2400 1572 q 2511 1572 2489 1592 q 2488 1500 2531 1550 q 2372 1383 2444 1450 q 2213 1243 2300 1317 q 2056 1106 2125 1169 q 1949 997 2017 1067 q 1808 844 1881 928 q 1675 679 1736 761 q 1586 533 1614 597 q 1579 438 1558 469 q 1694 428 1600 406 q 1792 454 1728 433 q 1933 503 1856 475 q 2096 564 2011 531 q 2256 629 2181 597 q 2392 688 2331 661 q 2483 733 2453 714 q 2515 729 2506 742 q 2500 700 2525 717 q 2401 651 2467 681 q 2256 590 2336 622 q 2088 524 2175 558 q 1921 461 2000 489 q 1779 414 1842 433 q 1689 389 1717 394 q 1557 403 1592 372 q 1528 483 1522 433 q 1600 644 1536 550 q 1746 835 1664 739 q 1908 1013 1828 931 q 2033 1133 1989 1094 m 411 450 q 663 651 528 539 q 928 894 797 764 l 1111 1078 l 967 950 l 478 533 q 385 451 428 492 q 300 378 342 411 l 278 361 l 300 372 l 411 450 m 1594 978 q 1513 915 1561 956 q 1408 826 1464 875 q 1296 725 1353 778 q 1189 622 1239 672 q 1267 676 1231 650 q 1346 740 1303 703 q 1447 833 1389 778 q 1594 978 1506 889 z "},"N":{"ha":2361,"x_min":8,"x_max":2578,"o":"m 1950 1156 q 2115 1307 2039 1236 q 2256 1433 2192 1378 q 2389 1556 2378 1536 l 2394 1561 l 2389 1567 q 2361 1569 2375 1572 q 2322 1561 2347 1567 q 2219 1522 2281 1547 q 2078 1456 2158 1497 q 1715 1261 1919 1375 q 1294 1017 1511 1147 q 807 721 1042 867 q 389 467 572 575 l 344 439 l 256 378 q 185 331 219 353 q 119 293 150 308 q 64 272 89 278 q 28 272 39 267 q 22 275 22 272 q 17 278 22 278 q 11 294 8 283 q 28 306 14 306 q 118 351 50 314 q 300 456 186 389 l 322 472 l 328 478 q 582 674 444 561 q 850 917 719 786 q 1086 1164 978 1039 q 1267 1403 1194 1289 q 1367 1614 1339 1517 q 1361 1778 1394 1711 l 1333 1811 l 1317 1833 q 1197 1863 1269 1861 q 1038 1843 1125 1864 q 850 1785 950 1822 q 650 1694 750 1747 q 450 1572 544 1639 q 285 1439 356 1506 q 176 1307 214 1372 q 144 1189 139 1242 q 179 1143 147 1156 q 265 1138 211 1131 q 389 1169 319 1144 q 539 1233 458 1194 q 685 1314 617 1269 q 803 1403 753 1358 q 879 1489 853 1447 q 900 1561 906 1531 q 901 1572 900 1567 q 917 1578 903 1578 q 928 1578 922 1583 q 933 1567 933 1572 q 913 1474 944 1522 q 825 1375 881 1425 q 697 1281 769 1325 q 556 1200 625 1236 q 407 1135 483 1161 q 265 1101 331 1108 q 156 1114 200 1094 q 106 1189 111 1133 q 142 1324 100 1253 q 257 1465 183 1394 q 429 1604 331 1536 q 633 1728 528 1672 q 844 1824 736 1781 q 1051 1886 953 1867 q 1232 1896 1150 1906 q 1361 1839 1314 1886 l 1364 1839 q 1367 1833 1364 1839 q 1410 1649 1431 1758 q 1314 1413 1389 1539 q 1122 1151 1239 1286 q 878 889 1006 1017 q 742 764 811 825 q 606 644 672 703 l 583 628 l 644 667 q 951 854 792 756 q 1278 1050 1111 953 q 1697 1297 1494 1181 q 2056 1489 1900 1414 q 2188 1550 2119 1519 q 2310 1596 2256 1581 q 2399 1606 2364 1611 q 2433 1561 2433 1600 l 2433 1550 l 2431 1550 q 2428 1544 2428 1550 q 2385 1494 2422 1531 q 2286 1404 2347 1458 q 2146 1281 2225 1350 q 1978 1128 2067 1211 q 1892 1047 1944 1097 q 1779 936 1839 997 q 1661 810 1719 875 q 1560 686 1603 744 q 1494 578 1517 628 q 1489 500 1472 528 q 1586 443 1511 450 q 1761 454 1661 436 q 1976 511 1861 472 q 2200 596 2092 550 q 2396 686 2308 642 q 2528 761 2483 731 q 2564 761 2550 775 q 2556 733 2578 747 q 2414 651 2508 700 q 2204 554 2319 603 q 1964 465 2089 506 q 1732 411 1839 425 q 1547 414 1625 397 q 1447 500 1469 431 q 1465 610 1433 544 q 1565 758 1497 675 q 1732 942 1633 842 q 1950 1156 1831 1042 z "},"":{"ha":2361,"x_min":8,"x_max":2578,"o":"m 1300 278 q 1293 343 1286 303 q 1322 433 1300 383 q 1439 619 1367 525 q 1596 807 1511 714 q 1772 988 1681 900 q 1950 1156 1864 1075 q 2115 1307 2039 1236 q 2256 1433 2192 1378 q 2389 1556 2378 1536 l 2394 1561 l 2389 1567 q 2361 1569 2375 1572 q 2322 1561 2347 1567 q 2219 1522 2281 1547 q 2078 1456 2158 1497 q 1715 1261 1919 1375 q 1294 1017 1511 1147 q 807 721 1042 867 q 389 467 572 575 l 344 439 l 256 378 q 185 331 219 353 q 119 293 150 308 q 64 272 89 278 q 28 272 39 267 q 22 275 22 272 q 17 278 22 278 q 11 294 8 283 q 28 306 14 306 q 118 351 50 314 q 300 456 186 389 l 322 472 l 328 478 q 582 674 444 561 q 850 917 719 786 q 1086 1164 978 1039 q 1267 1403 1194 1289 q 1367 1614 1339 1517 q 1361 1778 1394 1711 l 1333 1811 l 1317 1833 q 1197 1863 1269 1861 q 1038 1843 1125 1864 q 850 1785 950 1822 q 650 1694 750 1747 q 450 1572 544 1639 q 285 1439 356 1506 q 176 1307 214 1372 q 144 1189 139 1242 q 179 1143 147 1156 q 265 1138 211 1131 q 389 1169 319 1144 q 539 1233 458 1194 q 685 1314 617 1269 q 803 1403 753 1358 q 879 1489 853 1447 q 900 1561 906 1531 q 901 1572 900 1567 q 917 1578 903 1578 q 928 1578 922 1583 q 933 1567 933 1572 q 913 1474 944 1522 q 825 1375 881 1425 q 697 1281 769 1325 q 556 1200 625 1236 q 407 1135 483 1161 q 265 1101 331 1108 q 156 1114 200 1094 q 106 1189 111 1133 q 142 1324 100 1253 q 257 1465 183 1394 q 429 1604 331 1536 q 633 1728 528 1672 q 844 1824 736 1781 q 1051 1886 953 1867 q 1232 1896 1150 1906 q 1361 1839 1314 1886 l 1364 1839 q 1367 1833 1364 1839 q 1410 1649 1431 1758 q 1314 1413 1389 1539 q 1122 1151 1239 1286 q 878 889 1006 1017 q 742 764 811 825 q 606 644 672 703 l 583 628 l 644 667 q 951 854 792 756 q 1278 1050 1111 953 q 1697 1297 1494 1181 q 2056 1489 1900 1414 q 2188 1550 2119 1519 q 2310 1596 2256 1581 q 2399 1606 2364 1611 q 2433 1561 2433 1600 l 2433 1550 l 2431 1550 q 2428 1544 2428 1550 q 2385 1494 2422 1531 q 2286 1404 2347 1458 q 2146 1281 2225 1350 q 1978 1128 2067 1211 q 1819 983 1900 1058 q 1664 829 1739 908 q 1522 668 1589 750 q 1406 506 1456 586 l 1356 411 l 1339 367 q 1339 289 1322 314 q 1417 261 1347 261 q 1601 306 1489 267 q 1856 411 1714 344 q 2011 485 1925 444 q 2188 569 2097 525 q 2365 663 2278 614 q 2528 761 2453 711 q 2564 761 2550 775 q 2556 733 2578 747 q 2390 635 2481 683 q 2208 540 2300 586 q 2029 454 2117 494 q 1872 378 1942 414 q 1614 274 1731 314 q 1417 228 1497 233 q 1347 233 1378 222 q 1300 278 1317 244 z "},"":{"ha":1611,"x_min":-478,"x_max":2506,"o":"m 1100 392 q 1097 397 1097 394 q 1094 406 1097 400 q 1099 501 1086 431 q 1138 676 1111 572 q 1201 910 1164 781 q 1282 1182 1239 1039 q 1369 1474 1325 1325 q 1456 1767 1414 1622 q 1318 1615 1411 1711 q 1101 1399 1225 1519 q 832 1140 978 1278 q 536 867 686 1003 q 240 606 386 731 q -31 383 94 481 q -250 226 -156 286 q -389 161 -344 167 q -469 171 -461 153 q -406 194 -478 189 q -265 260 -358 200 q -49 415 -172 319 q 219 636 75 511 q 513 897 364 761 q 808 1171 661 1033 q 1081 1431 956 1308 q 1304 1653 1206 1553 q 1456 1811 1403 1753 q 1504 1825 1497 1836 q 1494 1756 1511 1814 q 1386 1397 1447 1592 q 1269 1021 1325 1203 q 1175 692 1214 839 q 1133 478 1136 544 q 1140 489 1136 483 q 1150 500 1144 494 q 1369 781 1247 633 q 1619 1072 1492 928 q 1875 1350 1747 1217 q 2115 1592 2003 1483 q 2317 1775 2228 1700 q 2456 1878 2406 1850 q 2482 1890 2464 1883 q 2500 1889 2500 1897 q 2492 1865 2506 1881 q 2472 1844 2478 1850 q 2346 1749 2431 1819 q 2153 1574 2261 1678 q 1918 1340 2044 1469 q 1665 1071 1792 1211 q 1417 783 1539 931 q 1194 500 1294 636 q 1157 435 1169 461 q 1139 394 1144 408 l 1139 389 q 1136 367 1144 372 q 1122 367 1128 361 q 1100 378 1100 356 l 1100 392 z "},"A":{"ha":2322,"x_min":-261,"x_max":2675,"o":"m -33 767 q -39 789 -47 781 q 6 831 -31 814 q 89 856 42 847 q 213 885 144 872 q 361 911 281 897 q 733 954 528 936 q 1156 989 939 972 q 1197 992 1178 989 q 1239 1000 1217 994 q 1453 1175 1342 1081 q 1672 1360 1564 1269 q 1879 1529 1781 1450 q 2050 1661 1978 1608 q 2219 1781 2128 1719 q 2396 1888 2311 1842 q 2549 1953 2481 1933 q 2650 1950 2617 1972 q 2674 1903 2675 1933 q 2650 1831 2672 1872 q 2590 1740 2628 1789 q 2511 1640 2553 1692 q 2425 1540 2469 1589 q 2344 1450 2381 1492 q 2194 1276 2286 1375 q 2011 1072 2103 1178 q 2129 1088 2078 1078 q 2222 1106 2181 1097 l 2306 1122 q 2331 1131 2322 1128 q 2344 1133 2339 1133 q 2353 1143 2344 1142 q 2367 1139 2361 1144 q 2367 1111 2375 1119 q 2346 1097 2358 1103 q 2317 1083 2333 1092 l 2233 1072 q 2118 1050 2183 1058 q 1978 1033 2053 1042 q 1860 890 1914 961 q 1765 757 1806 819 q 1706 644 1725 694 q 1694 561 1686 594 q 1758 499 1706 511 q 1886 500 1811 486 q 2049 544 1961 514 q 2221 613 2136 575 q 2375 686 2306 650 q 2483 744 2444 722 q 2506 739 2494 750 q 2500 717 2511 728 q 2382 649 2458 689 q 2214 569 2306 608 q 2026 499 2122 531 q 1850 458 1931 467 q 1714 469 1769 450 q 1650 556 1658 489 q 1664 642 1644 592 q 1721 754 1683 692 q 1811 886 1758 817 q 1928 1028 1864 956 q 1613 997 1786 1011 q 1256 967 1439 983 l 1167 894 q 892 681 1031 786 q 618 483 753 575 q 356 322 483 392 q 115 215 228 253 q -92 179 3 178 q -256 233 -186 181 q -258 247 -256 239 q -256 256 -261 256 q -242 267 -250 264 q -228 261 -233 269 q 7 222 -139 192 q 333 351 153 253 q 722 600 514 450 q 1144 922 931 750 q 1163 939 1153 931 q 1189 956 1172 947 l 1161 956 q 739 917 944 933 q 367 878 533 900 q 217 849 283 861 q 100 822 150 836 q 53 808 69 814 q 22 794 36 803 q -6 778 -6 786 q -33 767 -11 767 m 2633 1922 q 2558 1924 2617 1942 q 2421 1861 2500 1906 q 2250 1756 2342 1817 q 2072 1633 2158 1694 q 1908 1507 2000 1581 q 1715 1349 1817 1433 q 1508 1175 1614 1264 q 1306 1006 1403 1086 l 1950 1067 l 1961 1067 q 2206 1343 2078 1203 q 2435 1601 2333 1483 q 2594 1806 2536 1719 q 2633 1922 2653 1892 z "},"Ń":{"ha":2361,"x_min":8,"x_max":2578,"o":"m 1572 789 q 1764 979 1669 886 q 1950 1156 1858 1072 q 2115 1307 2039 1236 q 2256 1433 2192 1378 q 2389 1556 2378 1536 l 2394 1561 l 2389 1567 q 2361 1569 2375 1572 q 2322 1561 2347 1567 q 2219 1522 2281 1547 q 2078 1456 2158 1497 q 1715 1261 1919 1375 q 1294 1017 1511 1147 q 807 721 1042 867 q 389 467 572 575 l 344 439 l 256 378 q 185 331 219 353 q 119 293 150 308 q 64 272 89 278 q 28 272 39 267 q 22 275 22 272 q 17 278 22 278 q 11 294 8 283 q 28 306 14 306 q 118 351 50 314 q 300 456 186 389 l 322 472 l 328 478 q 582 674 444 561 q 850 917 719 786 q 1086 1164 978 1039 q 1267 1403 1194 1289 q 1367 1614 1339 1517 q 1361 1778 1394 1711 l 1333 1811 l 1317 1833 q 1197 1863 1269 1861 q 1038 1843 1125 1864 q 850 1785 950 1822 q 650 1694 750 1747 q 450 1572 544 1639 q 285 1439 356 1506 q 176 1307 214 1372 q 144 1189 139 1242 q 179 1143 147 1156 q 265 1138 211 1131 q 389 1169 319 1144 q 539 1233 458 1194 q 685 1314 617 1269 q 803 1403 753 1358 q 879 1489 853 1447 q 900 1561 906 1531 q 901 1572 900 1567 q 917 1578 903 1578 q 928 1578 922 1583 q 933 1567 933 1572 q 913 1474 944 1522 q 825 1375 881 1425 q 697 1281 769 1325 q 556 1200 625 1236 q 407 1135 483 1161 q 265 1101 331 1108 q 156 1114 200 1094 q 106 1189 111 1133 q 142 1324 100 1253 q 257 1465 183 1394 q 429 1604 331 1536 q 633 1728 528 1672 q 844 1824 736 1781 q 1051 1886 953 1867 q 1232 1896 1150 1906 q 1361 1839 1314 1886 l 1364 1839 q 1367 1833 1364 1839 q 1410 1649 1431 1758 q 1314 1413 1389 1539 q 1122 1151 1239 1286 q 878 889 1006 1017 q 742 764 811 825 q 606 644 672 703 l 583 628 l 644 667 q 951 854 792 756 q 1278 1050 1111 953 q 1697 1297 1494 1181 q 2056 1489 1900 1414 q 2188 1550 2119 1519 q 2310 1596 2256 1581 q 2399 1606 2364 1611 q 2433 1561 2433 1600 l 2433 1550 l 2431 1550 q 2428 1544 2428 1550 q 2385 1494 2422 1531 q 2286 1404 2347 1458 q 2146 1281 2225 1350 q 1978 1128 2067 1211 q 1794 958 1886 1039 q 1611 778 1703 878 q 1488 643 1544 706 q 1390 531 1431 581 q 1332 439 1350 481 q 1328 367 1314 397 q 1436 319 1350 317 q 1642 356 1522 322 q 1897 444 1761 389 q 2158 561 2033 500 q 2383 676 2283 622 q 2528 761 2483 731 q 2564 761 2550 775 q 2556 733 2578 747 q 2403 643 2508 703 q 2164 521 2297 583 q 1885 400 2031 458 q 1614 313 1739 342 q 1400 290 1489 283 q 1289 367 1311 297 q 1349 533 1267 433 q 1572 789 1431 633 m 1872 1944 q 1867 1958 1867 1950 q 1872 1967 1867 1967 q 1901 1996 1883 1975 q 1938 2042 1919 2017 q 1972 2089 1956 2067 q 1994 2122 1989 2111 q 2010 2138 2000 2131 q 2028 2139 2019 2144 q 2031 2124 2033 2133 q 2028 2106 2028 2114 q 2003 2067 2019 2092 q 1965 2015 1986 2042 q 1925 1967 1944 1989 q 1894 1939 1906 1944 q 1881 1935 1889 1933 q 1872 1944 1872 1936 z "},"Ň":{"ha":2361,"x_min":8,"x_max":2578,"o":"m 1572 789 q 1764 979 1669 886 q 1950 1156 1858 1072 q 2115 1307 2039 1236 q 2256 1433 2192 1378 q 2389 1556 2378 1536 l 2394 1561 l 2389 1567 q 2361 1569 2375 1572 q 2322 1561 2347 1567 q 2219 1522 2281 1547 q 2078 1456 2158 1497 q 1715 1261 1919 1375 q 1294 1017 1511 1147 q 807 721 1042 867 q 389 467 572 575 l 344 439 l 256 378 q 185 331 219 353 q 119 293 150 308 q 64 272 89 278 q 28 272 39 267 q 22 275 22 272 q 17 278 22 278 q 11 294 8 283 q 28 306 14 306 q 118 351 50 314 q 300 456 186 389 l 322 472 l 328 478 q 582 674 444 561 q 850 917 719 786 q 1086 1164 978 1039 q 1267 1403 1194 1289 q 1367 1614 1339 1517 q 1361 1778 1394 1711 l 1333 1811 l 1317 1833 q 1197 1863 1269 1861 q 1038 1843 1125 1864 q 850 1785 950 1822 q 650 1694 750 1747 q 450 1572 544 1639 q 285 1439 356 1506 q 176 1307 214 1372 q 144 1189 139 1242 q 179 1143 147 1156 q 265 1138 211 1131 q 389 1169 319 1144 q 539 1233 458 1194 q 685 1314 617 1269 q 803 1403 753 1358 q 879 1489 853 1447 q 900 1561 906 1531 q 901 1572 900 1567 q 917 1578 903 1578 q 928 1578 922 1583 q 933 1567 933 1572 q 913 1474 944 1522 q 825 1375 881 1425 q 697 1281 769 1325 q 556 1200 625 1236 q 407 1135 483 1161 q 265 1101 331 1108 q 156 1114 200 1094 q 106 1189 111 1133 q 142 1324 100 1253 q 257 1465 183 1394 q 429 1604 331 1536 q 633 1728 528 1672 q 844 1824 736 1781 q 1051 1886 953 1867 q 1232 1896 1150 1906 q 1361 1839 1314 1886 l 1364 1839 q 1367 1833 1364 1839 q 1410 1649 1431 1758 q 1314 1413 1389 1539 q 1122 1151 1239 1286 q 878 889 1006 1017 q 742 764 811 825 q 606 644 672 703 l 583 628 l 644 667 q 951 854 792 756 q 1278 1050 1111 953 q 1697 1297 1494 1181 q 2056 1489 1900 1414 q 2188 1550 2119 1519 q 2310 1596 2256 1581 q 2399 1606 2364 1611 q 2433 1561 2433 1600 l 2433 1550 l 2431 1550 q 2428 1544 2428 1550 q 2385 1494 2422 1531 q 2286 1404 2347 1458 q 2146 1281 2225 1350 q 1978 1128 2067 1211 q 1794 958 1886 1039 q 1611 778 1703 878 q 1488 643 1544 706 q 1390 531 1431 581 q 1332 439 1350 481 q 1328 367 1314 397 q 1436 319 1350 317 q 1642 356 1522 322 q 1897 444 1761 389 q 2158 561 2033 500 q 2383 676 2283 622 q 2528 761 2483 731 q 2564 761 2550 775 q 2556 733 2578 747 q 2403 643 2508 703 q 2164 521 2297 583 q 1885 400 2031 458 q 1614 313 1739 342 q 1400 290 1489 283 q 1289 367 1311 297 q 1349 533 1267 433 q 1572 789 1431 633 m 1839 2119 q 1839 2142 1817 2142 q 1853 2144 1847 2147 q 1867 2136 1858 2142 q 1901 2067 1889 2106 q 1928 1986 1914 2028 q 2013 2043 1958 2003 q 2189 2125 2067 2083 q 2211 2114 2200 2125 q 2213 2099 2217 2100 q 2200 2092 2208 2097 q 2089 2047 2133 2069 q 2014 2004 2044 2025 q 1963 1968 1983 1983 q 1922 1942 1942 1953 q 1901 1954 1908 1942 q 1889 1975 1894 1967 q 1882 2013 1883 2000 q 1876 2038 1881 2025 q 1865 2068 1872 2050 q 1839 2119 1858 2086 z "},"Ñ":{"ha":2361,"x_min":8,"x_max":2578,"o":"m 1572 789 q 1764 979 1669 886 q 1950 1156 1858 1072 q 2115 1307 2039 1236 q 2256 1433 2192 1378 q 2389 1556 2378 1536 l 2394 1561 l 2389 1567 q 2361 1569 2375 1572 q 2322 1561 2347 1567 q 2219 1522 2281 1547 q 2078 1456 2158 1497 q 1715 1261 1919 1375 q 1294 1017 1511 1147 q 807 721 1042 867 q 389 467 572 575 l 344 439 l 256 378 q 185 331 219 353 q 119 293 150 308 q 64 272 89 278 q 28 272 39 267 q 22 275 22 272 q 17 278 22 278 q 11 294 8 283 q 28 306 14 306 q 118 351 50 314 q 300 456 186 389 l 322 472 l 328 478 q 582 674 444 561 q 850 917 719 786 q 1086 1164 978 1039 q 1267 1403 1194 1289 q 1367 1614 1339 1517 q 1361 1778 1394 1711 l 1333 1811 l 1317 1833 q 1197 1863 1269 1861 q 1038 1843 1125 1864 q 850 1785 950 1822 q 650 1694 750 1747 q 450 1572 544 1639 q 285 1439 356 1506 q 176 1307 214 1372 q 144 1189 139 1242 q 179 1143 147 1156 q 265 1138 211 1131 q 389 1169 319 1144 q 539 1233 458 1194 q 685 1314 617 1269 q 803 1403 753 1358 q 879 1489 853 1447 q 900 1561 906 1531 q 901 1572 900 1567 q 917 1578 903 1578 q 928 1578 922 1583 q 933 1567 933 1572 q 913 1474 944 1522 q 825 1375 881 1425 q 697 1281 769 1325 q 556 1200 625 1236 q 407 1135 483 1161 q 265 1101 331 1108 q 156 1114 200 1094 q 106 1189 111 1133 q 142 1324 100 1253 q 257 1465 183 1394 q 429 1604 331 1536 q 633 1728 528 1672 q 844 1824 736 1781 q 1051 1886 953 1867 q 1232 1896 1150 1906 q 1361 1839 1314 1886 l 1364 1839 q 1367 1833 1364 1839 q 1410 1649 1431 1758 q 1314 1413 1389 1539 q 1122 1151 1239 1286 q 878 889 1006 1017 q 742 764 811 825 q 606 644 672 703 l 583 628 l 644 667 q 951 854 792 756 q 1278 1050 1111 953 q 1697 1297 1494 1181 q 2056 1489 1900 1414 q 2188 1550 2119 1519 q 2310 1596 2256 1581 q 2399 1606 2364 1611 q 2433 1561 2433 1600 l 2433 1550 l 2431 1550 q 2428 1544 2428 1550 q 2385 1494 2422 1531 q 2286 1404 2347 1458 q 2146 1281 2225 1350 q 1978 1128 2067 1211 q 1794 958 1886 1039 q 1611 778 1703 878 q 1488 643 1544 706 q 1390 531 1431 581 q 1332 439 1350 481 q 1328 367 1314 397 q 1436 319 1350 317 q 1642 356 1522 322 q 1897 444 1761 389 q 2158 561 2033 500 q 2383 676 2283 622 q 2528 761 2483 731 q 2564 761 2550 775 q 2556 733 2578 747 q 2403 643 2508 703 q 2164 521 2297 583 q 1885 400 2031 458 q 1614 313 1739 342 q 1400 290 1489 283 q 1289 367 1311 297 q 1349 533 1267 433 q 1572 789 1431 633 m 1700 2017 q 1694 2044 1686 2031 q 1743 2100 1717 2083 q 1800 2122 1769 2117 q 1867 2118 1833 2122 q 1933 2100 1900 2114 q 1996 2082 1967 2092 q 2056 2067 2025 2072 q 2128 2083 2103 2058 q 2156 2089 2144 2100 q 2156 2061 2175 2069 q 2104 2032 2133 2036 q 2044 2033 2075 2028 q 1986 2046 2019 2033 q 1922 2067 1953 2058 q 1860 2082 1889 2075 q 1806 2083 1831 2089 q 1760 2068 1781 2078 q 1722 2028 1739 2058 q 1700 2017 1722 2006 z "},"O":{"ha":1744,"x_min":-144,"x_max":1964,"o":"m -28 167 q -135 315 -125 217 q -90 539 -144 414 q 68 803 -36 664 q 300 1072 172 942 l 350 1117 l 361 1133 q 513 1367 417 1253 q 725 1578 608 1481 q 969 1747 842 1675 q 1219 1856 1097 1819 q 1447 1885 1342 1892 q 1628 1817 1553 1878 q 1682 1624 1694 1742 q 1599 1364 1669 1506 q 1413 1071 1528 1222 q 1161 778 1297 919 q 1086 706 1122 739 q 1011 639 1050 672 l 867 517 q 1411 569 1144 519 q 1928 761 1678 619 q 1956 750 1944 769 q 1944 722 1964 733 q 1664 596 1822 647 q 1349 517 1506 544 q 1050 479 1192 489 q 819 478 908 469 q 592 324 706 392 q 369 213 478 256 q 161 156 261 169 q -22 167 61 142 l -28 167 m 1133 806 q 1374 1081 1267 942 q 1549 1346 1481 1219 q 1638 1581 1617 1472 q 1622 1761 1658 1689 l 1600 1789 l 1567 1817 q 1318 1844 1467 1872 q 1013 1731 1169 1817 q 708 1517 856 1644 q 467 1244 561 1389 l 433 1200 l 439 1200 q 693 1410 561 1311 q 953 1579 825 1508 q 1196 1685 1081 1650 q 1400 1706 1311 1719 q 1411 1683 1411 1700 q 1407 1672 1411 1678 q 1389 1672 1403 1667 q 1199 1649 1308 1683 q 967 1546 1089 1614 q 715 1381 844 1478 q 467 1172 586 1283 l 383 1100 l 372 1072 q 333 843 325 956 q 422 639 342 731 q 547 563 464 589 q 744 522 631 536 l 811 517 l 833 539 q 1133 806 992 656 m 767 483 l 733 483 q 529 529 617 497 q 394 617 442 561 q 303 803 319 700 q 317 1011 286 906 l 322 1033 l 267 978 q 74 740 156 856 q -53 525 -8 625 q -99 346 -97 425 q -44 222 -100 267 l -11 200 q 154 190 64 178 q 344 240 244 203 q 550 339 444 278 q 761 478 656 400 l 767 483 z "},"":{"ha":1728,"x_min":-144,"x_max":1950,"o":"m 456 917 q 564 1099 489 1008 q 735 1269 639 1189 q 939 1414 831 1350 q 1146 1517 1047 1478 q 1325 1561 1244 1556 q 1450 1533 1406 1567 q 1500 1449 1483 1506 q 1479 1289 1517 1392 q 1333 1033 1442 1186 q 1011 661 1225 881 l 856 533 q 1064 519 942 519 q 1326 543 1186 519 q 1615 617 1467 567 q 1906 756 1764 667 q 1929 764 1914 761 q 1944 761 1944 767 q 1932 729 1950 747 q 1906 706 1914 711 q 1594 567 1753 617 q 1290 494 1436 517 q 1021 475 1144 472 q 811 500 897 478 q 582 340 697 411 q 358 225 467 269 q 150 169 250 181 q -28 189 50 158 q -135 338 -125 239 q -90 561 -144 436 q 68 825 -36 686 q 300 1094 172 964 q 683 1401 492 1283 q 1044 1578 875 1519 q 1350 1646 1214 1636 q 1567 1628 1486 1656 q 1583 1606 1583 1619 q 1561 1589 1583 1589 q 1347 1607 1481 1614 q 1043 1539 1214 1600 q 675 1350 872 1478 q 267 1006 478 1222 q 74 767 156 883 q -53 550 -8 650 q -99 369 -97 450 q -44 244 -100 289 l -11 222 q 154 213 64 200 q 344 263 244 225 q 550 361 444 300 q 761 500 656 422 l 767 511 q 631 554 700 522 q 511 636 561 586 q 442 757 461 686 q 456 917 422 828 m 833 561 q 1015 728 922 636 q 1189 914 1108 819 q 1333 1101 1269 1008 q 1431 1275 1397 1194 q 1463 1415 1464 1356 q 1411 1506 1461 1475 q 1294 1521 1369 1531 q 1129 1474 1219 1511 q 940 1376 1039 1436 q 754 1243 842 1317 q 597 1085 667 1169 q 494 917 528 1000 q 482 756 456 822 q 565 644 508 689 q 692 575 622 600 q 811 539 761 550 l 833 561 z "},"Œ":{"ha":2222,"x_min":-144,"x_max":2944,"o":"m 361 1133 q 661 1382 514 1269 q 943 1571 808 1494 q 1194 1683 1078 1647 q 1400 1706 1311 1719 q 1411 1683 1411 1700 q 1407 1672 1411 1678 q 1389 1672 1403 1667 q 1176 1636 1308 1683 q 890 1496 1044 1589 q 574 1271 736 1403 q 267 978 411 1139 q 74 740 156 856 q -53 525 -8 625 q -99 346 -97 425 q -44 222 -100 267 l -11 200 q 154 190 64 178 q 344 240 244 203 q 550 339 444 278 q 761 478 656 400 l 767 483 l 1011 683 l 1178 872 l 1072 844 q 1047 838 1067 844 q 1022 844 1028 831 q 1033 867 1019 858 l 1050 872 q 1121 892 1081 881 q 1217 911 1161 903 q 1296 996 1258 953 q 1372 1078 1333 1039 q 1510 1281 1450 1181 q 1603 1469 1569 1381 q 1643 1632 1636 1558 q 1622 1761 1650 1706 l 1600 1789 l 1567 1817 q 1361 1849 1481 1861 q 1111 1778 1242 1836 q 850 1626 981 1719 q 611 1422 719 1533 q 550 1389 561 1372 q 594 1456 539 1406 q 860 1678 714 1578 q 1149 1832 1006 1778 q 1418 1888 1292 1886 q 1628 1817 1544 1889 q 1676 1707 1667 1769 q 1671 1568 1686 1644 q 1617 1406 1656 1492 q 1522 1228 1578 1319 q 1847 1546 1689 1400 q 2122 1800 2006 1692 q 1917 1753 2014 1778 q 1739 1694 1819 1728 q 1719 1688 1725 1689 q 1700 1694 1714 1686 q 1700 1710 1692 1703 q 1717 1722 1708 1717 q 1921 1790 1806 1764 q 2167 1839 2036 1817 q 2208 1882 2189 1864 q 2250 1917 2228 1900 q 2278 1917 2258 1925 q 2278 1894 2289 1906 l 2233 1856 q 2432 1879 2333 1869 q 2622 1893 2531 1889 q 2792 1899 2714 1897 q 2928 1900 2869 1900 q 2943 1881 2942 1900 q 2922 1861 2944 1861 q 2565 1851 2758 1861 q 2183 1811 2372 1842 q 1831 1483 2036 1678 q 1411 1067 1625 1289 l 1300 928 q 1483 960 1386 944 q 1675 988 1581 975 q 1856 1011 1769 1000 q 2006 1028 1942 1022 l 2019 1028 q 2029 1022 2025 1025 q 2033 1011 2033 1019 q 2019 997 2033 1003 q 2006 994 2011 994 q 1829 975 1925 986 q 1635 950 1733 964 q 1440 921 1536 936 q 1261 889 1344 906 l 1161 778 l 1033 656 q 828 408 917 525 q 683 194 739 292 q 932 246 803 219 q 1186 296 1061 272 q 1422 338 1311 319 q 1617 367 1533 356 q 1989 401 1825 397 q 2244 383 2153 406 q 2256 361 2261 375 q 2233 350 2247 336 q 1996 363 2158 367 q 1628 333 1833 358 q 1422 300 1539 319 q 1176 256 1306 281 q 914 201 1047 231 q 661 144 781 172 l 644 100 q 617 89 639 81 q 611 117 603 89 q 617 139 611 128 l 467 100 q 444 117 444 100 q 439 131 436 122 q 456 139 442 139 l 639 183 q 742 347 681 258 q 883 533 803 436 l 817 478 q 606 329 717 397 q 385 217 494 261 q 169 157 275 172 q -22 167 64 142 l -28 167 q -135 315 -125 217 q -90 539 -144 414 q 68 803 -36 664 q 300 1072 172 942 l 361 1133 z "},"Ó":{"ha":1744,"x_min":-144,"x_max":1964,"o":"m -28 167 q -135 315 -125 217 q -90 539 -144 414 q 68 803 -36 664 q 300 1072 172 942 l 350 1117 l 361 1133 q 513 1367 417 1253 q 725 1578 608 1481 q 969 1747 842 1675 q 1219 1856 1097 1819 q 1447 1885 1342 1892 q 1628 1817 1553 1878 q 1682 1624 1694 1742 q 1599 1364 1669 1506 q 1413 1071 1528 1222 q 1161 778 1297 919 q 1086 706 1122 739 q 1011 639 1050 672 l 867 517 q 1411 569 1144 519 q 1928 761 1678 619 q 1956 750 1944 769 q 1944 722 1964 733 q 1664 594 1822 644 q 1347 515 1506 544 q 1047 478 1189 486 q 817 478 906 469 q 606 329 717 397 q 385 217 494 261 q 169 157 275 172 q -22 167 64 142 l -28 167 m 1133 806 q 1374 1081 1267 942 q 1549 1346 1481 1219 q 1638 1581 1617 1472 q 1622 1761 1658 1689 l 1600 1789 l 1567 1817 q 1318 1844 1467 1872 q 1013 1731 1169 1817 q 708 1517 856 1644 q 467 1244 561 1389 l 433 1200 l 439 1200 q 693 1410 561 1311 q 953 1579 825 1508 q 1196 1685 1081 1650 q 1400 1706 1311 1719 q 1411 1683 1411 1700 q 1407 1672 1411 1678 q 1389 1672 1403 1667 q 1199 1649 1308 1683 q 967 1546 1089 1614 q 715 1381 844 1478 q 467 1172 586 1283 l 383 1100 l 372 1072 q 333 843 325 956 q 422 639 342 731 q 547 563 464 589 q 744 522 631 536 l 811 517 l 833 539 q 1133 806 992 656 m 767 483 l 733 483 q 529 529 617 497 q 394 617 442 561 q 303 803 319 700 q 317 1011 286 906 l 322 1033 l 267 978 q 74 740 156 856 q -53 525 -8 625 q -99 346 -97 425 q -44 222 -100 267 l -11 200 q 154 190 64 178 q 344 240 244 203 q 550 339 444 278 q 761 478 656 400 l 767 483 m 1544 2050 q 1539 2064 1539 2056 q 1544 2078 1539 2072 q 1574 2104 1556 2083 q 1610 2150 1592 2125 q 1644 2197 1628 2175 q 1667 2233 1661 2219 q 1682 2246 1672 2239 q 1700 2244 1692 2253 q 1703 2229 1706 2239 q 1700 2211 1700 2219 q 1675 2172 1692 2197 q 1638 2121 1658 2147 q 1597 2072 1617 2094 q 1567 2044 1578 2050 q 1553 2040 1561 2039 q 1544 2050 1544 2042 z "},"Ô":{"ha":1744,"x_min":-144,"x_max":1964,"o":"m -28 167 q -135 315 -125 217 q -90 539 -144 414 q 68 803 -36 664 q 300 1072 172 942 l 350 1117 l 361 1133 q 513 1367 417 1253 q 725 1578 608 1481 q 969 1747 842 1675 q 1219 1856 1097 1819 q 1447 1885 1342 1892 q 1628 1817 1553 1878 q 1682 1624 1694 1742 q 1599 1364 1669 1506 q 1413 1071 1528 1222 q 1161 778 1297 919 q 1086 706 1122 739 q 1011 639 1050 672 l 867 517 q 1411 569 1144 519 q 1928 761 1678 619 q 1956 750 1944 769 q 1944 722 1964 733 q 1664 594 1822 644 q 1347 515 1506 544 q 1047 478 1189 486 q 817 478 906 469 q 606 329 717 397 q 385 217 494 261 q 169 157 275 172 q -22 167 64 142 l -28 167 m 1133 806 q 1374 1081 1267 942 q 1549 1346 1481 1219 q 1638 1581 1617 1472 q 1622 1761 1658 1689 l 1600 1789 l 1567 1817 q 1318 1844 1467 1872 q 1013 1731 1169 1817 q 708 1517 856 1644 q 467 1244 561 1389 l 433 1200 l 439 1200 q 693 1410 561 1311 q 953 1579 825 1508 q 1196 1685 1081 1650 q 1400 1706 1311 1719 q 1411 1683 1411 1700 q 1407 1672 1411 1678 q 1389 1672 1403 1667 q 1199 1649 1308 1683 q 967 1546 1089 1614 q 715 1381 844 1478 q 467 1172 586 1283 l 383 1100 l 372 1072 q 333 843 325 956 q 422 639 342 731 q 547 563 464 589 q 744 522 631 536 l 811 517 l 833 539 q 1133 806 992 656 m 767 483 l 733 483 q 529 529 617 497 q 394 617 442 561 q 303 803 319 700 q 317 1011 286 906 l 322 1033 l 267 978 q 74 740 156 856 q -53 525 -8 625 q -99 346 -97 425 q -44 222 -100 267 l -11 200 q 154 190 64 178 q 344 240 244 203 q 550 339 444 278 q 761 478 656 400 l 767 483 m 1744 2111 q 1744 2089 1758 2097 q 1722 2100 1731 2083 q 1685 2167 1697 2131 q 1656 2250 1672 2203 q 1571 2190 1625 2228 q 1394 2106 1517 2153 q 1372 2122 1381 2106 q 1389 2144 1364 2136 q 1500 2189 1456 2167 q 1574 2229 1544 2211 q 1622 2263 1603 2247 q 1661 2289 1642 2278 q 1682 2279 1675 2289 q 1694 2256 1689 2269 q 1703 2218 1700 2231 q 1710 2193 1706 2206 q 1721 2164 1714 2181 q 1744 2111 1728 2147 z "},"Ö":{"ha":1744,"x_min":-144,"x_max":1964,"o":"m -28 167 q -135 315 -125 217 q -90 539 -144 414 q 68 803 -36 664 q 300 1072 172 942 l 350 1117 l 361 1133 q 513 1367 417 1253 q 725 1578 608 1481 q 969 1747 842 1675 q 1219 1856 1097 1819 q 1447 1885 1342 1892 q 1628 1817 1553 1878 q 1682 1624 1694 1742 q 1599 1364 1669 1506 q 1413 1071 1528 1222 q 1161 778 1297 919 q 1086 706 1122 739 q 1011 639 1050 672 l 867 517 q 1411 569 1144 519 q 1928 761 1678 619 q 1956 750 1944 769 q 1944 722 1964 733 q 1664 594 1822 644 q 1347 515 1506 544 q 1047 478 1189 486 q 817 478 906 469 q 606 329 717 397 q 385 217 494 261 q 169 157 275 172 q -22 167 64 142 l -28 167 m 1133 806 q 1374 1081 1267 942 q 1549 1346 1481 1219 q 1638 1581 1617 1472 q 1622 1761 1658 1689 l 1600 1789 l 1567 1817 q 1318 1844 1467 1872 q 1013 1731 1169 1817 q 708 1517 856 1644 q 467 1244 561 1389 l 433 1200 l 439 1200 q 693 1410 561 1311 q 953 1579 825 1508 q 1196 1685 1081 1650 q 1400 1706 1311 1719 q 1411 1683 1411 1700 q 1407 1672 1411 1678 q 1389 1672 1403 1667 q 1199 1649 1308 1683 q 967 1546 1089 1614 q 715 1381 844 1478 q 467 1172 586 1283 l 383 1100 l 372 1072 q 333 843 325 956 q 422 639 342 731 q 547 563 464 589 q 744 522 631 536 l 811 517 l 833 539 q 1133 806 992 656 m 767 483 l 733 483 q 529 529 617 497 q 394 617 442 561 q 303 803 319 700 q 317 1011 286 906 l 322 1033 l 267 978 q 74 740 156 856 q -53 525 -8 625 q -99 346 -97 425 q -44 222 -100 267 l -11 200 q 154 190 64 178 q 344 240 244 203 q 550 339 444 278 q 761 478 656 400 l 767 483 m 1344 2072 q 1365 2113 1350 2097 q 1411 2122 1381 2128 q 1417 2119 1414 2122 q 1417 2106 1422 2114 l 1389 2078 q 1364 2057 1383 2056 q 1344 2072 1344 2058 m 1611 2072 q 1632 2113 1617 2097 q 1678 2122 1647 2128 q 1683 2119 1681 2122 q 1683 2106 1689 2114 l 1656 2078 q 1631 2057 1650 2056 q 1611 2072 1611 2058 z "},"Ò":{"ha":1744,"x_min":-144,"x_max":1964,"o":"m -28 167 q -135 315 -125 217 q -90 539 -144 414 q 68 803 -36 664 q 300 1072 172 942 l 350 1117 l 361 1133 q 513 1367 417 1253 q 725 1578 608 1481 q 969 1747 842 1675 q 1219 1856 1097 1819 q 1447 1885 1342 1892 q 1628 1817 1553 1878 q 1682 1624 1694 1742 q 1599 1364 1669 1506 q 1413 1071 1528 1222 q 1161 778 1297 919 q 1086 706 1122 739 q 1011 639 1050 672 l 867 517 q 1411 569 1144 519 q 1928 761 1678 619 q 1956 750 1944 769 q 1944 722 1964 733 q 1664 594 1822 644 q 1347 515 1506 544 q 1047 478 1189 486 q 817 478 906 469 q 606 329 717 397 q 385 217 494 261 q 169 157 275 172 q -22 167 64 142 l -28 167 m 1133 806 q 1374 1081 1267 942 q 1549 1346 1481 1219 q 1638 1581 1617 1472 q 1622 1761 1658 1689 l 1600 1789 l 1567 1817 q 1318 1844 1467 1872 q 1013 1731 1169 1817 q 708 1517 856 1644 q 467 1244 561 1389 l 433 1200 l 439 1200 q 693 1410 561 1311 q 953 1579 825 1508 q 1196 1685 1081 1650 q 1400 1706 1311 1719 q 1411 1683 1411 1700 q 1407 1672 1411 1678 q 1389 1672 1403 1667 q 1199 1649 1308 1683 q 967 1546 1089 1614 q 715 1381 844 1478 q 467 1172 586 1283 l 383 1100 l 372 1072 q 333 843 325 956 q 422 639 342 731 q 547 563 464 589 q 744 522 631 536 l 811 517 l 833 539 q 1133 806 992 656 m 767 483 l 733 483 q 529 529 617 497 q 394 617 442 561 q 303 803 319 700 q 317 1011 286 906 l 322 1033 l 267 978 q 74 740 156 856 q -53 525 -8 625 q -99 346 -97 425 q -44 222 -100 267 l -11 200 q 154 190 64 178 q 344 240 244 203 q 550 339 444 278 q 761 478 656 400 l 767 483 m 1672 1961 q 1644 1956 1664 1944 q 1613 1982 1631 1961 q 1576 2028 1594 2003 q 1542 2075 1558 2053 q 1517 2111 1525 2097 q 1517 2139 1506 2133 q 1533 2140 1522 2144 q 1544 2128 1544 2136 q 1569 2096 1553 2117 q 1604 2054 1586 2075 q 1639 2014 1622 2033 q 1667 1989 1656 1994 q 1676 1975 1675 1983 q 1672 1961 1678 1967 z "}}}
